<mxfile host="app.diagrams.net" modified="2023-03-31T07:27:32.701Z" agent="Mozilla/5.0 (Windows NT 10.0; Win64; x64) AppleWebKit/537.36 (KHTML, like Gecko) Chrome/111.0.0.0 Safari/537.36" etag="vbIT4EBdl_xl8gXFnzVl" version="21.1.2" type="github">
  <diagram name="페이지-1" id="ucnYhN0G6u-poQc_V0eM">
    <mxGraphModel dx="3172" dy="2218" grid="1" gridSize="10" guides="1" tooltips="1" connect="1" arrows="1" fold="1" page="1" pageScale="1" pageWidth="827" pageHeight="1169" background="#FFFFFF" math="0" shadow="0">
      <root>
        <mxCell id="0" />
        <mxCell id="1" parent="0" />
        <mxCell id="NUu4eacmFacFfqtwliKr-120" value="" style="group" parent="1" vertex="1" connectable="0">
          <mxGeometry x="-690" y="-880" width="2230" height="1230" as="geometry" />
        </mxCell>
        <mxCell id="NUu4eacmFacFfqtwliKr-52" value="" style="group" parent="NUu4eacmFacFfqtwliKr-120" vertex="1" connectable="0">
          <mxGeometry x="171.59000000000003" y="30" width="514.81" height="480" as="geometry" />
        </mxCell>
        <mxCell id="NUu4eacmFacFfqtwliKr-18" value="t" style="group" parent="NUu4eacmFacFfqtwliKr-52" vertex="1" connectable="0">
          <mxGeometry y="40" width="514.81" height="440" as="geometry" />
        </mxCell>
        <mxCell id="NUu4eacmFacFfqtwliKr-1" value="" style="shape=image;verticalLabelPosition=bottom;labelBackgroundColor=default;verticalAlign=top;aspect=fixed;imageAspect=0;image=data:image/png,iVBORw0KGgoAAAANSUhEUgAAAoAAAAIjCAYAAACTRapjAAAfFUlEQVR4nO3de5SV9Xno8WfvmXFAroIgAspwx2CWUZDGqJVcvSQuDSWNNq6mhxqyqCWay5HTtEl6TpLmRFtjUxtiEG2KdrVitI0mGA0nihpyImpQ8QIiA0LkJgw3B5jZe58/CHNEbjPDIJDn81mLBXv2O+/77gH2/u7f+3vfXRg6dGglgHY56aSTYvDgwVEul4/0rkAanTt3jpdeeinWrFlzpHcFjlnVR3oH4Fi3atWqWLZs2ZHeDUhj8ODBR3oX4JjXEoCvvPLKkdwPOCY9+eSTcf3117fc7tGjR/To0SNWrFjRcruqqio2bNiwz++vq6uLqqqqVm2rvr4+SqXSoe/0O6gtj29fli1bdtDR1UKhEEOGDGn3NsrlcqsC/u2P5WB/H21d/ljQu3fv6Nq1axSLxdi2bVusX7/+iI1+33zzzXH22WcfkW3DsWzYsGERYQQQOtTOnTtj27ZtLbebmpqiUtn/LIvPfvaz8Z73vOeg661UKvHlL385fvOb33TIfnakQqGw38d47bXXRqdOnWL79u1tXm9dXV1MmzYtFi9efMDlBg0aFP/wD/8Q9fX1B/xZ70ttbW2USqWYOnXqQZe9/PLL44wzzoiGhoaIiLj77rtj/vz5+11+3Lhxcc4550RERL9+/eKOO+6Ihx56aL/LH+jneDi0dnvV1dUxbty4+NRVn4pBQwdFpbYS5WI5ako18Xr96zH34bkxZ86c2Lhx4zuw10BHEYDQgRobG6OxsTG6d+8ePXv2bBkJ/H3Ws2fP2LZtW+zcuXOv+0qlUkyfPj1eeOGFNq2zuro6vvWtb7V6+fr6+virv/qraGpqatN2Ro0aFVdffXWrl589e3YsXrw4qqqqolwux9ChQ/e77DPPPBMLFy6M+vr6+Mu//MsDrrdYLEbv3r1j3bp1B1yurq4u6urqIiJi3rx5e4y+9ezZMz74wQ/GypUr4ze/+U3s2LHjgOs64YQTYvPmzdHc3LzfZXr16hXXXnttDD9/eDxU/1DMem5WVBd2vWw0l5uj9/G94wNXfiAuvezSuOF/3xDPPPPMAbcJHD0EIBwGTU1Ne4wEHsiKFSvizTffPOAy5XL5oMscyCmnnBJdunRp1bLr1q2LN954o9XrLhQKUSgU9nt/qVQ6YGTsS6VSafOhxebm5jZvp63Ll8vl+NjHPrbHSOCB7B75a81jKRaLB7x/8uTJMWHChNiwYUOUy+V47LHH9rh/8ODBMW3atKivr4+mpqb48pe/HMuXL9/v+g70dxax60SLr37tq7Ft0La4acFNMXHEJ+LKkX8SfY/vG4VCIXaUdsRTqxfEj1+9P/p3PTm++o2vxlemfSWef/75gz7W1qipqWlz0AOtJwChA711DmBjY+NB5wBWKpWYMWNGqw7ttnf+WN++fePGG2+M1atXH3TZ2traaGxsjC984QvRs2fPGD9+fGzZsiXmzp3brm3va/0HG5k6VAebE9jaOX9vt3z58mhsbIyIXSOBBzqcu9u1114bERG//e1v2xybb9WvX7+48sor45vf/GaMHj06zj777Kiqqor+/ftHTU1NS7A3NDTELbfcEh/+8Idj0qRJ8bWvfa1d2ysUCjF58uSoDKvEQy8/FF8/9xvRv0v/PZbpVNUp+nU5Of5s9J/Fz5c/HD9a/aP4m6/8TUz6b5MO6c1KxK65hsOGDYuFCxe2a/oAcHCtCsDp37+13RsYdOqpccklF7f7++FY0tY5gBG7wu7kk0/e5wjda6+9Ftu2bYtTTz011q9f364X1urq6li/fn1MmzbtoPE1bNiw+PznPx8jR46MyZMnR6lUiuOPP77DAvCP//iP44EHHjis88Xq6upa5gS+feStU6dOUS6XD3pIdl/uu+++iIg488wzW0Y1jzvuuH0e+t5t9/b/4z/+o83be6t+/frFxo0bo6qqKq666qqYO3duTJ8+Perq6mLnzp1RXV0dL774YixevDg+85nPxD333BMTJkxo9/aGDx8eF338ovi7p/8u/uI91+wVfxER9Zvr45q5fxHnD/zD+MKYL8T/mv8/Y8vALfFHf/RHMWvWrHZvu3fv3jFixIhYunSp+IPDqFUBOGDQsBg8ZP9zXd5q/drX97g9//F5ApA02jsH8MILL4zTTz99r6/PmDEjFi1aFJMnT4677747nn322Y7e5b306dMnpk6dGv/5n/8Zr732Wnzuc5/rsHWfddZZUVdXF9/5zndi69atHbbet9vfnMBRo0bFZz7zmQ7bzoQJE+KXv/zlYZ/ruXvOYW1tbWzbti3Gjh0bDz74YNx8883R3Nwc/fr1iylTpkTnzp1bgvRgh5QP5Nxzz42nG56OESeMjHf1etc+l/npqz+JUrkUF9VdFJ2rO8dlwy6PexbfE5+44BNx9913t2uk98QTT4yRI0fG0qVLY+3ate3ef+DgWn0IuLZYE3sMZPzuRiUihg87ueVyDf379opTTz01yuVylEqlmP/4vA7eZTj6tWUOYETEbbfdts+vd+3aNT72sY/F0KFD46KLLoqqqqpYuHDhYb30xo4dO+KGG26IFStWxPDhwzt03YVCId73vvfFunXrYubMmYd1jte+5gQeymHYAQMG7DUC269fv7juuuvihhtuOOAh9n79+sW2bdtiy5Ytbd5u//79Y9KkSbFmzZro3LlznHjiiTFz5sz48Y9/HBG7fqYDBgyIwYMHx44dO6KhoSE2b94cPXv2jIkTJ8a9997b5n8vZ7znjPjl2l/GxXX7fvP+SsMr8dNlP43zB54fZ/Y9c9f39Dkj7nj+9ug3ql9069atzQHYu3fvGD58eCxZskT8wTug1QH433/4SBSrKxFVpSjWlKJQXf7dr+b4fp8roqamJsrlclQqlXhw/ssxf/Fr8dkP7/udI/y+6tGjR/Ts2bNlvtjB5gDutvuacW+9VtyAAQNi2rRpsXXr1pbDf9OmTYtHHnkkbr311sN2yZDNmze3jGgd7ASP9rr00ktj586dcccdd7yjlz45FBMnTowXX3wxInZF2e5r/J122mkxZcqU+Pa3vx1vvvnmHtf/69y5c0REfPKTn4znn3++XYfS+/TpE8OGDYtvfvObLSeB/OIXv4hisRjlcjkuuOCCmDp1atx5552xefPmmDJlSpx00knx4IMPxmWXXdZy6LotevfpHatXr44+nftERMTKrStje3NjDO4xJIqFYsxZNid2lHbEJUMuiWJh10hjp+pOUalUonRcKWpra9u0vW7dusXpp58eixcvFn+0W2ufq46255xCoRALFiyIMWPG7PP+p556KsaOHdvh+93qAOzapRjVtYUoVEUUqgtRqC5HsboUUbXrBePkk09uOXNv4WtvRKdeEevXr+/QnYWj3c6dO/c4tNmaOYAREZdcckkMGzYspk+fHkuWLIlCoRCf/vSn44033ojvfOc78alPfSrmzp0bjzzySFx33XXx8ssvxy9+8YvD+VA6TF1dXZRKpaivr2/5WrFYjMsvvzzWrl0bP/nJT6JSqURdXV106tQpInbNW9z956NFoVCIYrEYq1atinPOOSfGjRvXct+4cePimmuuiX/6p3+KcePGxXvf+96W+zZv3hzFYvGQLojdo0ePGDJkSDQ0NMSWLVviIx/5SIwaNSp+9atfxeTJk+Nf/uVf4v77748xY8bE9u3bY9OmTXHeeee1e8SzXCpHTVVNlH/3b/eZtU/HzQtuji+d/aU4rfe74ievPhDjTxkfY04a2/I9lUolKlGJKEebR3YbGxujoaEhevbsGWvXrj3mL5jNkXOw59vD8Yb2UC1YsCDOOfe8mP/E43tF4FNPPRXnnHteLFiwoMO32+oA7NK1GMd1KsbqzZtie9P2qKopRbFmVwSWy+VYsWJFlMvlKJfLUahpjuO67DzqKhsOt/bOAbz11lujUChEqVSKurq6OOmkk2L48OExffr02LZtW/zgBz+IcrkcTU1N8eijj8b48eNj1apVsXTp0g5/sezVq1dMmDCh5RDjoVixYkV85CMfiebm5pgxY8Ye99XU1MSkSbvOGJ03b15cfPHFMXLkyJb7S6XSURcC/fv3j8ceeyyeffbZWLZsWfzBH/xBy33vf//7Y+PGjfHDH/4w7r333paRwHK53DIS2B4vv/xy3HTTTXHZZZfF3XffHRdeeGEsXrw43vve98bUqVNj1qxZcf/990fErkvBrFmzJiqVSpxyyinxpS99qV0/w9W/XR0j+4+M+s3LYlD3QTF+4Pvj31/89/jXF/41zup7VjSXm+NDp34oCvH/X0w37tgYtdW1UdxebPPJSs3NzfHCCy/E6NGjY+TIkbF48eJDOlwPx5IxY8bE/Cce3ysCd8ffvsKwI7Q6ADfv3BZb3twaxZpSVB1XjqrfjQBWVe39n7RYVYrqTtuP2EcEwZHW1jmA/fv3jy5dusTKlSvjoosuine/+93Rp0+f+OQnPxkNDQ0tn4ZxySWXxBlnnBG9e/eOKVOmxC233BJLly7t0H0vFApx1llnxYgRI+KJJ544pDdy3/3udw94f+fOnePqq6+OhoaGmD59eru383a1tbUxcuTIvSJi8ODB7R4B2D3yt/tkndmzZ+9xf6FQiMsvvzy2b98ed911V5x11ll7jQS2x/bt22Pp0qUtn1rSrVu3uOCCC+Lv//7vY9CgQfHrX/86CoVCnHLKKXHppZfGmjVrora2NjZv3hxLlixp1zZ//vOfxye+9Im456V74rwB50e347rFladdGTctuCnmLJsT408ZH2f3G7fH9/yfFXNjVO9R8ezTz7brBJ+mpqZ4/vnnY/To0TF8+PBYvHjxUfcGAA6Xt0dgRBzW+ItoQwC+Wd4WxdrmXeFXVY6q6lJUVZeiWF2KSqUS/fv3b3nH/srW1dGp03bv4EinvXMAd58FfNttt8WMGTOiR48eceONN8Z9990XS5YsicGDB8eKFSvitttui8997nOxYMGCuP3221v9AllbWxtDhw496MT8gQMHxoYNG+Ib3/hGTJw4MSZPnhwvv/xyqx9/W7z++uvRs2fPOOGEE+Laa6+Nv/3bv23X9fnebvcJaPv7hI/2nrH7ox/9aI/5dOVyeY8RwEqlElVVVTFx4sRYt25d3HPPPXHvvffusXx7bdq0KY477rjYtGlTrF69Oj74wQ/GiSeeGI8++miMHj06TjvttPjoRz8a3bt3jyeeeCI6d+7crhNOdnvyySfj6s1XR1VVVcxePDuuGHlFXDBwfPzf138da99cExfWXdQy9y8iYummpfHAqw/EF9/zxfjn6f/c7u2+dSRw1KhR8dJLL4lA0nhrBEbEYY2/iDYEYHVtKSrV5aiq2hV9xapSVFeXo1jV3HLod/evMQNGRt/Xjo/ice2/DAEci9o7B/DtZwFv2LAh5s6dG1OmTIktW7bEFVdcEffdd1+MGTMmzj333Pjrv/7rVr/BampqilWrVrX6I8/mz58f27dvjzvvvDMeeeSRA17nrr0ee+yx+O53vxvHH398DBo0KEaMGBFjx46N1atXt1xsub2WL1/eruv8Hczu57d9efXVV+P73/9+DBw4MIYMGRLnnXderFq1qsM+FWP16tXR3NwcZ555Zvzbv/1bfOhDH4qHH344xo4dG7169YolS5bE7bffHpdddlk89NBDcdVVV8Xjjz/e7u01NDTEzBkzY8r/mBI3Pn1jdK3pGhcPvji+fu7X91iuUqnEq5tfjVueuSX+5F1/Ei88+kI8+eSTh/RYm5qaYtGiRTFo0KBDWg+H5lg9oYLWa3UAdupciKYoRaG6Oap/F4FVVbsOAe9+YiyVSi1PkP369fPOjXQ68rOA/+u//iu6desW119/fXTt2jUGDhwYW7dujX/8x3+MRYsWtXo969ati69//evtekJfuXJlm/f7YJYuXRozZ86MrVu3xtatW2Pt2rXx5JNPRqFQOCZfTDZu3Bjf+973YtGiRfHcc89FxK7r9nXkZPOtW7fGV77ylZg0aVKcfvrp8corr8Rdd90Vd955ZxSLxSiVSvHud787Jk2aFNdcc03Mnz8/7rrrrkPa5sMPPxx9+/aNaZOnxe2Lbo95Kx+N8wacFyNPGBXFQiG2NG2NR197JBZvXByXj7g84uWIm266qUOe95uammLp0qXH5L+H3xd+9u+8t875iziKDgFXitujqqpp12Hf4u7Dv81RVdx1CHjlypUth4D79Omz63IAApCk2jIH8NRTT93nJx4sX748br311njggQfi+uuvj5/97Gcxf/78dn2KxuH8v7h9e+unezQ2Nsbs2bNjzZo1e913KC84nTp1ipEjR7b5cdbV1R1SqJVKpZg1a9ZeQd6en/fB/r0sWrQovvjFL0b37t2jurq6ZRu733Q/99xz8fGPfzwaGxtbdRLGjh07DnhYulKpxJ133hkbNmyIP/30n8aWE7bEr377q3jit0/EjtKO6N25d5w74NyYcOqEeGD2AzFr1qwO/Zg/AUIm+zrhY18nhnSkVgVgISKK1c0RVc1RXVOKYrE5ilW7RgCLVeVobm6OHTt2tATg7guwCkCyaescwPr6+vjABz4Q48eP3+PrlUolZs6cGYsWLYpVq1bFokWLYsWKFYf1I9Taqy1nfN57773x9NNPd+j2K5VKNDU1xZ//+Z+36/sPZZR23rx5HXKYt1wut/rEif2dTFKpVFo+E7g1Wru9n/70pzFv3rw4//zzY8yYMfG+Ie+LTp07xbq16+KZ2c/Et3/27ZYzj4G229/Zvvs7O7ijtCoAKxFx44WTY8Mb66NcqbRc72/371U1tdGnZ68olytRLpeiqVSKUjmiVDn6rrcDh1Nb5wD+4Ac/aNV6W7vc0e5Q54fty/Lly2Pq1Kkdvt7WWLhw4RHZ7jtt69atMWfOnJgzZ86R3hU4oKPxOn8HM3bs2P1eCHp3BB6xC0Ff/KE/jKampujZfe8Pqz+Yz1/XcZ8jCkejLl26RPfu3VtuNzU17XE7Iva6DbRfTU3Nkd4FjkLH6ij0wfZ7zJgxh+WxtSoAa2pq/IeDfejRo0dcccUVR3o3IJ2+ffse6V2AY1qrTwIB9jZixIgYMWLEkd4NAGgTF+oDAEhGAAIAJCMAAQCSEYAAAMkIQACAZAQgAEAyAhAAIIlXXnklIgQgAEA6AhAAIBkBCACQjAAEAEhGAAIAJCMAAQCSEYAAAMkIQACAZAQgAEAyAhAAIBkBCACQjAAEAEhGAAIAJCMAAQCSEYAAAMkIQACAZAQgAEAyAhAAIBkBCACQjAAEAEhGAAIAJCMAAQCSEYAAAMkIQACAZAQgAEAyAhAAIBkBCACQjAAEAEhGAAIAJCMAAQCSEYAAAMkIQACAZAQgAEAyAhAAIBkBCACQjAAEAEhGAAIAJCMAAQCSEYAAAMkIQACAZAQgAEAyAhAAIBkBCACQjAAEAEhGAAIAJCMAAQCSEYAAAMkIQACAZAQgAEAyAhAAIBkBCACQjAAEAEhGAAIAJCMAAQCSEYAAAMkIQACAZAQgAEAyAhAAIBkBCACQjAAEAEhGAAIAJCMAAQCSEYAAAMkIQACAZAQgAEAyAhAAIBkBCACQjAAEAEhGAAIAJCMAAQCSEYAAAMkIQACAZAQgAEAyAhAAIBkBCACQjAAEAEhGAAIAJCMAAQCSEYAAAMkIQACAZAQgAEAyAhAAIBkBCACQjAAEAEhGAAIAJCMAAQCSEYAAAMkIQACAZAQgAEAyAhAAIBkBCACQjAAEAEhGAAIAJCMAAQCSEYAAAMkIQACAZAQgAEAyAhAAIBkBCACQjAAEAEhGAAIAJCMAAQCSEYAAAMkIQACAZAQgAEAyAhAAIBkBCACQjAAEAEhGAAIAJCMAAQCSEYAAAMkIQACAZAQgAEAyAhAAIBkBCACQjAAEAEhGAAIAJCMAAQCSEYAAAMkIQACAZAQgAEAyAhAAIBkBCACQjAAEAEhGAAIAJCMAAQCSEYAAAMkIQACAZAQgAEAyAhAAIBkBCACQjAAEAEhGAAIAJCMAAQCSEYAAAMkIQACAZAQgAEAyAhAAIBkBCACQjAAEAEhGAAIAJCMAAQCSEYAAAMkIQACAZAQgAEAyAhAAIBkBCACQjAAEAEhGAAIAJCMAAQCSEYAAAMkIQACAZAQgAEAyAhAAIBkBCACQjAAEAEhGAAIAJCMAAQCSEYAAAMkIQACAZAQgAEAyAhAAIBkBCACQjAAEAEhGAAIAJCMAAQCSEYAAAMkIQACAZAQgAEAyAhAAIBkBCACQjAAEAEhGAAIAJCMAAQCSEYAAAMkIQACAZAQgAEAyAhAAIBkBCACQjAAEAEhGAAIAJCMAAQCSEYAAAMkIQACAZAQgAEAyAhAAIBkBCACQjAAEAEhGAAIAJCMAAQCSEYAAAMkIQACAZAQgAEAyAhAAIBkBCACQjAAEAEhGAAIAJCMAAQCSEYAAAMkIQACAZAQgAEAyAhAAIBkBCACQjAAEAEhGAAIAJCMAAQCSEYAAAMkIQACAZAQgAEAyAhAAIBkBCACQjAAEAEhGAAIAJCMAAQCSEYAAAMkIQACAZAQgAEAyAhAAIBkBCACQjAAEAEhGAAIAJCMAAQCSEYAAAMkIQACAZAQgAEAyAhAAIBkBCACQjAAEAEhGAAIAJCMAAQCSEYAAAMkIQACAZAQgAEAyAhAAIBkBCACQjAAEAEhGAAIAJCMAAQCSEYAAAMkIQACAZAQgAEAyAhAAIBkBCACQjAAEAEhGAAIAJCMAAQCSEYAAAMkIQACAZAQgAEAyAhAAIBkBCACQjAAEAEhGAAIAJCMAAQCSEYAAAMkIQACAZAQgAEAyAhAAIBkBCACQjAAEAEhGAAIAJCMAAQCSEYAAAMkIQACAZAQgAEAyAhAAIBkBCACQjAAEAEhGAAIAJCMAAQCSEYAAAMkIQACAZAQgAEAyAhAAIBkBCACQjAAEAEhGAAIAJCMAAQCSEYAAAMkIQACAZAQgAEAyAhAAIBkBCACQjAAEAEhGAAIAJCMAAQCSEYAAAMkIQACAZAQgAEAyAhAAIBkBCACQjAAEAEhGAAIAJCMAAQCSEYAAAMkIQACAZAQgAEAyAhAAIBkBCACQjAAEAEhGAAIAJCMAAQCSEYAAAMkIQACAZAQgAEAyAhAAIBkBCACQjAAEAEhGAAIAJCMAAQCSEYAAAMkIQACAZAQgAEAyAhAAIBkBCACQjAAEAEhGAAIAJCMAAQCSEYAAAMkIQACAZAQgAEAyAhAAIBkBCACQjAAEAEhGAAIAJCMAAQCSEYAAAMkIQACAZAQgAEAyAhAAIBkBCACQjAAEAEhGAAIAJCMAAQCSEYAAAMkIQACAZAQgAEAyAhAAIBkBCACQjAAEAEhGAAIAJCMAAQCSEYAAAMkIQACAZAQgAEAyAhAAIBkBCACQjAAEAEhGAAIAJCMAAQCSEYAAAMkIQACAZAQgAEAyAhAAIBkBCACQjAAEAEhGAAIAJCMAAQCSEYAAAMkIQACAZAQgAEAyAhAAIBkBCACQjAAEAEhGAAIAJCMAAQCSEYAAAMkIQACAZAQgAEAyAhAAIBkBCACQjAAEAEhGAAIAJCMAAQCSEYAAAMkIQACAZAQgAEAyAhAAIBkBCACQjAAEAEhGAAIAJCMAAQCSEYAAAMkIQACAZAQgAEAyAhAAIBkBCACQjAAEAEhGAAIAJCMAAQCSEYAAAMkIQACAZAQgAEAyAhAAIBkBCACQjAAEAEhGAAIAJCMAAQCSEYAAAMkIQACAZAQgAEAyAhAAIBkBCACQjAAEAEhGAAIAJCMAAQCSEYAAAMkIQACAZAQgAEAyAhAAIBkBCACQjAAEAEhGAAIAJCMAAQCSEYAAAMkIQACAZAQgAEAyAhAAIBkBCACQjAAEAEhGAAIAJCMAAQCSEYAAAMkIQACAZAQgAEAyAhAAIBkBCACQjAAEAEhGAAIAJCMAAQCSEYAAAMkIQACAZAQgAEAyAhAAIBkBCACQjAAEAEhGAAIAJCMAAQCSEYAAAMkIQACAZAQgAEAyAhAAIBkBCACQjAAEAEhGAAIAJCMAAQCSEYAAAMkIQACAZAQgAEAyAhAAIBkBCACQjAAEAEhGAAIAJCMAAQCSEYAAAMkIQACAZAQgAEAyAhAAIBkBCACQjAAEAEhGAAIAJCMAAQCSEYAAAMkIQACAZAQgAEAyAhAAIBkBCACQjAAEAEhGAAIAJCMAAQCSEYAAAMkIQACAZAQgAEAyAhAAIBkBCACQjAAEAEhGAAIAJCMAAQCSEYAAAMkIQACAZAQgAEAyAhAAIBkBCACQTPXuP1QqlSO5HwAAvENaAnDrpk0RIhAA4PdXoRARbwnAqFSMAgIA/B4r/O53cwABAJIRgAAAyQhAAIBkBCAAQDICEAAgGQEIAJCMAAQASEYAAgAkIwABAJIRgAAAyQhAAIBkBCAAQDICEAAgGQEIAJCMAAQASEYAAgAkIwABAJIRgAAAyQhAAIBkBCAAQDICEAAgGQEIAJCMAAQASEYAAgAkIwABAJIRgAAAyQhAAIBkqlv+VChE4QjuCAAAh1lhV+0Vhg4dWjnCuwIAwDuourGxMSIiKpXKHr+/3f6+DgDA0alQKOzzdnWhUIhKpbLXArvtDr/93Q8AwNHtrR1XKBTi/wF6D/a4dXOUngAAAABJRU5ErkJggg==;" parent="NUu4eacmFacFfqtwliKr-18" vertex="1">
          <mxGeometry width="514.81" height="440" as="geometry" />
        </mxCell>
        <mxCell id="NUu4eacmFacFfqtwliKr-4" value="Validation Box" style="rounded=0;whiteSpace=wrap;html=1;strokeColor=none;fontSize=25;" parent="NUu4eacmFacFfqtwliKr-18" vertex="1">
          <mxGeometry x="102.4" y="20" width="310" height="60" as="geometry" />
        </mxCell>
        <mxCell id="NUu4eacmFacFfqtwliKr-8" value="Connect PLC" style="rounded=1;whiteSpace=wrap;html=1;" parent="NUu4eacmFacFfqtwliKr-18" vertex="1">
          <mxGeometry x="110" y="90" width="129" height="50" as="geometry" />
        </mxCell>
        <mxCell id="NUu4eacmFacFfqtwliKr-11" value="Activate TwinCAT" style="rounded=1;whiteSpace=wrap;html=1;" parent="NUu4eacmFacFfqtwliKr-18" vertex="1">
          <mxGeometry x="270" y="90" width="129" height="50" as="geometry" />
        </mxCell>
        <mxCell id="NUu4eacmFacFfqtwliKr-12" value="Enable PG" style="rounded=1;whiteSpace=wrap;html=1;" parent="NUu4eacmFacFfqtwliKr-18" vertex="1">
          <mxGeometry x="110" y="150" width="129" height="50" as="geometry" />
        </mxCell>
        <mxCell id="NUu4eacmFacFfqtwliKr-13" value="Disable PG" style="rounded=1;whiteSpace=wrap;html=1;" parent="NUu4eacmFacFfqtwliKr-18" vertex="1">
          <mxGeometry x="270" y="150" width="129" height="50" as="geometry" />
        </mxCell>
        <mxCell id="NUu4eacmFacFfqtwliKr-14" value="Enable MPC" style="rounded=1;whiteSpace=wrap;html=1;" parent="NUu4eacmFacFfqtwliKr-18" vertex="1">
          <mxGeometry x="110" y="210" width="129" height="50" as="geometry" />
        </mxCell>
        <mxCell id="NUu4eacmFacFfqtwliKr-15" value="Disable MPC" style="rounded=1;whiteSpace=wrap;html=1;" parent="NUu4eacmFacFfqtwliKr-18" vertex="1">
          <mxGeometry x="270" y="210" width="129" height="50" as="geometry" />
        </mxCell>
        <mxCell id="NUu4eacmFacFfqtwliKr-16" value="Foreline Pressure Module" style="rounded=1;whiteSpace=wrap;html=1;fillColor=#647687;fontColor=#ffffff;strokeColor=#314354;" parent="NUu4eacmFacFfqtwliKr-18" vertex="1">
          <mxGeometry x="110" y="270" width="290" height="60" as="geometry" />
        </mxCell>
        <mxCell id="NUu4eacmFacFfqtwliKr-17" value="Manifold Pressure Controller" style="rounded=1;whiteSpace=wrap;html=1;fillColor=#647687;fontColor=#ffffff;strokeColor=#314354;" parent="NUu4eacmFacFfqtwliKr-18" vertex="1">
          <mxGeometry x="110" y="340" width="290" height="60" as="geometry" />
        </mxCell>
        <mxCell id="NUu4eacmFacFfqtwliKr-33" value="NetID : 5.108.227.236.1.1" style="text;strokeColor=none;align=center;fillColor=none;html=1;verticalAlign=middle;whiteSpace=wrap;rounded=0;" parent="NUu4eacmFacFfqtwliKr-18" vertex="1">
          <mxGeometry x="170" y="415" width="140" height="20" as="geometry" />
        </mxCell>
        <mxCell id="NUu4eacmFacFfqtwliKr-34" value="Communication Status :&amp;nbsp;" style="text;html=1;align=center;verticalAlign=middle;resizable=0;points=[];autosize=1;strokeColor=none;fillColor=none;" parent="NUu4eacmFacFfqtwliKr-18" vertex="1">
          <mxGeometry x="349" y="410" width="150" height="30" as="geometry" />
        </mxCell>
        <mxCell id="NUu4eacmFacFfqtwliKr-35" value="" style="ellipse;whiteSpace=wrap;html=1;fillColor=#f8cecc;strokeColor=#b85450;" parent="NUu4eacmFacFfqtwliKr-18" vertex="1">
          <mxGeometry x="489" y="420" width="10" height="10" as="geometry" />
        </mxCell>
        <mxCell id="NUu4eacmFacFfqtwliKr-50" value="Main Window" style="text;html=1;align=center;verticalAlign=middle;resizable=0;points=[];autosize=1;strokeColor=none;fillColor=none;" parent="NUu4eacmFacFfqtwliKr-52" vertex="1">
          <mxGeometry x="15.409999999999997" y="36" width="100" height="30" as="geometry" />
        </mxCell>
        <mxCell id="NUu4eacmFacFfqtwliKr-53" value="" style="group" parent="NUu4eacmFacFfqtwliKr-120" vertex="1" connectable="0">
          <mxGeometry x="857.59" y="30" width="514.81" height="480" as="geometry" />
        </mxCell>
        <mxCell id="NUu4eacmFacFfqtwliKr-36" value="t" style="group" parent="NUu4eacmFacFfqtwliKr-53" vertex="1" connectable="0">
          <mxGeometry y="40" width="514.81" height="440" as="geometry" />
        </mxCell>
        <mxCell id="NUu4eacmFacFfqtwliKr-37" value="" style="shape=image;verticalLabelPosition=bottom;labelBackgroundColor=default;verticalAlign=top;aspect=fixed;imageAspect=0;image=data:image/png,iVBORw0KGgoAAAANSUhEUgAAAoAAAAIjCAYAAACTRapjAAAfFUlEQVR4nO3de5SV9Xno8WfvmXFAroIgAspwx2CWUZDGqJVcvSQuDSWNNq6mhxqyqCWay5HTtEl6TpLmRFtjUxtiEG2KdrVitI0mGA0nihpyImpQ8QIiA0LkJgw3B5jZe58/CHNEbjPDIJDn81mLBXv2O+/77gH2/u7f+3vfXRg6dGglgHY56aSTYvDgwVEul4/0rkAanTt3jpdeeinWrFlzpHcFjlnVR3oH4Fi3atWqWLZs2ZHeDUhj8ODBR3oX4JjXEoCvvPLKkdwPOCY9+eSTcf3117fc7tGjR/To0SNWrFjRcruqqio2bNiwz++vq6uLqqqqVm2rvr4+SqXSoe/0O6gtj29fli1bdtDR1UKhEEOGDGn3NsrlcqsC/u2P5WB/H21d/ljQu3fv6Nq1axSLxdi2bVusX7/+iI1+33zzzXH22WcfkW3DsWzYsGERYQQQOtTOnTtj27ZtLbebmpqiUtn/LIvPfvaz8Z73vOeg661UKvHlL385fvOb33TIfnakQqGw38d47bXXRqdOnWL79u1tXm9dXV1MmzYtFi9efMDlBg0aFP/wD/8Q9fX1B/xZ70ttbW2USqWYOnXqQZe9/PLL44wzzoiGhoaIiLj77rtj/vz5+11+3Lhxcc4550RERL9+/eKOO+6Ihx56aL/LH+jneDi0dnvV1dUxbty4+NRVn4pBQwdFpbYS5WI5ako18Xr96zH34bkxZ86c2Lhx4zuw10BHEYDQgRobG6OxsTG6d+8ePXv2bBkJ/H3Ws2fP2LZtW+zcuXOv+0qlUkyfPj1eeOGFNq2zuro6vvWtb7V6+fr6+virv/qraGpqatN2Ro0aFVdffXWrl589e3YsXrw4qqqqolwux9ChQ/e77DPPPBMLFy6M+vr6+Mu//MsDrrdYLEbv3r1j3bp1B1yurq4u6urqIiJi3rx5e4y+9ezZMz74wQ/GypUr4ze/+U3s2LHjgOs64YQTYvPmzdHc3LzfZXr16hXXXnttDD9/eDxU/1DMem5WVBd2vWw0l5uj9/G94wNXfiAuvezSuOF/3xDPPPPMAbcJHD0EIBwGTU1Ne4wEHsiKFSvizTffPOAy5XL5oMscyCmnnBJdunRp1bLr1q2LN954o9XrLhQKUSgU9nt/qVQ6YGTsS6VSafOhxebm5jZvp63Ll8vl+NjHPrbHSOCB7B75a81jKRaLB7x/8uTJMWHChNiwYUOUy+V47LHH9rh/8ODBMW3atKivr4+mpqb48pe/HMuXL9/v+g70dxax60SLr37tq7Ft0La4acFNMXHEJ+LKkX8SfY/vG4VCIXaUdsRTqxfEj1+9P/p3PTm++o2vxlemfSWef/75gz7W1qipqWlz0AOtJwChA711DmBjY+NB5wBWKpWYMWNGqw7ttnf+WN++fePGG2+M1atXH3TZ2traaGxsjC984QvRs2fPGD9+fGzZsiXmzp3brm3va/0HG5k6VAebE9jaOX9vt3z58mhsbIyIXSOBBzqcu9u1114bERG//e1v2xybb9WvX7+48sor45vf/GaMHj06zj777Kiqqor+/ftHTU1NS7A3NDTELbfcEh/+8Idj0qRJ8bWvfa1d2ysUCjF58uSoDKvEQy8/FF8/9xvRv0v/PZbpVNUp+nU5Of5s9J/Fz5c/HD9a/aP4m6/8TUz6b5MO6c1KxK65hsOGDYuFCxe2a/oAcHCtCsDp37+13RsYdOqpccklF7f7++FY0tY5gBG7wu7kk0/e5wjda6+9Ftu2bYtTTz011q9f364X1urq6li/fn1MmzbtoPE1bNiw+PznPx8jR46MyZMnR6lUiuOPP77DAvCP//iP44EHHjis88Xq6upa5gS+feStU6dOUS6XD3pIdl/uu+++iIg488wzW0Y1jzvuuH0e+t5t9/b/4z/+o83be6t+/frFxo0bo6qqKq666qqYO3duTJ8+Perq6mLnzp1RXV0dL774YixevDg+85nPxD333BMTJkxo9/aGDx8eF338ovi7p/8u/uI91+wVfxER9Zvr45q5fxHnD/zD+MKYL8T/mv8/Y8vALfFHf/RHMWvWrHZvu3fv3jFixIhYunSp+IPDqFUBOGDQsBg8ZP9zXd5q/drX97g9//F5ApA02jsH8MILL4zTTz99r6/PmDEjFi1aFJMnT4677747nn322Y7e5b306dMnpk6dGv/5n/8Zr732Wnzuc5/rsHWfddZZUVdXF9/5zndi69atHbbet9vfnMBRo0bFZz7zmQ7bzoQJE+KXv/zlYZ/ruXvOYW1tbWzbti3Gjh0bDz74YNx8883R3Nwc/fr1iylTpkTnzp1bgvRgh5QP5Nxzz42nG56OESeMjHf1etc+l/npqz+JUrkUF9VdFJ2rO8dlwy6PexbfE5+44BNx9913t2uk98QTT4yRI0fG0qVLY+3ate3ef+DgWn0IuLZYE3sMZPzuRiUihg87ueVyDf379opTTz01yuVylEqlmP/4vA7eZTj6tWUOYETEbbfdts+vd+3aNT72sY/F0KFD46KLLoqqqqpYuHDhYb30xo4dO+KGG26IFStWxPDhwzt03YVCId73vvfFunXrYubMmYd1jte+5gQeymHYAQMG7DUC269fv7juuuvihhtuOOAh9n79+sW2bdtiy5Ytbd5u//79Y9KkSbFmzZro3LlznHjiiTFz5sz48Y9/HBG7fqYDBgyIwYMHx44dO6KhoSE2b94cPXv2jIkTJ8a9997b5n8vZ7znjPjl2l/GxXX7fvP+SsMr8dNlP43zB54fZ/Y9c9f39Dkj7nj+9ug3ql9069atzQHYu3fvGD58eCxZskT8wTug1QH433/4SBSrKxFVpSjWlKJQXf7dr+b4fp8roqamJsrlclQqlXhw/ssxf/Fr8dkP7/udI/y+6tGjR/Ts2bNlvtjB5gDutvuacW+9VtyAAQNi2rRpsXXr1pbDf9OmTYtHHnkkbr311sN2yZDNmze3jGgd7ASP9rr00ktj586dcccdd7yjlz45FBMnTowXX3wxInZF2e5r/J122mkxZcqU+Pa3vx1vvvnmHtf/69y5c0REfPKTn4znn3++XYfS+/TpE8OGDYtvfvObLSeB/OIXv4hisRjlcjkuuOCCmDp1atx5552xefPmmDJlSpx00knx4IMPxmWXXdZy6LotevfpHatXr44+nftERMTKrStje3NjDO4xJIqFYsxZNid2lHbEJUMuiWJh10hjp+pOUalUonRcKWpra9u0vW7dusXpp58eixcvFn+0W2ufq46255xCoRALFiyIMWPG7PP+p556KsaOHdvh+93qAOzapRjVtYUoVEUUqgtRqC5HsboUUbXrBePkk09uOXNv4WtvRKdeEevXr+/QnYWj3c6dO/c4tNmaOYAREZdcckkMGzYspk+fHkuWLIlCoRCf/vSn44033ojvfOc78alPfSrmzp0bjzzySFx33XXx8ssvxy9+8YvD+VA6TF1dXZRKpaivr2/5WrFYjMsvvzzWrl0bP/nJT6JSqURdXV106tQpInbNW9z956NFoVCIYrEYq1atinPOOSfGjRvXct+4cePimmuuiX/6p3+KcePGxXvf+96W+zZv3hzFYvGQLojdo0ePGDJkSDQ0NMSWLVviIx/5SIwaNSp+9atfxeTJk+Nf/uVf4v77748xY8bE9u3bY9OmTXHeeee1e8SzXCpHTVVNlH/3b/eZtU/HzQtuji+d/aU4rfe74ievPhDjTxkfY04a2/I9lUolKlGJKEebR3YbGxujoaEhevbsGWvXrj3mL5jNkXOw59vD8Yb2UC1YsCDOOfe8mP/E43tF4FNPPRXnnHteLFiwoMO32+oA7NK1GMd1KsbqzZtie9P2qKopRbFmVwSWy+VYsWJFlMvlKJfLUahpjuO67DzqKhsOt/bOAbz11lujUChEqVSKurq6OOmkk2L48OExffr02LZtW/zgBz+IcrkcTU1N8eijj8b48eNj1apVsXTp0g5/sezVq1dMmDCh5RDjoVixYkV85CMfiebm5pgxY8Ye99XU1MSkSbvOGJ03b15cfPHFMXLkyJb7S6XSURcC/fv3j8ceeyyeffbZWLZsWfzBH/xBy33vf//7Y+PGjfHDH/4w7r333paRwHK53DIS2B4vv/xy3HTTTXHZZZfF3XffHRdeeGEsXrw43vve98bUqVNj1qxZcf/990fErkvBrFmzJiqVSpxyyinxpS99qV0/w9W/XR0j+4+M+s3LYlD3QTF+4Pvj31/89/jXF/41zup7VjSXm+NDp34oCvH/X0w37tgYtdW1UdxebPPJSs3NzfHCCy/E6NGjY+TIkbF48eJDOlwPx5IxY8bE/Cce3ysCd8ffvsKwI7Q6ADfv3BZb3twaxZpSVB1XjqrfjQBWVe39n7RYVYrqTtuP2EcEwZHW1jmA/fv3jy5dusTKlSvjoosuine/+93Rp0+f+OQnPxkNDQ0tn4ZxySWXxBlnnBG9e/eOKVOmxC233BJLly7t0H0vFApx1llnxYgRI+KJJ544pDdy3/3udw94f+fOnePqq6+OhoaGmD59eru383a1tbUxcuTIvSJi8ODB7R4B2D3yt/tkndmzZ+9xf6FQiMsvvzy2b98ed911V5x11ll7jQS2x/bt22Pp0qUtn1rSrVu3uOCCC+Lv//7vY9CgQfHrX/86CoVCnHLKKXHppZfGmjVrora2NjZv3hxLlixp1zZ//vOfxye+9Im456V74rwB50e347rFladdGTctuCnmLJsT408ZH2f3G7fH9/yfFXNjVO9R8ezTz7brBJ+mpqZ4/vnnY/To0TF8+PBYvHjxUfcGAA6Xt0dgRBzW+ItoQwC+Wd4WxdrmXeFXVY6q6lJUVZeiWF2KSqUS/fv3b3nH/srW1dGp03bv4EinvXMAd58FfNttt8WMGTOiR48eceONN8Z9990XS5YsicGDB8eKFSvitttui8997nOxYMGCuP3221v9AllbWxtDhw496MT8gQMHxoYNG+Ib3/hGTJw4MSZPnhwvv/xyqx9/W7z++uvRs2fPOOGEE+Laa6+Nv/3bv23X9fnebvcJaPv7hI/2nrH7ox/9aI/5dOVyeY8RwEqlElVVVTFx4sRYt25d3HPPPXHvvffusXx7bdq0KY477rjYtGlTrF69Oj74wQ/GiSeeGI8++miMHj06TjvttPjoRz8a3bt3jyeeeCI6d+7crhNOdnvyySfj6s1XR1VVVcxePDuuGHlFXDBwfPzf138da99cExfWXdQy9y8iYummpfHAqw/EF9/zxfjn6f/c7u2+dSRw1KhR8dJLL4lA0nhrBEbEYY2/iDYEYHVtKSrV5aiq2hV9xapSVFeXo1jV3HLod/evMQNGRt/Xjo/ice2/DAEci9o7B/DtZwFv2LAh5s6dG1OmTIktW7bEFVdcEffdd1+MGTMmzj333Pjrv/7rVr/BampqilWrVrX6I8/mz58f27dvjzvvvDMeeeSRA17nrr0ee+yx+O53vxvHH398DBo0KEaMGBFjx46N1atXt1xsub2WL1/eruv8Hczu57d9efXVV+P73/9+DBw4MIYMGRLnnXderFq1qsM+FWP16tXR3NwcZ555Zvzbv/1bfOhDH4qHH344xo4dG7169YolS5bE7bffHpdddlk89NBDcdVVV8Xjjz/e7u01NDTEzBkzY8r/mBI3Pn1jdK3pGhcPvji+fu7X91iuUqnEq5tfjVueuSX+5F1/Ei88+kI8+eSTh/RYm5qaYtGiRTFo0KBDWg+H5lg9oYLWa3UAdupciKYoRaG6Oap/F4FVVbsOAe9+YiyVSi1PkP369fPOjXQ68rOA/+u//iu6desW119/fXTt2jUGDhwYW7dujX/8x3+MRYsWtXo969ati69//evtekJfuXJlm/f7YJYuXRozZ86MrVu3xtatW2Pt2rXx5JNPRqFQOCZfTDZu3Bjf+973YtGiRfHcc89FxK7r9nXkZPOtW7fGV77ylZg0aVKcfvrp8corr8Rdd90Vd955ZxSLxSiVSvHud787Jk2aFNdcc03Mnz8/7rrrrkPa5sMPPxx9+/aNaZOnxe2Lbo95Kx+N8wacFyNPGBXFQiG2NG2NR197JBZvXByXj7g84uWIm266qUOe95uammLp0qXH5L+H3xd+9u+8t875iziKDgFXitujqqpp12Hf4u7Dv81RVdx1CHjlypUth4D79Omz63IAApCk2jIH8NRTT93nJx4sX748br311njggQfi+uuvj5/97Gcxf/78dn2KxuH8v7h9e+unezQ2Nsbs2bNjzZo1e913KC84nTp1ipEjR7b5cdbV1R1SqJVKpZg1a9ZeQd6en/fB/r0sWrQovvjFL0b37t2jurq6ZRu733Q/99xz8fGPfzwaGxtbdRLGjh07DnhYulKpxJ133hkbNmyIP/30n8aWE7bEr377q3jit0/EjtKO6N25d5w74NyYcOqEeGD2AzFr1qwO/Zg/AUIm+zrhY18nhnSkVgVgISKK1c0RVc1RXVOKYrE5ilW7RgCLVeVobm6OHTt2tATg7guwCkCyaescwPr6+vjABz4Q48eP3+PrlUolZs6cGYsWLYpVq1bFokWLYsWKFYf1I9Taqy1nfN57773x9NNPd+j2K5VKNDU1xZ//+Z+36/sPZZR23rx5HXKYt1wut/rEif2dTFKpVFo+E7g1Wru9n/70pzFv3rw4//zzY8yYMfG+Ie+LTp07xbq16+KZ2c/Et3/27ZYzj4G229/Zvvs7O7ijtCoAKxFx44WTY8Mb66NcqbRc72/371U1tdGnZ68olytRLpeiqVSKUjmiVDn6rrcDh1Nb5wD+4Ac/aNV6W7vc0e5Q54fty/Lly2Pq1Kkdvt7WWLhw4RHZ7jtt69atMWfOnJgzZ86R3hU4oKPxOn8HM3bs2P1eCHp3BB6xC0Ff/KE/jKampujZfe8Pqz+Yz1/XcZ8jCkejLl26RPfu3VtuNzU17XE7Iva6DbRfTU3Nkd4FjkLH6ij0wfZ7zJgxh+WxtSoAa2pq/IeDfejRo0dcccUVR3o3IJ2+ffse6V2AY1qrTwIB9jZixIgYMWLEkd4NAGgTF+oDAEhGAAIAJCMAAQCSEYAAAMkIQACAZAQgAEAyAhAAIIlXXnklIgQgAEA6AhAAIBkBCACQjAAEAEhGAAIAJCMAAQCSEYAAAMkIQACAZAQgAEAyAhAAIBkBCACQjAAEAEhGAAIAJCMAAQCSEYAAAMkIQACAZAQgAEAyAhAAIBkBCACQjAAEAEhGAAIAJCMAAQCSEYAAAMkIQACAZAQgAEAyAhAAIBkBCACQjAAEAEhGAAIAJCMAAQCSEYAAAMkIQACAZAQgAEAyAhAAIBkBCACQjAAEAEhGAAIAJCMAAQCSEYAAAMkIQACAZAQgAEAyAhAAIBkBCACQjAAEAEhGAAIAJCMAAQCSEYAAAMkIQACAZAQgAEAyAhAAIBkBCACQjAAEAEhGAAIAJCMAAQCSEYAAAMkIQACAZAQgAEAyAhAAIBkBCACQjAAEAEhGAAIAJCMAAQCSEYAAAMkIQACAZAQgAEAyAhAAIBkBCACQjAAEAEhGAAIAJCMAAQCSEYAAAMkIQACAZAQgAEAyAhAAIBkBCACQjAAEAEhGAAIAJCMAAQCSEYAAAMkIQACAZAQgAEAyAhAAIBkBCACQjAAEAEhGAAIAJCMAAQCSEYAAAMkIQACAZAQgAEAyAhAAIBkBCACQjAAEAEhGAAIAJCMAAQCSEYAAAMkIQACAZAQgAEAyAhAAIBkBCACQjAAEAEhGAAIAJCMAAQCSEYAAAMkIQACAZAQgAEAyAhAAIBkBCACQjAAEAEhGAAIAJCMAAQCSEYAAAMkIQACAZAQgAEAyAhAAIBkBCACQjAAEAEhGAAIAJCMAAQCSEYAAAMkIQACAZAQgAEAyAhAAIBkBCACQjAAEAEhGAAIAJCMAAQCSEYAAAMkIQACAZAQgAEAyAhAAIBkBCACQjAAEAEhGAAIAJCMAAQCSEYAAAMkIQACAZAQgAEAyAhAAIBkBCACQjAAEAEhGAAIAJCMAAQCSEYAAAMkIQACAZAQgAEAyAhAAIBkBCACQjAAEAEhGAAIAJCMAAQCSEYAAAMkIQACAZAQgAEAyAhAAIBkBCACQjAAEAEhGAAIAJCMAAQCSEYAAAMkIQACAZAQgAEAyAhAAIBkBCACQjAAEAEhGAAIAJCMAAQCSEYAAAMkIQACAZAQgAEAyAhAAIBkBCACQjAAEAEhGAAIAJCMAAQCSEYAAAMkIQACAZAQgAEAyAhAAIBkBCACQjAAEAEhGAAIAJCMAAQCSEYAAAMkIQACAZAQgAEAyAhAAIBkBCACQjAAEAEhGAAIAJCMAAQCSEYAAAMkIQACAZAQgAEAyAhAAIBkBCACQjAAEAEhGAAIAJCMAAQCSEYAAAMkIQACAZAQgAEAyAhAAIBkBCACQjAAEAEhGAAIAJCMAAQCSEYAAAMkIQACAZAQgAEAyAhAAIBkBCACQjAAEAEhGAAIAJCMAAQCSEYAAAMkIQACAZAQgAEAyAhAAIBkBCACQjAAEAEhGAAIAJCMAAQCSEYAAAMkIQACAZAQgAEAyAhAAIBkBCACQjAAEAEhGAAIAJCMAAQCSEYAAAMkIQACAZAQgAEAyAhAAIBkBCACQjAAEAEhGAAIAJCMAAQCSEYAAAMkIQACAZAQgAEAyAhAAIBkBCACQjAAEAEhGAAIAJCMAAQCSEYAAAMkIQACAZAQgAEAyAhAAIBkBCACQjAAEAEhGAAIAJCMAAQCSEYAAAMkIQACAZAQgAEAyAhAAIBkBCACQjAAEAEhGAAIAJCMAAQCSEYAAAMkIQACAZAQgAEAyAhAAIBkBCACQjAAEAEhGAAIAJCMAAQCSEYAAAMkIQACAZAQgAEAyAhAAIBkBCACQjAAEAEhGAAIAJCMAAQCSEYAAAMkIQACAZAQgAEAyAhAAIBkBCACQjAAEAEhGAAIAJCMAAQCSEYAAAMkIQACAZAQgAEAyAhAAIBkBCACQjAAEAEhGAAIAJCMAAQCSEYAAAMkIQACAZAQgAEAyAhAAIBkBCACQjAAEAEhGAAIAJCMAAQCSEYAAAMkIQACAZAQgAEAyAhAAIBkBCACQjAAEAEhGAAIAJCMAAQCSEYAAAMkIQACAZAQgAEAyAhAAIBkBCACQjAAEAEhGAAIAJCMAAQCSEYAAAMkIQACAZAQgAEAyAhAAIBkBCACQjAAEAEhGAAIAJCMAAQCSEYAAAMkIQACAZAQgAEAyAhAAIBkBCACQjAAEAEhGAAIAJCMAAQCSEYAAAMkIQACAZAQgAEAyAhAAIBkBCACQjAAEAEhGAAIAJCMAAQCSEYAAAMkIQACAZAQgAEAyAhAAIBkBCACQjAAEAEhGAAIAJCMAAQCSEYAAAMkIQACAZAQgAEAyAhAAIBkBCACQjAAEAEhGAAIAJCMAAQCSEYAAAMkIQACAZAQgAEAyAhAAIBkBCACQjAAEAEhGAAIAJCMAAQCSEYAAAMkIQACAZAQgAEAyAhAAIBkBCACQjAAEAEhGAAIAJCMAAQCSEYAAAMkIQACAZAQgAEAyAhAAIBkBCACQjAAEAEhGAAIAJCMAAQCSEYAAAMkIQACAZAQgAEAyAhAAIBkBCACQjAAEAEhGAAIAJCMAAQCSEYAAAMkIQACAZAQgAEAyAhAAIBkBCACQjAAEAEhGAAIAJCMAAQCSEYAAAMkIQACAZAQgAEAyAhAAIBkBCACQjAAEAEhGAAIAJCMAAQCSEYAAAMkIQACAZAQgAEAyAhAAIBkBCACQjAAEAEhGAAIAJCMAAQCSEYAAAMkIQACAZAQgAEAyAhAAIBkBCACQjAAEAEhGAAIAJCMAAQCSEYAAAMkIQACAZAQgAEAyAhAAIBkBCACQjAAEAEhGAAIAJCMAAQCSEYAAAMkIQACAZAQgAEAyAhAAIBkBCACQjAAEAEhGAAIAJCMAAQCSEYAAAMkIQACAZAQgAEAyAhAAIBkBCACQjAAEAEhGAAIAJCMAAQCSEYAAAMkIQACAZAQgAEAyAhAAIBkBCACQjAAEAEhGAAIAJCMAAQCSEYAAAMkIQACAZAQgAEAyAhAAIBkBCACQjAAEAEhGAAIAJCMAAQCSEYAAAMkIQACAZAQgAEAyAhAAIBkBCACQjAAEAEhGAAIAJCMAAQCSEYAAAMkIQACAZAQgAEAyAhAAIBkBCACQjAAEAEhGAAIAJCMAAQCSEYAAAMkIQACAZAQgAEAyAhAAIBkBCACQTPXuP1QqlSO5HwAAvENaAnDrpk0RIhAA4PdXoRARbwnAqFSMAgIA/B4r/O53cwABAJIRgAAAyQhAAIBkBCAAQDICEAAgGQEIAJCMAAQASEYAAgAkIwABAJIRgAAAyQhAAIBkBCAAQDICEAAgGQEIAJCMAAQASEYAAgAkIwABAJIRgAAAyQhAAIBkBCAAQDICEAAgGQEIAJCMAAQASEYAAgAkIwABAJIRgAAAyQhAAIBkqlv+VChE4QjuCAAAh1lhV+0Vhg4dWjnCuwIAwDuourGxMSIiKpXKHr+/3f6+DgDA0alQKOzzdnWhUIhKpbLXArvtDr/93Q8AwNHtrR1XKBTi/wF6D/a4dXOUngAAAABJRU5ErkJggg==;" parent="NUu4eacmFacFfqtwliKr-36" vertex="1">
          <mxGeometry width="514.81" height="440" as="geometry" />
        </mxCell>
        <mxCell id="NUu4eacmFacFfqtwliKr-38" value="Validation Box" style="rounded=0;whiteSpace=wrap;html=1;strokeColor=none;fontSize=25;" parent="NUu4eacmFacFfqtwliKr-36" vertex="1">
          <mxGeometry x="102.4" y="20" width="310" height="60" as="geometry" />
        </mxCell>
        <mxCell id="NUu4eacmFacFfqtwliKr-39" value="Connect PLC" style="rounded=1;whiteSpace=wrap;html=1;fillColor=#d5e8d4;strokeColor=#82b366;" parent="NUu4eacmFacFfqtwliKr-36" vertex="1">
          <mxGeometry x="110" y="90" width="129" height="50" as="geometry" />
        </mxCell>
        <mxCell id="NUu4eacmFacFfqtwliKr-40" value="Activate TwinCAT" style="rounded=1;whiteSpace=wrap;html=1;" parent="NUu4eacmFacFfqtwliKr-36" vertex="1">
          <mxGeometry x="270" y="90" width="129" height="50" as="geometry" />
        </mxCell>
        <mxCell id="NUu4eacmFacFfqtwliKr-41" value="Enable PG" style="rounded=1;whiteSpace=wrap;html=1;" parent="NUu4eacmFacFfqtwliKr-36" vertex="1">
          <mxGeometry x="110" y="150" width="129" height="50" as="geometry" />
        </mxCell>
        <mxCell id="NUu4eacmFacFfqtwliKr-42" value="Disable PG" style="rounded=1;whiteSpace=wrap;html=1;" parent="NUu4eacmFacFfqtwliKr-36" vertex="1">
          <mxGeometry x="270" y="150" width="129" height="50" as="geometry" />
        </mxCell>
        <mxCell id="NUu4eacmFacFfqtwliKr-43" value="Enable MPC" style="rounded=1;whiteSpace=wrap;html=1;" parent="NUu4eacmFacFfqtwliKr-36" vertex="1">
          <mxGeometry x="110" y="210" width="129" height="50" as="geometry" />
        </mxCell>
        <mxCell id="NUu4eacmFacFfqtwliKr-44" value="Disable MPC" style="rounded=1;whiteSpace=wrap;html=1;" parent="NUu4eacmFacFfqtwliKr-36" vertex="1">
          <mxGeometry x="270" y="210" width="129" height="50" as="geometry" />
        </mxCell>
        <mxCell id="NUu4eacmFacFfqtwliKr-45" value="Foreline Pressure Module" style="rounded=1;whiteSpace=wrap;html=1;fillColor=#647687;fontColor=#ffffff;strokeColor=#314354;" parent="NUu4eacmFacFfqtwliKr-36" vertex="1">
          <mxGeometry x="110" y="270" width="290" height="60" as="geometry" />
        </mxCell>
        <mxCell id="NUu4eacmFacFfqtwliKr-46" value="Manifold Pressure Controller" style="rounded=1;whiteSpace=wrap;html=1;fillColor=#647687;fontColor=#ffffff;strokeColor=#314354;" parent="NUu4eacmFacFfqtwliKr-36" vertex="1">
          <mxGeometry x="110" y="340" width="290" height="60" as="geometry" />
        </mxCell>
        <mxCell id="NUu4eacmFacFfqtwliKr-47" value="NetID : 5.108.227.236.1.1" style="text;strokeColor=none;align=center;fillColor=none;html=1;verticalAlign=middle;whiteSpace=wrap;rounded=0;" parent="NUu4eacmFacFfqtwliKr-36" vertex="1">
          <mxGeometry x="170" y="415" width="140" height="20" as="geometry" />
        </mxCell>
        <mxCell id="NUu4eacmFacFfqtwliKr-48" value="Communication Status :&amp;nbsp;" style="text;html=1;align=center;verticalAlign=middle;resizable=0;points=[];autosize=1;strokeColor=none;fillColor=none;" parent="NUu4eacmFacFfqtwliKr-36" vertex="1">
          <mxGeometry x="349" y="410" width="150" height="30" as="geometry" />
        </mxCell>
        <mxCell id="NUu4eacmFacFfqtwliKr-49" value="" style="ellipse;whiteSpace=wrap;html=1;fillColor=#d5e8d4;strokeColor=#82b366;" parent="NUu4eacmFacFfqtwliKr-36" vertex="1">
          <mxGeometry x="489" y="420" width="10" height="10" as="geometry" />
        </mxCell>
        <mxCell id="NUu4eacmFacFfqtwliKr-51" value="Main Window" style="text;html=1;align=center;verticalAlign=middle;resizable=0;points=[];autosize=1;strokeColor=none;fillColor=none;" parent="NUu4eacmFacFfqtwliKr-53" vertex="1">
          <mxGeometry x="15.409999999999968" y="36" width="100" height="30" as="geometry" />
        </mxCell>
        <mxCell id="NUu4eacmFacFfqtwliKr-54" value="" style="endArrow=classic;html=1;rounded=0;exitX=0.991;exitY=0.477;exitDx=0;exitDy=0;exitPerimeter=0;entryX=0.008;entryY=0.477;entryDx=0;entryDy=0;entryPerimeter=0;" parent="NUu4eacmFacFfqtwliKr-120" source="NUu4eacmFacFfqtwliKr-1" target="NUu4eacmFacFfqtwliKr-37" edge="1">
          <mxGeometry width="50" height="50" relative="1" as="geometry">
            <mxPoint x="731.59" y="320" as="sourcePoint" />
            <mxPoint x="781.59" y="270" as="targetPoint" />
            <Array as="points" />
          </mxGeometry>
        </mxCell>
        <mxCell id="NUu4eacmFacFfqtwliKr-55" value="&lt;font style=&quot;font-size: 20px;&quot;&gt;1st.&lt;br&gt;Connect&lt;br&gt;PLC&lt;/font&gt;" style="text;strokeColor=none;align=center;fillColor=none;html=1;verticalAlign=middle;whiteSpace=wrap;rounded=0;" parent="NUu4eacmFacFfqtwliKr-120" vertex="1">
          <mxGeometry x="741.59" y="230" width="70" height="30" as="geometry" />
        </mxCell>
        <mxCell id="NUu4eacmFacFfqtwliKr-56" value="" style="group" parent="NUu4eacmFacFfqtwliKr-120" vertex="1" connectable="0">
          <mxGeometry x="1581.5900000000001" y="30" width="514.81" height="480" as="geometry" />
        </mxCell>
        <mxCell id="NUu4eacmFacFfqtwliKr-57" value="t" style="group" parent="NUu4eacmFacFfqtwliKr-56" vertex="1" connectable="0">
          <mxGeometry y="40" width="514.81" height="440" as="geometry" />
        </mxCell>
        <mxCell id="NUu4eacmFacFfqtwliKr-58" value="" style="shape=image;verticalLabelPosition=bottom;labelBackgroundColor=default;verticalAlign=top;aspect=fixed;imageAspect=0;image=data:image/png,iVBORw0KGgoAAAANSUhEUgAAAoAAAAIjCAYAAACTRapjAAAfFUlEQVR4nO3de5SV9Xno8WfvmXFAroIgAspwx2CWUZDGqJVcvSQuDSWNNq6mhxqyqCWay5HTtEl6TpLmRFtjUxtiEG2KdrVitI0mGA0nihpyImpQ8QIiA0LkJgw3B5jZe58/CHNEbjPDIJDn81mLBXv2O+/77gH2/u7f+3vfXRg6dGglgHY56aSTYvDgwVEul4/0rkAanTt3jpdeeinWrFlzpHcFjlnVR3oH4Fi3atWqWLZs2ZHeDUhj8ODBR3oX4JjXEoCvvPLKkdwPOCY9+eSTcf3117fc7tGjR/To0SNWrFjRcruqqio2bNiwz++vq6uLqqqqVm2rvr4+SqXSoe/0O6gtj29fli1bdtDR1UKhEEOGDGn3NsrlcqsC/u2P5WB/H21d/ljQu3fv6Nq1axSLxdi2bVusX7/+iI1+33zzzXH22WcfkW3DsWzYsGERYQQQOtTOnTtj27ZtLbebmpqiUtn/LIvPfvaz8Z73vOeg661UKvHlL385fvOb33TIfnakQqGw38d47bXXRqdOnWL79u1tXm9dXV1MmzYtFi9efMDlBg0aFP/wD/8Q9fX1B/xZ70ttbW2USqWYOnXqQZe9/PLL44wzzoiGhoaIiLj77rtj/vz5+11+3Lhxcc4550RERL9+/eKOO+6Ihx56aL/LH+jneDi0dnvV1dUxbty4+NRVn4pBQwdFpbYS5WI5ako18Xr96zH34bkxZ86c2Lhx4zuw10BHEYDQgRobG6OxsTG6d+8ePXv2bBkJ/H3Ws2fP2LZtW+zcuXOv+0qlUkyfPj1eeOGFNq2zuro6vvWtb7V6+fr6+virv/qraGpqatN2Ro0aFVdffXWrl589e3YsXrw4qqqqolwux9ChQ/e77DPPPBMLFy6M+vr6+Mu//MsDrrdYLEbv3r1j3bp1B1yurq4u6urqIiJi3rx5e4y+9ezZMz74wQ/GypUr4ze/+U3s2LHjgOs64YQTYvPmzdHc3LzfZXr16hXXXnttDD9/eDxU/1DMem5WVBd2vWw0l5uj9/G94wNXfiAuvezSuOF/3xDPPPPMAbcJHD0EIBwGTU1Ne4wEHsiKFSvizTffPOAy5XL5oMscyCmnnBJdunRp1bLr1q2LN954o9XrLhQKUSgU9nt/qVQ6YGTsS6VSafOhxebm5jZvp63Ll8vl+NjHPrbHSOCB7B75a81jKRaLB7x/8uTJMWHChNiwYUOUy+V47LHH9rh/8ODBMW3atKivr4+mpqb48pe/HMuXL9/v+g70dxax60SLr37tq7Ft0La4acFNMXHEJ+LKkX8SfY/vG4VCIXaUdsRTqxfEj1+9P/p3PTm++o2vxlemfSWef/75gz7W1qipqWlz0AOtJwChA711DmBjY+NB5wBWKpWYMWNGqw7ttnf+WN++fePGG2+M1atXH3TZ2traaGxsjC984QvRs2fPGD9+fGzZsiXmzp3brm3va/0HG5k6VAebE9jaOX9vt3z58mhsbIyIXSOBBzqcu9u1114bERG//e1v2xybb9WvX7+48sor45vf/GaMHj06zj777Kiqqor+/ftHTU1NS7A3NDTELbfcEh/+8Idj0qRJ8bWvfa1d2ysUCjF58uSoDKvEQy8/FF8/9xvRv0v/PZbpVNUp+nU5Of5s9J/Fz5c/HD9a/aP4m6/8TUz6b5MO6c1KxK65hsOGDYuFCxe2a/oAcHCtCsDp37+13RsYdOqpccklF7f7++FY0tY5gBG7wu7kk0/e5wjda6+9Ftu2bYtTTz011q9f364X1urq6li/fn1MmzbtoPE1bNiw+PznPx8jR46MyZMnR6lUiuOPP77DAvCP//iP44EHHjis88Xq6upa5gS+feStU6dOUS6XD3pIdl/uu+++iIg488wzW0Y1jzvuuH0e+t5t9/b/4z/+o83be6t+/frFxo0bo6qqKq666qqYO3duTJ8+Perq6mLnzp1RXV0dL774YixevDg+85nPxD333BMTJkxo9/aGDx8eF338ovi7p/8u/uI91+wVfxER9Zvr45q5fxHnD/zD+MKYL8T/mv8/Y8vALfFHf/RHMWvWrHZvu3fv3jFixIhYunSp+IPDqFUBOGDQsBg8ZP9zXd5q/drX97g9//F5ApA02jsH8MILL4zTTz99r6/PmDEjFi1aFJMnT4677747nn322Y7e5b306dMnpk6dGv/5n/8Zr732Wnzuc5/rsHWfddZZUVdXF9/5zndi69atHbbet9vfnMBRo0bFZz7zmQ7bzoQJE+KXv/zlYZ/ruXvOYW1tbWzbti3Gjh0bDz74YNx8883R3Nwc/fr1iylTpkTnzp1bgvRgh5QP5Nxzz42nG56OESeMjHf1etc+l/npqz+JUrkUF9VdFJ2rO8dlwy6PexbfE5+44BNx9913t2uk98QTT4yRI0fG0qVLY+3ate3ef+DgWn0IuLZYE3sMZPzuRiUihg87ueVyDf379opTTz01yuVylEqlmP/4vA7eZTj6tWUOYETEbbfdts+vd+3aNT72sY/F0KFD46KLLoqqqqpYuHDhYb30xo4dO+KGG26IFStWxPDhwzt03YVCId73vvfFunXrYubMmYd1jte+5gQeymHYAQMG7DUC269fv7juuuvihhtuOOAh9n79+sW2bdtiy5Ytbd5u//79Y9KkSbFmzZro3LlznHjiiTFz5sz48Y9/HBG7fqYDBgyIwYMHx44dO6KhoSE2b94cPXv2jIkTJ8a9997b5n8vZ7znjPjl2l/GxXX7fvP+SsMr8dNlP43zB54fZ/Y9c9f39Dkj7nj+9ug3ql9069atzQHYu3fvGD58eCxZskT8wTug1QH433/4SBSrKxFVpSjWlKJQXf7dr+b4fp8roqamJsrlclQqlXhw/ssxf/Fr8dkP7/udI/y+6tGjR/Ts2bNlvtjB5gDutvuacW+9VtyAAQNi2rRpsXXr1pbDf9OmTYtHHnkkbr311sN2yZDNmze3jGgd7ASP9rr00ktj586dcccdd7yjlz45FBMnTowXX3wxInZF2e5r/J122mkxZcqU+Pa3vx1vvvnmHtf/69y5c0REfPKTn4znn3++XYfS+/TpE8OGDYtvfvObLSeB/OIXv4hisRjlcjkuuOCCmDp1atx5552xefPmmDJlSpx00knx4IMPxmWXXdZy6LotevfpHatXr44+nftERMTKrStje3NjDO4xJIqFYsxZNid2lHbEJUMuiWJh10hjp+pOUalUonRcKWpra9u0vW7dusXpp58eixcvFn+0W2ufq46255xCoRALFiyIMWPG7PP+p556KsaOHdvh+93qAOzapRjVtYUoVEUUqgtRqC5HsboUUbXrBePkk09uOXNv4WtvRKdeEevXr+/QnYWj3c6dO/c4tNmaOYAREZdcckkMGzYspk+fHkuWLIlCoRCf/vSn44033ojvfOc78alPfSrmzp0bjzzySFx33XXx8ssvxy9+8YvD+VA6TF1dXZRKpaivr2/5WrFYjMsvvzzWrl0bP/nJT6JSqURdXV106tQpInbNW9z956NFoVCIYrEYq1atinPOOSfGjRvXct+4cePimmuuiX/6p3+KcePGxXvf+96W+zZv3hzFYvGQLojdo0ePGDJkSDQ0NMSWLVviIx/5SIwaNSp+9atfxeTJk+Nf/uVf4v77748xY8bE9u3bY9OmTXHeeee1e8SzXCpHTVVNlH/3b/eZtU/HzQtuji+d/aU4rfe74ievPhDjTxkfY04a2/I9lUolKlGJKEebR3YbGxujoaEhevbsGWvXrj3mL5jNkXOw59vD8Yb2UC1YsCDOOfe8mP/E43tF4FNPPRXnnHteLFiwoMO32+oA7NK1GMd1KsbqzZtie9P2qKopRbFmVwSWy+VYsWJFlMvlKJfLUahpjuO67DzqKhsOt/bOAbz11lujUChEqVSKurq6OOmkk2L48OExffr02LZtW/zgBz+IcrkcTU1N8eijj8b48eNj1apVsXTp0g5/sezVq1dMmDCh5RDjoVixYkV85CMfiebm5pgxY8Ye99XU1MSkSbvOGJ03b15cfPHFMXLkyJb7S6XSURcC/fv3j8ceeyyeffbZWLZsWfzBH/xBy33vf//7Y+PGjfHDH/4w7r333paRwHK53DIS2B4vv/xy3HTTTXHZZZfF3XffHRdeeGEsXrw43vve98bUqVNj1qxZcf/990fErkvBrFmzJiqVSpxyyinxpS99qV0/w9W/XR0j+4+M+s3LYlD3QTF+4Pvj31/89/jXF/41zup7VjSXm+NDp34oCvH/X0w37tgYtdW1UdxebPPJSs3NzfHCCy/E6NGjY+TIkbF48eJDOlwPx5IxY8bE/Cce3ysCd8ffvsKwI7Q6ADfv3BZb3twaxZpSVB1XjqrfjQBWVe39n7RYVYrqTtuP2EcEwZHW1jmA/fv3jy5dusTKlSvjoosuine/+93Rp0+f+OQnPxkNDQ0tn4ZxySWXxBlnnBG9e/eOKVOmxC233BJLly7t0H0vFApx1llnxYgRI+KJJ544pDdy3/3udw94f+fOnePqq6+OhoaGmD59eru383a1tbUxcuTIvSJi8ODB7R4B2D3yt/tkndmzZ+9xf6FQiMsvvzy2b98ed911V5x11ll7jQS2x/bt22Pp0qUtn1rSrVu3uOCCC+Lv//7vY9CgQfHrX/86CoVCnHLKKXHppZfGmjVrora2NjZv3hxLlixp1zZ//vOfxye+9Im456V74rwB50e347rFladdGTctuCnmLJsT408ZH2f3G7fH9/yfFXNjVO9R8ezTz7brBJ+mpqZ4/vnnY/To0TF8+PBYvHjxUfcGAA6Xt0dgRBzW+ItoQwC+Wd4WxdrmXeFXVY6q6lJUVZeiWF2KSqUS/fv3b3nH/srW1dGp03bv4EinvXMAd58FfNttt8WMGTOiR48eceONN8Z9990XS5YsicGDB8eKFSvitttui8997nOxYMGCuP3221v9AllbWxtDhw496MT8gQMHxoYNG+Ib3/hGTJw4MSZPnhwvv/xyqx9/W7z++uvRs2fPOOGEE+Laa6+Nv/3bv23X9fnebvcJaPv7hI/2nrH7ox/9aI/5dOVyeY8RwEqlElVVVTFx4sRYt25d3HPPPXHvvffusXx7bdq0KY477rjYtGlTrF69Oj74wQ/GiSeeGI8++miMHj06TjvttPjoRz8a3bt3jyeeeCI6d+7crhNOdnvyySfj6s1XR1VVVcxePDuuGHlFXDBwfPzf138da99cExfWXdQy9y8iYummpfHAqw/EF9/zxfjn6f/c7u2+dSRw1KhR8dJLL4lA0nhrBEbEYY2/iDYEYHVtKSrV5aiq2hV9xapSVFeXo1jV3HLod/evMQNGRt/Xjo/ice2/DAEci9o7B/DtZwFv2LAh5s6dG1OmTIktW7bEFVdcEffdd1+MGTMmzj333Pjrv/7rVr/BampqilWrVrX6I8/mz58f27dvjzvvvDMeeeSRA17nrr0ee+yx+O53vxvHH398DBo0KEaMGBFjx46N1atXt1xsub2WL1/eruv8Hczu57d9efXVV+P73/9+DBw4MIYMGRLnnXderFq1qsM+FWP16tXR3NwcZ555Zvzbv/1bfOhDH4qHH344xo4dG7169YolS5bE7bffHpdddlk89NBDcdVVV8Xjjz/e7u01NDTEzBkzY8r/mBI3Pn1jdK3pGhcPvji+fu7X91iuUqnEq5tfjVueuSX+5F1/Ei88+kI8+eSTh/RYm5qaYtGiRTFo0KBDWg+H5lg9oYLWa3UAdupciKYoRaG6Oap/F4FVVbsOAe9+YiyVSi1PkP369fPOjXQ68rOA/+u//iu6desW119/fXTt2jUGDhwYW7dujX/8x3+MRYsWtXo969ati69//evtekJfuXJlm/f7YJYuXRozZ86MrVu3xtatW2Pt2rXx5JNPRqFQOCZfTDZu3Bjf+973YtGiRfHcc89FxK7r9nXkZPOtW7fGV77ylZg0aVKcfvrp8corr8Rdd90Vd955ZxSLxSiVSvHud787Jk2aFNdcc03Mnz8/7rrrrkPa5sMPPxx9+/aNaZOnxe2Lbo95Kx+N8wacFyNPGBXFQiG2NG2NR197JBZvXByXj7g84uWIm266qUOe95uammLp0qXH5L+H3xd+9u+8t875iziKDgFXitujqqpp12Hf4u7Dv81RVdx1CHjlypUth4D79Omz63IAApCk2jIH8NRTT93nJx4sX748br311njggQfi+uuvj5/97Gcxf/78dn2KxuH8v7h9e+unezQ2Nsbs2bNjzZo1e913KC84nTp1ipEjR7b5cdbV1R1SqJVKpZg1a9ZeQd6en/fB/r0sWrQovvjFL0b37t2jurq6ZRu733Q/99xz8fGPfzwaGxtbdRLGjh07DnhYulKpxJ133hkbNmyIP/30n8aWE7bEr377q3jit0/EjtKO6N25d5w74NyYcOqEeGD2AzFr1qwO/Zg/AUIm+zrhY18nhnSkVgVgISKK1c0RVc1RXVOKYrE5ilW7RgCLVeVobm6OHTt2tATg7guwCkCyaescwPr6+vjABz4Q48eP3+PrlUolZs6cGYsWLYpVq1bFokWLYsWKFYf1I9Taqy1nfN57773x9NNPd+j2K5VKNDU1xZ//+Z+36/sPZZR23rx5HXKYt1wut/rEif2dTFKpVFo+E7g1Wru9n/70pzFv3rw4//zzY8yYMfG+Ie+LTp07xbq16+KZ2c/Et3/27ZYzj4G229/Zvvs7O7ijtCoAKxFx44WTY8Mb66NcqbRc72/371U1tdGnZ68olytRLpeiqVSKUjmiVDn6rrcDh1Nb5wD+4Ac/aNV6W7vc0e5Q54fty/Lly2Pq1Kkdvt7WWLhw4RHZ7jtt69atMWfOnJgzZ86R3hU4oKPxOn8HM3bs2P1eCHp3BB6xC0Ff/KE/jKampujZfe8Pqz+Yz1/XcZ8jCkejLl26RPfu3VtuNzU17XE7Iva6DbRfTU3Nkd4FjkLH6ij0wfZ7zJgxh+WxtSoAa2pq/IeDfejRo0dcccUVR3o3IJ2+ffse6V2AY1qrTwIB9jZixIgYMWLEkd4NAGgTF+oDAEhGAAIAJCMAAQCSEYAAAMkIQACAZAQgAEAyAhAAIIlXXnklIgQgAEA6AhAAIBkBCACQjAAEAEhGAAIAJCMAAQCSEYAAAMkIQACAZAQgAEAyAhAAIBkBCACQjAAEAEhGAAIAJCMAAQCSEYAAAMkIQACAZAQgAEAyAhAAIBkBCACQjAAEAEhGAAIAJCMAAQCSEYAAAMkIQACAZAQgAEAyAhAAIBkBCACQjAAEAEhGAAIAJCMAAQCSEYAAAMkIQACAZAQgAEAyAhAAIBkBCACQjAAEAEhGAAIAJCMAAQCSEYAAAMkIQACAZAQgAEAyAhAAIBkBCACQjAAEAEhGAAIAJCMAAQCSEYAAAMkIQACAZAQgAEAyAhAAIBkBCACQjAAEAEhGAAIAJCMAAQCSEYAAAMkIQACAZAQgAEAyAhAAIBkBCACQjAAEAEhGAAIAJCMAAQCSEYAAAMkIQACAZAQgAEAyAhAAIBkBCACQjAAEAEhGAAIAJCMAAQCSEYAAAMkIQACAZAQgAEAyAhAAIBkBCACQjAAEAEhGAAIAJCMAAQCSEYAAAMkIQACAZAQgAEAyAhAAIBkBCACQjAAEAEhGAAIAJCMAAQCSEYAAAMkIQACAZAQgAEAyAhAAIBkBCACQjAAEAEhGAAIAJCMAAQCSEYAAAMkIQACAZAQgAEAyAhAAIBkBCACQjAAEAEhGAAIAJCMAAQCSEYAAAMkIQACAZAQgAEAyAhAAIBkBCACQjAAEAEhGAAIAJCMAAQCSEYAAAMkIQACAZAQgAEAyAhAAIBkBCACQjAAEAEhGAAIAJCMAAQCSEYAAAMkIQACAZAQgAEAyAhAAIBkBCACQjAAEAEhGAAIAJCMAAQCSEYAAAMkIQACAZAQgAEAyAhAAIBkBCACQjAAEAEhGAAIAJCMAAQCSEYAAAMkIQACAZAQgAEAyAhAAIBkBCACQjAAEAEhGAAIAJCMAAQCSEYAAAMkIQACAZAQgAEAyAhAAIBkBCACQjAAEAEhGAAIAJCMAAQCSEYAAAMkIQACAZAQgAEAyAhAAIBkBCACQjAAEAEhGAAIAJCMAAQCSEYAAAMkIQACAZAQgAEAyAhAAIBkBCACQjAAEAEhGAAIAJCMAAQCSEYAAAMkIQACAZAQgAEAyAhAAIBkBCACQjAAEAEhGAAIAJCMAAQCSEYAAAMkIQACAZAQgAEAyAhAAIBkBCACQjAAEAEhGAAIAJCMAAQCSEYAAAMkIQACAZAQgAEAyAhAAIBkBCACQjAAEAEhGAAIAJCMAAQCSEYAAAMkIQACAZAQgAEAyAhAAIBkBCACQjAAEAEhGAAIAJCMAAQCSEYAAAMkIQACAZAQgAEAyAhAAIBkBCACQjAAEAEhGAAIAJCMAAQCSEYAAAMkIQACAZAQgAEAyAhAAIBkBCACQjAAEAEhGAAIAJCMAAQCSEYAAAMkIQACAZAQgAEAyAhAAIBkBCACQjAAEAEhGAAIAJCMAAQCSEYAAAMkIQACAZAQgAEAyAhAAIBkBCACQjAAEAEhGAAIAJCMAAQCSEYAAAMkIQACAZAQgAEAyAhAAIBkBCACQjAAEAEhGAAIAJCMAAQCSEYAAAMkIQACAZAQgAEAyAhAAIBkBCACQjAAEAEhGAAIAJCMAAQCSEYAAAMkIQACAZAQgAEAyAhAAIBkBCACQjAAEAEhGAAIAJCMAAQCSEYAAAMkIQACAZAQgAEAyAhAAIBkBCACQjAAEAEhGAAIAJCMAAQCSEYAAAMkIQACAZAQgAEAyAhAAIBkBCACQjAAEAEhGAAIAJCMAAQCSEYAAAMkIQACAZAQgAEAyAhAAIBkBCACQjAAEAEhGAAIAJCMAAQCSEYAAAMkIQACAZAQgAEAyAhAAIBkBCACQjAAEAEhGAAIAJCMAAQCSEYAAAMkIQACAZAQgAEAyAhAAIBkBCACQjAAEAEhGAAIAJCMAAQCSEYAAAMkIQACAZAQgAEAyAhAAIBkBCACQjAAEAEhGAAIAJCMAAQCSEYAAAMkIQACAZAQgAEAyAhAAIBkBCACQjAAEAEhGAAIAJCMAAQCSEYAAAMkIQACAZAQgAEAyAhAAIBkBCACQjAAEAEhGAAIAJCMAAQCSEYAAAMkIQACAZAQgAEAyAhAAIBkBCACQjAAEAEhGAAIAJCMAAQCSEYAAAMkIQACAZAQgAEAyAhAAIBkBCACQjAAEAEhGAAIAJCMAAQCSEYAAAMkIQACAZAQgAEAyAhAAIBkBCACQjAAEAEhGAAIAJCMAAQCSEYAAAMkIQACAZAQgAEAyAhAAIBkBCACQjAAEAEhGAAIAJCMAAQCSEYAAAMkIQACAZAQgAEAyAhAAIBkBCACQjAAEAEhGAAIAJCMAAQCSEYAAAMkIQACAZAQgAEAyAhAAIBkBCACQjAAEAEhGAAIAJCMAAQCSEYAAAMkIQACAZAQgAEAyAhAAIBkBCACQjAAEAEhGAAIAJCMAAQCSEYAAAMkIQACAZAQgAEAyAhAAIBkBCACQjAAEAEhGAAIAJCMAAQCSEYAAAMkIQACAZAQgAEAyAhAAIBkBCACQjAAEAEhGAAIAJCMAAQCSEYAAAMkIQACAZAQgAEAyAhAAIBkBCACQjAAEAEhGAAIAJCMAAQCSEYAAAMkIQACAZAQgAEAyAhAAIBkBCACQjAAEAEhGAAIAJCMAAQCSEYAAAMkIQACAZAQgAEAyAhAAIBkBCACQjAAEAEhGAAIAJCMAAQCSEYAAAMkIQACAZAQgAEAyAhAAIBkBCACQjAAEAEhGAAIAJCMAAQCSEYAAAMkIQACAZAQgAEAyAhAAIBkBCACQjAAEAEhGAAIAJCMAAQCSEYAAAMkIQACAZAQgAEAyAhAAIBkBCACQjAAEAEhGAAIAJCMAAQCSEYAAAMkIQACAZAQgAEAyAhAAIBkBCACQjAAEAEhGAAIAJCMAAQCSEYAAAMkIQACAZAQgAEAyAhAAIBkBCACQjAAEAEhGAAIAJCMAAQCSEYAAAMkIQACAZAQgAEAyAhAAIBkBCACQjAAEAEhGAAIAJCMAAQCSEYAAAMkIQACAZAQgAEAyAhAAIBkBCACQjAAEAEhGAAIAJCMAAQCSEYAAAMkIQACAZAQgAEAyAhAAIBkBCACQjAAEAEhGAAIAJCMAAQCSEYAAAMkIQACAZAQgAEAyAhAAIBkBCACQTPXuP1QqlSO5HwAAvENaAnDrpk0RIhAA4PdXoRARbwnAqFSMAgIA/B4r/O53cwABAJIRgAAAyQhAAIBkBCAAQDICEAAgGQEIAJCMAAQASEYAAgAkIwABAJIRgAAAyQhAAIBkBCAAQDICEAAgGQEIAJCMAAQASEYAAgAkIwABAJIRgAAAyQhAAIBkBCAAQDICEAAgGQEIAJCMAAQASEYAAgAkIwABAJIRgAAAyQhAAIBkqlv+VChE4QjuCAAAh1lhV+0Vhg4dWjnCuwIAwDuourGxMSIiKpXKHr+/3f6+DgDA0alQKOzzdnWhUIhKpbLXArvtDr/93Q8AwNHtrR1XKBTi/wF6D/a4dXOUngAAAABJRU5ErkJggg==;" parent="NUu4eacmFacFfqtwliKr-57" vertex="1">
          <mxGeometry width="514.81" height="440" as="geometry" />
        </mxCell>
        <mxCell id="NUu4eacmFacFfqtwliKr-59" value="Validation Box" style="rounded=0;whiteSpace=wrap;html=1;strokeColor=none;fontSize=25;" parent="NUu4eacmFacFfqtwliKr-57" vertex="1">
          <mxGeometry x="102.4" y="20" width="310" height="60" as="geometry" />
        </mxCell>
        <mxCell id="NUu4eacmFacFfqtwliKr-60" value="Connect PLC" style="rounded=1;whiteSpace=wrap;html=1;fillColor=#d5e8d4;strokeColor=#82b366;" parent="NUu4eacmFacFfqtwliKr-57" vertex="1">
          <mxGeometry x="110" y="90" width="129" height="50" as="geometry" />
        </mxCell>
        <mxCell id="NUu4eacmFacFfqtwliKr-61" value="Activate TwinCAT" style="rounded=1;whiteSpace=wrap;html=1;fillColor=#d5e8d4;strokeColor=#82b366;" parent="NUu4eacmFacFfqtwliKr-57" vertex="1">
          <mxGeometry x="270" y="90" width="129" height="50" as="geometry" />
        </mxCell>
        <mxCell id="NUu4eacmFacFfqtwliKr-62" value="Enable PG" style="rounded=1;whiteSpace=wrap;html=1;" parent="NUu4eacmFacFfqtwliKr-57" vertex="1">
          <mxGeometry x="110" y="150" width="129" height="50" as="geometry" />
        </mxCell>
        <mxCell id="NUu4eacmFacFfqtwliKr-63" value="Disable PG" style="rounded=1;whiteSpace=wrap;html=1;" parent="NUu4eacmFacFfqtwliKr-57" vertex="1">
          <mxGeometry x="270" y="150" width="129" height="50" as="geometry" />
        </mxCell>
        <mxCell id="NUu4eacmFacFfqtwliKr-64" value="Enable MPC" style="rounded=1;whiteSpace=wrap;html=1;" parent="NUu4eacmFacFfqtwliKr-57" vertex="1">
          <mxGeometry x="110" y="210" width="129" height="50" as="geometry" />
        </mxCell>
        <mxCell id="NUu4eacmFacFfqtwliKr-65" value="Disable MPC" style="rounded=1;whiteSpace=wrap;html=1;" parent="NUu4eacmFacFfqtwliKr-57" vertex="1">
          <mxGeometry x="270" y="210" width="129" height="50" as="geometry" />
        </mxCell>
        <mxCell id="NUu4eacmFacFfqtwliKr-66" value="Foreline Pressure Module" style="rounded=1;whiteSpace=wrap;html=1;fillColor=#647687;fontColor=#ffffff;strokeColor=#314354;" parent="NUu4eacmFacFfqtwliKr-57" vertex="1">
          <mxGeometry x="110" y="270" width="290" height="60" as="geometry" />
        </mxCell>
        <mxCell id="NUu4eacmFacFfqtwliKr-67" value="Manifold Pressure Controller" style="rounded=1;whiteSpace=wrap;html=1;fillColor=#647687;fontColor=#ffffff;strokeColor=#314354;" parent="NUu4eacmFacFfqtwliKr-57" vertex="1">
          <mxGeometry x="110" y="340" width="290" height="60" as="geometry" />
        </mxCell>
        <mxCell id="NUu4eacmFacFfqtwliKr-68" value="NetID : 5.108.227.236.1.1" style="text;strokeColor=none;align=center;fillColor=none;html=1;verticalAlign=middle;whiteSpace=wrap;rounded=0;" parent="NUu4eacmFacFfqtwliKr-57" vertex="1">
          <mxGeometry x="170" y="415" width="140" height="20" as="geometry" />
        </mxCell>
        <mxCell id="NUu4eacmFacFfqtwliKr-69" value="Communication Status :&amp;nbsp;" style="text;html=1;align=center;verticalAlign=middle;resizable=0;points=[];autosize=1;strokeColor=none;fillColor=none;" parent="NUu4eacmFacFfqtwliKr-57" vertex="1">
          <mxGeometry x="349" y="410" width="150" height="30" as="geometry" />
        </mxCell>
        <mxCell id="NUu4eacmFacFfqtwliKr-70" value="" style="ellipse;whiteSpace=wrap;html=1;fillColor=#d5e8d4;strokeColor=#82b366;" parent="NUu4eacmFacFfqtwliKr-57" vertex="1">
          <mxGeometry x="489" y="420" width="10" height="10" as="geometry" />
        </mxCell>
        <mxCell id="NUu4eacmFacFfqtwliKr-71" value="Main Window" style="text;html=1;align=center;verticalAlign=middle;resizable=0;points=[];autosize=1;strokeColor=none;fillColor=none;" parent="NUu4eacmFacFfqtwliKr-57" vertex="1">
          <mxGeometry x="18.409999999999997" y="-4" width="100" height="30" as="geometry" />
        </mxCell>
        <mxCell id="NUu4eacmFacFfqtwliKr-76" value="&lt;font style=&quot;font-size: 20px;&quot;&gt;2nd.&lt;br&gt;Activate&lt;br&gt;TwinCAT&lt;/font&gt;" style="text;strokeColor=none;align=center;fillColor=none;html=1;verticalAlign=middle;whiteSpace=wrap;rounded=0;" parent="NUu4eacmFacFfqtwliKr-120" vertex="1">
          <mxGeometry x="1441.5900000000001" y="230" width="70" height="30" as="geometry" />
        </mxCell>
        <mxCell id="NUu4eacmFacFfqtwliKr-94" style="edgeStyle=orthogonalEdgeStyle;rounded=0;orthogonalLoop=1;jettySize=auto;html=1;exitX=1;exitY=0.5;exitDx=0;exitDy=0;entryX=0;entryY=0.5;entryDx=0;entryDy=0;" parent="NUu4eacmFacFfqtwliKr-120" source="NUu4eacmFacFfqtwliKr-37" target="NUu4eacmFacFfqtwliKr-58" edge="1">
          <mxGeometry relative="1" as="geometry" />
        </mxCell>
        <mxCell id="NUu4eacmFacFfqtwliKr-116" value="" style="group" parent="NUu4eacmFacFfqtwliKr-120" vertex="1" connectable="0">
          <mxGeometry x="1261.5900000000001" y="615" width="550" height="536" as="geometry" />
        </mxCell>
        <mxCell id="NUu4eacmFacFfqtwliKr-98" value="" style="group" parent="NUu4eacmFacFfqtwliKr-116" vertex="1" connectable="0">
          <mxGeometry width="514.81" height="480" as="geometry" />
        </mxCell>
        <mxCell id="NUu4eacmFacFfqtwliKr-99" value="t" style="group;fillColor=#647687;fontColor=#ffffff;strokeColor=#314354;" parent="NUu4eacmFacFfqtwliKr-98" vertex="1" connectable="0">
          <mxGeometry y="40" width="514.81" height="440" as="geometry" />
        </mxCell>
        <mxCell id="NUu4eacmFacFfqtwliKr-100" value="" style="shape=image;verticalLabelPosition=bottom;labelBackgroundColor=default;verticalAlign=top;aspect=fixed;imageAspect=0;image=data:image/png,iVBORw0KGgoAAAANSUhEUgAAAoAAAAIjCAYAAACTRapjAAAfFUlEQVR4nO3de5SV9Xno8WfvmXFAroIgAspwx2CWUZDGqJVcvSQuDSWNNq6mhxqyqCWay5HTtEl6TpLmRFtjUxtiEG2KdrVitI0mGA0nihpyImpQ8QIiA0LkJgw3B5jZe58/CHNEbjPDIJDn81mLBXv2O+/77gH2/u7f+3vfXRg6dGglgHY56aSTYvDgwVEul4/0rkAanTt3jpdeeinWrFlzpHcFjlnVR3oH4Fi3atWqWLZs2ZHeDUhj8ODBR3oX4JjXEoCvvPLKkdwPOCY9+eSTcf3117fc7tGjR/To0SNWrFjRcruqqio2bNiwz++vq6uLqqqqVm2rvr4+SqXSoe/0O6gtj29fli1bdtDR1UKhEEOGDGn3NsrlcqsC/u2P5WB/H21d/ljQu3fv6Nq1axSLxdi2bVusX7/+iI1+33zzzXH22WcfkW3DsWzYsGERYQQQOtTOnTtj27ZtLbebmpqiUtn/LIvPfvaz8Z73vOeg661UKvHlL385fvOb33TIfnakQqGw38d47bXXRqdOnWL79u1tXm9dXV1MmzYtFi9efMDlBg0aFP/wD/8Q9fX1B/xZ70ttbW2USqWYOnXqQZe9/PLL44wzzoiGhoaIiLj77rtj/vz5+11+3Lhxcc4550RERL9+/eKOO+6Ihx56aL/LH+jneDi0dnvV1dUxbty4+NRVn4pBQwdFpbYS5WI5ako18Xr96zH34bkxZ86c2Lhx4zuw10BHEYDQgRobG6OxsTG6d+8ePXv2bBkJ/H3Ws2fP2LZtW+zcuXOv+0qlUkyfPj1eeOGFNq2zuro6vvWtb7V6+fr6+virv/qraGpqatN2Ro0aFVdffXWrl589e3YsXrw4qqqqolwux9ChQ/e77DPPPBMLFy6M+vr6+Mu//MsDrrdYLEbv3r1j3bp1B1yurq4u6urqIiJi3rx5e4y+9ezZMz74wQ/GypUr4ze/+U3s2LHjgOs64YQTYvPmzdHc3LzfZXr16hXXXnttDD9/eDxU/1DMem5WVBd2vWw0l5uj9/G94wNXfiAuvezSuOF/3xDPPPPMAbcJHD0EIBwGTU1Ne4wEHsiKFSvizTffPOAy5XL5oMscyCmnnBJdunRp1bLr1q2LN954o9XrLhQKUSgU9nt/qVQ6YGTsS6VSafOhxebm5jZvp63Ll8vl+NjHPrbHSOCB7B75a81jKRaLB7x/8uTJMWHChNiwYUOUy+V47LHH9rh/8ODBMW3atKivr4+mpqb48pe/HMuXL9/v+g70dxax60SLr37tq7Ft0La4acFNMXHEJ+LKkX8SfY/vG4VCIXaUdsRTqxfEj1+9P/p3PTm++o2vxlemfSWef/75gz7W1qipqWlz0AOtJwChA711DmBjY+NB5wBWKpWYMWNGqw7ttnf+WN++fePGG2+M1atXH3TZ2traaGxsjC984QvRs2fPGD9+fGzZsiXmzp3brm3va/0HG5k6VAebE9jaOX9vt3z58mhsbIyIXSOBBzqcu9u1114bERG//e1v2xybb9WvX7+48sor45vf/GaMHj06zj777Kiqqor+/ftHTU1NS7A3NDTELbfcEh/+8Idj0qRJ8bWvfa1d2ysUCjF58uSoDKvEQy8/FF8/9xvRv0v/PZbpVNUp+nU5Of5s9J/Fz5c/HD9a/aP4m6/8TUz6b5MO6c1KxK65hsOGDYuFCxe2a/oAcHCtCsDp37+13RsYdOqpccklF7f7++FY0tY5gBG7wu7kk0/e5wjda6+9Ftu2bYtTTz011q9f364X1urq6li/fn1MmzbtoPE1bNiw+PznPx8jR46MyZMnR6lUiuOPP77DAvCP//iP44EHHjis88Xq6upa5gS+feStU6dOUS6XD3pIdl/uu+++iIg488wzW0Y1jzvuuH0e+t5t9/b/4z/+o83be6t+/frFxo0bo6qqKq666qqYO3duTJ8+Perq6mLnzp1RXV0dL774YixevDg+85nPxD333BMTJkxo9/aGDx8eF338ovi7p/8u/uI91+wVfxER9Zvr45q5fxHnD/zD+MKYL8T/mv8/Y8vALfFHf/RHMWvWrHZvu3fv3jFixIhYunSp+IPDqFUBOGDQsBg8ZP9zXd5q/drX97g9//F5ApA02jsH8MILL4zTTz99r6/PmDEjFi1aFJMnT4677747nn322Y7e5b306dMnpk6dGv/5n/8Zr732Wnzuc5/rsHWfddZZUVdXF9/5zndi69atHbbet9vfnMBRo0bFZz7zmQ7bzoQJE+KXv/zlYZ/ruXvOYW1tbWzbti3Gjh0bDz74YNx8883R3Nwc/fr1iylTpkTnzp1bgvRgh5QP5Nxzz42nG56OESeMjHf1etc+l/npqz+JUrkUF9VdFJ2rO8dlwy6PexbfE5+44BNx9913t2uk98QTT4yRI0fG0qVLY+3ate3ef+DgWn0IuLZYE3sMZPzuRiUihg87ueVyDf379opTTz01yuVylEqlmP/4vA7eZTj6tWUOYETEbbfdts+vd+3aNT72sY/F0KFD46KLLoqqqqpYuHDhYb30xo4dO+KGG26IFStWxPDhwzt03YVCId73vvfFunXrYubMmYd1jte+5gQeymHYAQMG7DUC269fv7juuuvihhtuOOAh9n79+sW2bdtiy5Ytbd5u//79Y9KkSbFmzZro3LlznHjiiTFz5sz48Y9/HBG7fqYDBgyIwYMHx44dO6KhoSE2b94cPXv2jIkTJ8a9997b5n8vZ7znjPjl2l/GxXX7fvP+SsMr8dNlP43zB54fZ/Y9c9f39Dkj7nj+9ug3ql9069atzQHYu3fvGD58eCxZskT8wTug1QH433/4SBSrKxFVpSjWlKJQXf7dr+b4fp8roqamJsrlclQqlXhw/ssxf/Fr8dkP7/udI/y+6tGjR/Ts2bNlvtjB5gDutvuacW+9VtyAAQNi2rRpsXXr1pbDf9OmTYtHHnkkbr311sN2yZDNmze3jGgd7ASP9rr00ktj586dcccdd7yjlz45FBMnTowXX3wxInZF2e5r/J122mkxZcqU+Pa3vx1vvvnmHtf/69y5c0REfPKTn4znn3++XYfS+/TpE8OGDYtvfvObLSeB/OIXv4hisRjlcjkuuOCCmDp1atx5552xefPmmDJlSpx00knx4IMPxmWXXdZy6LotevfpHatXr44+nftERMTKrStje3NjDO4xJIqFYsxZNid2lHbEJUMuiWJh10hjp+pOUalUonRcKWpra9u0vW7dusXpp58eixcvFn+0W2ufq46255xCoRALFiyIMWPG7PP+p556KsaOHdvh+93qAOzapRjVtYUoVEUUqgtRqC5HsboUUbXrBePkk09uOXNv4WtvRKdeEevXr+/QnYWj3c6dO/c4tNmaOYAREZdcckkMGzYspk+fHkuWLIlCoRCf/vSn44033ojvfOc78alPfSrmzp0bjzzySFx33XXx8ssvxy9+8YvD+VA6TF1dXZRKpaivr2/5WrFYjMsvvzzWrl0bP/nJT6JSqURdXV106tQpInbNW9z956NFoVCIYrEYq1atinPOOSfGjRvXct+4cePimmuuiX/6p3+KcePGxXvf+96W+zZv3hzFYvGQLojdo0ePGDJkSDQ0NMSWLVviIx/5SIwaNSp+9atfxeTJk+Nf/uVf4v77748xY8bE9u3bY9OmTXHeeee1e8SzXCpHTVVNlH/3b/eZtU/HzQtuji+d/aU4rfe74ievPhDjTxkfY04a2/I9lUolKlGJKEebR3YbGxujoaEhevbsGWvXrj3mL5jNkXOw59vD8Yb2UC1YsCDOOfe8mP/E43tF4FNPPRXnnHteLFiwoMO32+oA7NK1GMd1KsbqzZtie9P2qKopRbFmVwSWy+VYsWJFlMvlKJfLUahpjuO67DzqKhsOt/bOAbz11lujUChEqVSKurq6OOmkk2L48OExffr02LZtW/zgBz+IcrkcTU1N8eijj8b48eNj1apVsXTp0g5/sezVq1dMmDCh5RDjoVixYkV85CMfiebm5pgxY8Ye99XU1MSkSbvOGJ03b15cfPHFMXLkyJb7S6XSURcC/fv3j8ceeyyeffbZWLZsWfzBH/xBy33vf//7Y+PGjfHDH/4w7r333paRwHK53DIS2B4vv/xy3HTTTXHZZZfF3XffHRdeeGEsXrw43vve98bUqVNj1qxZcf/990fErkvBrFmzJiqVSpxyyinxpS99qV0/w9W/XR0j+4+M+s3LYlD3QTF+4Pvj31/89/jXF/41zup7VjSXm+NDp34oCvH/X0w37tgYtdW1UdxebPPJSs3NzfHCCy/E6NGjY+TIkbF48eJDOlwPx5IxY8bE/Cce3ysCd8ffvsKwI7Q6ADfv3BZb3twaxZpSVB1XjqrfjQBWVe39n7RYVYrqTtuP2EcEwZHW1jmA/fv3jy5dusTKlSvjoosuine/+93Rp0+f+OQnPxkNDQ0tn4ZxySWXxBlnnBG9e/eOKVOmxC233BJLly7t0H0vFApx1llnxYgRI+KJJ544pDdy3/3udw94f+fOnePqq6+OhoaGmD59eru383a1tbUxcuTIvSJi8ODB7R4B2D3yt/tkndmzZ+9xf6FQiMsvvzy2b98ed911V5x11ll7jQS2x/bt22Pp0qUtn1rSrVu3uOCCC+Lv//7vY9CgQfHrX/86CoVCnHLKKXHppZfGmjVrora2NjZv3hxLlixp1zZ//vOfxye+9Im456V74rwB50e347rFladdGTctuCnmLJsT408ZH2f3G7fH9/yfFXNjVO9R8ezTz7brBJ+mpqZ4/vnnY/To0TF8+PBYvHjxUfcGAA6Xt0dgRBzW+ItoQwC+Wd4WxdrmXeFXVY6q6lJUVZeiWF2KSqUS/fv3b3nH/srW1dGp03bv4EinvXMAd58FfNttt8WMGTOiR48eceONN8Z9990XS5YsicGDB8eKFSvitttui8997nOxYMGCuP3221v9AllbWxtDhw496MT8gQMHxoYNG+Ib3/hGTJw4MSZPnhwvv/xyqx9/W7z++uvRs2fPOOGEE+Laa6+Nv/3bv23X9fnebvcJaPv7hI/2nrH7ox/9aI/5dOVyeY8RwEqlElVVVTFx4sRYt25d3HPPPXHvvffusXx7bdq0KY477rjYtGlTrF69Oj74wQ/GiSeeGI8++miMHj06TjvttPjoRz8a3bt3jyeeeCI6d+7crhNOdnvyySfj6s1XR1VVVcxePDuuGHlFXDBwfPzf138da99cExfWXdQy9y8iYummpfHAqw/EF9/zxfjn6f/c7u2+dSRw1KhR8dJLL4lA0nhrBEbEYY2/iDYEYHVtKSrV5aiq2hV9xapSVFeXo1jV3HLod/evMQNGRt/Xjo/ice2/DAEci9o7B/DtZwFv2LAh5s6dG1OmTIktW7bEFVdcEffdd1+MGTMmzj333Pjrv/7rVr/BampqilWrVrX6I8/mz58f27dvjzvvvDMeeeSRA17nrr0ee+yx+O53vxvHH398DBo0KEaMGBFjx46N1atXt1xsub2WL1/eruv8Hczu57d9efXVV+P73/9+DBw4MIYMGRLnnXderFq1qsM+FWP16tXR3NwcZ555Zvzbv/1bfOhDH4qHH344xo4dG7169YolS5bE7bffHpdddlk89NBDcdVVV8Xjjz/e7u01NDTEzBkzY8r/mBI3Pn1jdK3pGhcPvji+fu7X91iuUqnEq5tfjVueuSX+5F1/Ei88+kI8+eSTh/RYm5qaYtGiRTFo0KBDWg+H5lg9oYLWa3UAdupciKYoRaG6Oap/F4FVVbsOAe9+YiyVSi1PkP369fPOjXQ68rOA/+u//iu6desW119/fXTt2jUGDhwYW7dujX/8x3+MRYsWtXo969ati69//evtekJfuXJlm/f7YJYuXRozZ86MrVu3xtatW2Pt2rXx5JNPRqFQOCZfTDZu3Bjf+973YtGiRfHcc89FxK7r9nXkZPOtW7fGV77ylZg0aVKcfvrp8corr8Rdd90Vd955ZxSLxSiVSvHud787Jk2aFNdcc03Mnz8/7rrrrkPa5sMPPxx9+/aNaZOnxe2Lbo95Kx+N8wacFyNPGBXFQiG2NG2NR197JBZvXByXj7g84uWIm266qUOe95uammLp0qXH5L+H3xd+9u+8t875iziKDgFXitujqqpp12Hf4u7Dv81RVdx1CHjlypUth4D79Omz63IAApCk2jIH8NRTT93nJx4sX748br311njggQfi+uuvj5/97Gcxf/78dn2KxuH8v7h9e+unezQ2Nsbs2bNjzZo1e913KC84nTp1ipEjR7b5cdbV1R1SqJVKpZg1a9ZeQd6en/fB/r0sWrQovvjFL0b37t2jurq6ZRu733Q/99xz8fGPfzwaGxtbdRLGjh07DnhYulKpxJ133hkbNmyIP/30n8aWE7bEr377q3jit0/EjtKO6N25d5w74NyYcOqEeGD2AzFr1qwO/Zg/AUIm+zrhY18nhnSkVgVgISKK1c0RVc1RXVOKYrE5ilW7RgCLVeVobm6OHTt2tATg7guwCkCyaescwPr6+vjABz4Q48eP3+PrlUolZs6cGYsWLYpVq1bFokWLYsWKFYf1I9Taqy1nfN57773x9NNPd+j2K5VKNDU1xZ//+Z+36/sPZZR23rx5HXKYt1wut/rEif2dTFKpVFo+E7g1Wru9n/70pzFv3rw4//zzY8yYMfG+Ie+LTp07xbq16+KZ2c/Et3/27ZYzj4G229/Zvvs7O7ijtCoAKxFx44WTY8Mb66NcqbRc72/371U1tdGnZ68olytRLpeiqVSKUjmiVDn6rrcDh1Nb5wD+4Ac/aNV6W7vc0e5Q54fty/Lly2Pq1Kkdvt7WWLhw4RHZ7jtt69atMWfOnJgzZ86R3hU4oKPxOn8HM3bs2P1eCHp3BB6xC0Ff/KE/jKampujZfe8Pqz+Yz1/XcZ8jCkejLl26RPfu3VtuNzU17XE7Iva6DbRfTU3Nkd4FjkLH6ij0wfZ7zJgxh+WxtSoAa2pq/IeDfejRo0dcccUVR3o3IJ2+ffse6V2AY1qrTwIB9jZixIgYMWLEkd4NAGgTF+oDAEhGAAIAJCMAAQCSEYAAAMkIQACAZAQgAEAyAhAAIIlXXnklIgQgAEA6AhAAIBkBCACQjAAEAEhGAAIAJCMAAQCSEYAAAMkIQACAZAQgAEAyAhAAIBkBCACQjAAEAEhGAAIAJCMAAQCSEYAAAMkIQACAZAQgAEAyAhAAIBkBCACQjAAEAEhGAAIAJCMAAQCSEYAAAMkIQACAZAQgAEAyAhAAIBkBCACQjAAEAEhGAAIAJCMAAQCSEYAAAMkIQACAZAQgAEAyAhAAIBkBCACQjAAEAEhGAAIAJCMAAQCSEYAAAMkIQACAZAQgAEAyAhAAIBkBCACQjAAEAEhGAAIAJCMAAQCSEYAAAMkIQACAZAQgAEAyAhAAIBkBCACQjAAEAEhGAAIAJCMAAQCSEYAAAMkIQACAZAQgAEAyAhAAIBkBCACQjAAEAEhGAAIAJCMAAQCSEYAAAMkIQACAZAQgAEAyAhAAIBkBCACQjAAEAEhGAAIAJCMAAQCSEYAAAMkIQACAZAQgAEAyAhAAIBkBCACQjAAEAEhGAAIAJCMAAQCSEYAAAMkIQACAZAQgAEAyAhAAIBkBCACQjAAEAEhGAAIAJCMAAQCSEYAAAMkIQACAZAQgAEAyAhAAIBkBCACQjAAEAEhGAAIAJCMAAQCSEYAAAMkIQACAZAQgAEAyAhAAIBkBCACQjAAEAEhGAAIAJCMAAQCSEYAAAMkIQACAZAQgAEAyAhAAIBkBCACQjAAEAEhGAAIAJCMAAQCSEYAAAMkIQACAZAQgAEAyAhAAIBkBCACQjAAEAEhGAAIAJCMAAQCSEYAAAMkIQACAZAQgAEAyAhAAIBkBCACQjAAEAEhGAAIAJCMAAQCSEYAAAMkIQACAZAQgAEAyAhAAIBkBCACQjAAEAEhGAAIAJCMAAQCSEYAAAMkIQACAZAQgAEAyAhAAIBkBCACQjAAEAEhGAAIAJCMAAQCSEYAAAMkIQACAZAQgAEAyAhAAIBkBCACQjAAEAEhGAAIAJCMAAQCSEYAAAMkIQACAZAQgAEAyAhAAIBkBCACQjAAEAEhGAAIAJCMAAQCSEYAAAMkIQACAZAQgAEAyAhAAIBkBCACQjAAEAEhGAAIAJCMAAQCSEYAAAMkIQACAZAQgAEAyAhAAIBkBCACQjAAEAEhGAAIAJCMAAQCSEYAAAMkIQACAZAQgAEAyAhAAIBkBCACQjAAEAEhGAAIAJCMAAQCSEYAAAMkIQACAZAQgAEAyAhAAIBkBCACQjAAEAEhGAAIAJCMAAQCSEYAAAMkIQACAZAQgAEAyAhAAIBkBCACQjAAEAEhGAAIAJCMAAQCSEYAAAMkIQACAZAQgAEAyAhAAIBkBCACQjAAEAEhGAAIAJCMAAQCSEYAAAMkIQACAZAQgAEAyAhAAIBkBCACQjAAEAEhGAAIAJCMAAQCSEYAAAMkIQACAZAQgAEAyAhAAIBkBCACQjAAEAEhGAAIAJCMAAQCSEYAAAMkIQACAZAQgAEAyAhAAIBkBCACQjAAEAEhGAAIAJCMAAQCSEYAAAMkIQACAZAQgAEAyAhAAIBkBCACQjAAEAEhGAAIAJCMAAQCSEYAAAMkIQACAZAQgAEAyAhAAIBkBCACQjAAEAEhGAAIAJCMAAQCSEYAAAMkIQACAZAQgAEAyAhAAIBkBCACQjAAEAEhGAAIAJCMAAQCSEYAAAMkIQACAZAQgAEAyAhAAIBkBCACQjAAEAEhGAAIAJCMAAQCSEYAAAMkIQACAZAQgAEAyAhAAIBkBCACQjAAEAEhGAAIAJCMAAQCSEYAAAMkIQACAZAQgAEAyAhAAIBkBCACQjAAEAEhGAAIAJCMAAQCSEYAAAMkIQACAZAQgAEAyAhAAIBkBCACQjAAEAEhGAAIAJCMAAQCSEYAAAMkIQACAZAQgAEAyAhAAIBkBCACQjAAEAEhGAAIAJCMAAQCSEYAAAMkIQACAZAQgAEAyAhAAIBkBCACQjAAEAEhGAAIAJCMAAQCSEYAAAMkIQACAZAQgAEAyAhAAIBkBCACQjAAEAEhGAAIAJCMAAQCSEYAAAMkIQACAZAQgAEAyAhAAIBkBCACQjAAEAEhGAAIAJCMAAQCSEYAAAMkIQACAZAQgAEAyAhAAIBkBCACQjAAEAEhGAAIAJCMAAQCSEYAAAMkIQACAZAQgAEAyAhAAIBkBCACQjAAEAEhGAAIAJCMAAQCSEYAAAMkIQACAZAQgAEAyAhAAIBkBCACQjAAEAEhGAAIAJCMAAQCSEYAAAMkIQACAZAQgAEAyAhAAIBkBCACQjAAEAEhGAAIAJCMAAQCSEYAAAMkIQACAZAQgAEAyAhAAIBkBCACQjAAEAEhGAAIAJCMAAQCSEYAAAMkIQACAZAQgAEAyAhAAIBkBCACQjAAEAEhGAAIAJCMAAQCSEYAAAMkIQACAZAQgAEAyAhAAIBkBCACQjAAEAEhGAAIAJCMAAQCSEYAAAMkIQACAZAQgAEAyAhAAIBkBCACQjAAEAEhGAAIAJCMAAQCSEYAAAMkIQACAZAQgAEAyAhAAIBkBCACQjAAEAEhGAAIAJCMAAQCSEYAAAMkIQACAZAQgAEAyAhAAIBkBCACQjAAEAEhGAAIAJCMAAQCSEYAAAMkIQACAZAQgAEAyAhAAIBkBCACQjAAEAEhGAAIAJCMAAQCSEYAAAMkIQACAZAQgAEAyAhAAIBkBCACQjAAEAEhGAAIAJCMAAQCSEYAAAMkIQACAZAQgAEAyAhAAIBkBCACQjAAEAEhGAAIAJCMAAQCSEYAAAMkIQACAZAQgAEAyAhAAIBkBCACQjAAEAEhGAAIAJCMAAQCSEYAAAMkIQACAZAQgAEAyAhAAIBkBCACQjAAEAEhGAAIAJCMAAQCSEYAAAMkIQACAZAQgAEAyAhAAIBkBCACQjAAEAEhGAAIAJCMAAQCSEYAAAMkIQACAZAQgAEAyAhAAIBkBCACQjAAEAEhGAAIAJCMAAQCSEYAAAMkIQACAZAQgAEAyAhAAIBkBCACQjAAEAEhGAAIAJCMAAQCSEYAAAMkIQACAZAQgAEAyAhAAIBkBCACQjAAEAEhGAAIAJCMAAQCSEYAAAMkIQACAZAQgAEAyAhAAIBkBCACQjAAEAEhGAAIAJCMAAQCSEYAAAMkIQACAZAQgAEAyAhAAIBkBCACQTPXuP1QqlSO5HwAAvENaAnDrpk0RIhAA4PdXoRARbwnAqFSMAgIA/B4r/O53cwABAJIRgAAAyQhAAIBkBCAAQDICEAAgGQEIAJCMAAQASEYAAgAkIwABAJIRgAAAyQhAAIBkBCAAQDICEAAgGQEIAJCMAAQASEYAAgAkIwABAJIRgAAAyQhAAIBkBCAAQDICEAAgGQEIAJCMAAQASEYAAgAkIwABAJIRgAAAyQhAAIBkqlv+VChE4QjuCAAAh1lhV+0Vhg4dWjnCuwIAwDuourGxMSIiKpXKHr+/3f6+DgDA0alQKOzzdnWhUIhKpbLXArvtDr/93Q8AwNHtrR1XKBTi/wF6D/a4dXOUngAAAABJRU5ErkJggg==;" parent="NUu4eacmFacFfqtwliKr-99" vertex="1">
          <mxGeometry width="514.81" height="440" as="geometry" />
        </mxCell>
        <mxCell id="NUu4eacmFacFfqtwliKr-101" value="Validation Box" style="rounded=0;whiteSpace=wrap;html=1;strokeColor=none;fontSize=25;" parent="NUu4eacmFacFfqtwliKr-99" vertex="1">
          <mxGeometry x="102.4" y="20" width="310" height="60" as="geometry" />
        </mxCell>
        <mxCell id="NUu4eacmFacFfqtwliKr-102" value="Connect PLC" style="rounded=1;whiteSpace=wrap;html=1;fillColor=#d5e8d4;strokeColor=#82b366;" parent="NUu4eacmFacFfqtwliKr-99" vertex="1">
          <mxGeometry x="110" y="90" width="129" height="50" as="geometry" />
        </mxCell>
        <mxCell id="NUu4eacmFacFfqtwliKr-103" value="Activate TwinCAT" style="rounded=1;whiteSpace=wrap;html=1;fillColor=#d5e8d4;strokeColor=#82b366;" parent="NUu4eacmFacFfqtwliKr-99" vertex="1">
          <mxGeometry x="270" y="90" width="129" height="50" as="geometry" />
        </mxCell>
        <mxCell id="NUu4eacmFacFfqtwliKr-104" value="Enable PG" style="rounded=1;whiteSpace=wrap;html=1;fillColor=#f8cecc;strokeColor=#b85450;" parent="NUu4eacmFacFfqtwliKr-99" vertex="1">
          <mxGeometry x="110" y="150" width="129" height="50" as="geometry" />
        </mxCell>
        <mxCell id="NUu4eacmFacFfqtwliKr-105" value="Disable PG" style="rounded=1;whiteSpace=wrap;html=1;fillColor=#f8cecc;strokeColor=#b85450;" parent="NUu4eacmFacFfqtwliKr-99" vertex="1">
          <mxGeometry x="270" y="150" width="129" height="50" as="geometry" />
        </mxCell>
        <mxCell id="NUu4eacmFacFfqtwliKr-106" value="Enable MPC" style="rounded=1;whiteSpace=wrap;html=1;fillColor=#d5e8d4;strokeColor=#82b366;" parent="NUu4eacmFacFfqtwliKr-99" vertex="1">
          <mxGeometry x="110" y="210" width="129" height="50" as="geometry" />
        </mxCell>
        <mxCell id="NUu4eacmFacFfqtwliKr-107" value="Disable MPC" style="rounded=1;whiteSpace=wrap;html=1;fillColor=#f8cecc;strokeColor=#b85450;" parent="NUu4eacmFacFfqtwliKr-99" vertex="1">
          <mxGeometry x="270" y="210" width="129" height="50" as="geometry" />
        </mxCell>
        <mxCell id="NUu4eacmFacFfqtwliKr-108" value="Foreline Pressure Module" style="rounded=1;whiteSpace=wrap;html=1;fillColor=#647687;strokeColor=#314354;fontColor=#ffffff;" parent="NUu4eacmFacFfqtwliKr-99" vertex="1">
          <mxGeometry x="110" y="270" width="290" height="60" as="geometry" />
        </mxCell>
        <mxCell id="NUu4eacmFacFfqtwliKr-109" value="Manifold Pressure Controller" style="rounded=1;whiteSpace=wrap;html=1;fillColor=#d5e8d4;strokeColor=#82b366;" parent="NUu4eacmFacFfqtwliKr-99" vertex="1">
          <mxGeometry x="110" y="340" width="290" height="60" as="geometry" />
        </mxCell>
        <mxCell id="NUu4eacmFacFfqtwliKr-110" value="NetID : 5.108.227.236.1.1" style="text;strokeColor=none;align=center;fillColor=none;html=1;verticalAlign=middle;whiteSpace=wrap;rounded=0;" parent="NUu4eacmFacFfqtwliKr-99" vertex="1">
          <mxGeometry x="170" y="415" width="140" height="20" as="geometry" />
        </mxCell>
        <mxCell id="NUu4eacmFacFfqtwliKr-111" value="Communication Status :&amp;nbsp;" style="text;html=1;align=center;verticalAlign=middle;resizable=0;points=[];autosize=1;strokeColor=none;fillColor=none;" parent="NUu4eacmFacFfqtwliKr-99" vertex="1">
          <mxGeometry x="349" y="410" width="150" height="30" as="geometry" />
        </mxCell>
        <mxCell id="NUu4eacmFacFfqtwliKr-112" value="" style="ellipse;whiteSpace=wrap;html=1;fillColor=#d5e8d4;strokeColor=#82b366;" parent="NUu4eacmFacFfqtwliKr-99" vertex="1">
          <mxGeometry x="489" y="420" width="10" height="10" as="geometry" />
        </mxCell>
        <mxCell id="NUu4eacmFacFfqtwliKr-113" value="Main Window" style="text;html=1;align=center;verticalAlign=middle;resizable=0;points=[];autosize=1;strokeColor=none;fillColor=none;" parent="NUu4eacmFacFfqtwliKr-98" vertex="1">
          <mxGeometry x="17.409999999999997" y="36" width="100" height="30" as="geometry" />
        </mxCell>
        <mxCell id="NUu4eacmFacFfqtwliKr-114" value="&lt;font style=&quot;font-size: 25px;&quot;&gt;Enable to test MPC(Manifold Pressure Controller)&lt;/font&gt;" style="text;strokeColor=none;align=center;fillColor=none;html=1;verticalAlign=middle;whiteSpace=wrap;rounded=0;" parent="NUu4eacmFacFfqtwliKr-116" vertex="1">
          <mxGeometry x="-20" y="506" width="570" height="30" as="geometry" />
        </mxCell>
        <mxCell id="NUu4eacmFacFfqtwliKr-122" value="" style="group" parent="NUu4eacmFacFfqtwliKr-120" vertex="1" connectable="0">
          <mxGeometry x="471.59000000000003" y="614" width="643.4099999999995" height="616" as="geometry" />
        </mxCell>
        <mxCell id="NUu4eacmFacFfqtwliKr-115" value="" style="group" parent="NUu4eacmFacFfqtwliKr-122" vertex="1" connectable="0">
          <mxGeometry width="560" height="565" as="geometry" />
        </mxCell>
        <mxCell id="NUu4eacmFacFfqtwliKr-77" value="" style="group" parent="NUu4eacmFacFfqtwliKr-115" vertex="1" connectable="0">
          <mxGeometry width="514.81" height="480" as="geometry" />
        </mxCell>
        <mxCell id="NUu4eacmFacFfqtwliKr-78" value="t" style="group" parent="NUu4eacmFacFfqtwliKr-77" vertex="1" connectable="0">
          <mxGeometry y="40" width="514.81" height="440" as="geometry" />
        </mxCell>
        <mxCell id="NUu4eacmFacFfqtwliKr-79" value="" style="shape=image;verticalLabelPosition=bottom;labelBackgroundColor=default;verticalAlign=top;aspect=fixed;imageAspect=0;image=data:image/png,iVBORw0KGgoAAAANSUhEUgAAAoAAAAIjCAYAAACTRapjAAAfFUlEQVR4nO3de5SV9Xno8WfvmXFAroIgAspwx2CWUZDGqJVcvSQuDSWNNq6mhxqyqCWay5HTtEl6TpLmRFtjUxtiEG2KdrVitI0mGA0nihpyImpQ8QIiA0LkJgw3B5jZe58/CHNEbjPDIJDn81mLBXv2O+/77gH2/u7f+3vfXRg6dGglgHY56aSTYvDgwVEul4/0rkAanTt3jpdeeinWrFlzpHcFjlnVR3oH4Fi3atWqWLZs2ZHeDUhj8ODBR3oX4JjXEoCvvPLKkdwPOCY9+eSTcf3117fc7tGjR/To0SNWrFjRcruqqio2bNiwz++vq6uLqqqqVm2rvr4+SqXSoe/0O6gtj29fli1bdtDR1UKhEEOGDGn3NsrlcqsC/u2P5WB/H21d/ljQu3fv6Nq1axSLxdi2bVusX7/+iI1+33zzzXH22WcfkW3DsWzYsGERYQQQOtTOnTtj27ZtLbebmpqiUtn/LIvPfvaz8Z73vOeg661UKvHlL385fvOb33TIfnakQqGw38d47bXXRqdOnWL79u1tXm9dXV1MmzYtFi9efMDlBg0aFP/wD/8Q9fX1B/xZ70ttbW2USqWYOnXqQZe9/PLL44wzzoiGhoaIiLj77rtj/vz5+11+3Lhxcc4550RERL9+/eKOO+6Ihx56aL/LH+jneDi0dnvV1dUxbty4+NRVn4pBQwdFpbYS5WI5ako18Xr96zH34bkxZ86c2Lhx4zuw10BHEYDQgRobG6OxsTG6d+8ePXv2bBkJ/H3Ws2fP2LZtW+zcuXOv+0qlUkyfPj1eeOGFNq2zuro6vvWtb7V6+fr6+virv/qraGpqatN2Ro0aFVdffXWrl589e3YsXrw4qqqqolwux9ChQ/e77DPPPBMLFy6M+vr6+Mu//MsDrrdYLEbv3r1j3bp1B1yurq4u6urqIiJi3rx5e4y+9ezZMz74wQ/GypUr4ze/+U3s2LHjgOs64YQTYvPmzdHc3LzfZXr16hXXXnttDD9/eDxU/1DMem5WVBd2vWw0l5uj9/G94wNXfiAuvezSuOF/3xDPPPPMAbcJHD0EIBwGTU1Ne4wEHsiKFSvizTffPOAy5XL5oMscyCmnnBJdunRp1bLr1q2LN954o9XrLhQKUSgU9nt/qVQ6YGTsS6VSafOhxebm5jZvp63Ll8vl+NjHPrbHSOCB7B75a81jKRaLB7x/8uTJMWHChNiwYUOUy+V47LHH9rh/8ODBMW3atKivr4+mpqb48pe/HMuXL9/v+g70dxax60SLr37tq7Ft0La4acFNMXHEJ+LKkX8SfY/vG4VCIXaUdsRTqxfEj1+9P/p3PTm++o2vxlemfSWef/75gz7W1qipqWlz0AOtJwChA711DmBjY+NB5wBWKpWYMWNGqw7ttnf+WN++fePGG2+M1atXH3TZ2traaGxsjC984QvRs2fPGD9+fGzZsiXmzp3brm3va/0HG5k6VAebE9jaOX9vt3z58mhsbIyIXSOBBzqcu9u1114bERG//e1v2xybb9WvX7+48sor45vf/GaMHj06zj777Kiqqor+/ftHTU1NS7A3NDTELbfcEh/+8Idj0qRJ8bWvfa1d2ysUCjF58uSoDKvEQy8/FF8/9xvRv0v/PZbpVNUp+nU5Of5s9J/Fz5c/HD9a/aP4m6/8TUz6b5MO6c1KxK65hsOGDYuFCxe2a/oAcHCtCsDp37+13RsYdOqpccklF7f7++FY0tY5gBG7wu7kk0/e5wjda6+9Ftu2bYtTTz011q9f364X1urq6li/fn1MmzbtoPE1bNiw+PznPx8jR46MyZMnR6lUiuOPP77DAvCP//iP44EHHjis88Xq6upa5gS+feStU6dOUS6XD3pIdl/uu+++iIg488wzW0Y1jzvuuH0e+t5t9/b/4z/+o83be6t+/frFxo0bo6qqKq666qqYO3duTJ8+Perq6mLnzp1RXV0dL774YixevDg+85nPxD333BMTJkxo9/aGDx8eF338ovi7p/8u/uI91+wVfxER9Zvr45q5fxHnD/zD+MKYL8T/mv8/Y8vALfFHf/RHMWvWrHZvu3fv3jFixIhYunSp+IPDqFUBOGDQsBg8ZP9zXd5q/drX97g9//F5ApA02jsH8MILL4zTTz99r6/PmDEjFi1aFJMnT4677747nn322Y7e5b306dMnpk6dGv/5n/8Zr732Wnzuc5/rsHWfddZZUVdXF9/5zndi69atHbbet9vfnMBRo0bFZz7zmQ7bzoQJE+KXv/zlYZ/ruXvOYW1tbWzbti3Gjh0bDz74YNx8883R3Nwc/fr1iylTpkTnzp1bgvRgh5QP5Nxzz42nG56OESeMjHf1etc+l/npqz+JUrkUF9VdFJ2rO8dlwy6PexbfE5+44BNx9913t2uk98QTT4yRI0fG0qVLY+3ate3ef+DgWn0IuLZYE3sMZPzuRiUihg87ueVyDf379opTTz01yuVylEqlmP/4vA7eZTj6tWUOYETEbbfdts+vd+3aNT72sY/F0KFD46KLLoqqqqpYuHDhYb30xo4dO+KGG26IFStWxPDhwzt03YVCId73vvfFunXrYubMmYd1jte+5gQeymHYAQMG7DUC269fv7juuuvihhtuOOAh9n79+sW2bdtiy5Ytbd5u//79Y9KkSbFmzZro3LlznHjiiTFz5sz48Y9/HBG7fqYDBgyIwYMHx44dO6KhoSE2b94cPXv2jIkTJ8a9997b5n8vZ7znjPjl2l/GxXX7fvP+SsMr8dNlP43zB54fZ/Y9c9f39Dkj7nj+9ug3ql9069atzQHYu3fvGD58eCxZskT8wTug1QH433/4SBSrKxFVpSjWlKJQXf7dr+b4fp8roqamJsrlclQqlXhw/ssxf/Fr8dkP7/udI/y+6tGjR/Ts2bNlvtjB5gDutvuacW+9VtyAAQNi2rRpsXXr1pbDf9OmTYtHHnkkbr311sN2yZDNmze3jGgd7ASP9rr00ktj586dcccdd7yjlz45FBMnTowXX3wxInZF2e5r/J122mkxZcqU+Pa3vx1vvvnmHtf/69y5c0REfPKTn4znn3++XYfS+/TpE8OGDYtvfvObLSeB/OIXv4hisRjlcjkuuOCCmDp1atx5552xefPmmDJlSpx00knx4IMPxmWXXdZy6LotevfpHatXr44+nftERMTKrStje3NjDO4xJIqFYsxZNid2lHbEJUMuiWJh10hjp+pOUalUonRcKWpra9u0vW7dusXpp58eixcvFn+0W2ufq46255xCoRALFiyIMWPG7PP+p556KsaOHdvh+93qAOzapRjVtYUoVEUUqgtRqC5HsboUUbXrBePkk09uOXNv4WtvRKdeEevXr+/QnYWj3c6dO/c4tNmaOYAREZdcckkMGzYspk+fHkuWLIlCoRCf/vSn44033ojvfOc78alPfSrmzp0bjzzySFx33XXx8ssvxy9+8YvD+VA6TF1dXZRKpaivr2/5WrFYjMsvvzzWrl0bP/nJT6JSqURdXV106tQpInbNW9z956NFoVCIYrEYq1atinPOOSfGjRvXct+4cePimmuuiX/6p3+KcePGxXvf+96W+zZv3hzFYvGQLojdo0ePGDJkSDQ0NMSWLVviIx/5SIwaNSp+9atfxeTJk+Nf/uVf4v77748xY8bE9u3bY9OmTXHeeee1e8SzXCpHTVVNlH/3b/eZtU/HzQtuji+d/aU4rfe74ievPhDjTxkfY04a2/I9lUolKlGJKEebR3YbGxujoaEhevbsGWvXrj3mL5jNkXOw59vD8Yb2UC1YsCDOOfe8mP/E43tF4FNPPRXnnHteLFiwoMO32+oA7NK1GMd1KsbqzZtie9P2qKopRbFmVwSWy+VYsWJFlMvlKJfLUahpjuO67DzqKhsOt/bOAbz11lujUChEqVSKurq6OOmkk2L48OExffr02LZtW/zgBz+IcrkcTU1N8eijj8b48eNj1apVsXTp0g5/sezVq1dMmDCh5RDjoVixYkV85CMfiebm5pgxY8Ye99XU1MSkSbvOGJ03b15cfPHFMXLkyJb7S6XSURcC/fv3j8ceeyyeffbZWLZsWfzBH/xBy33vf//7Y+PGjfHDH/4w7r333paRwHK53DIS2B4vv/xy3HTTTXHZZZfF3XffHRdeeGEsXrw43vve98bUqVNj1qxZcf/990fErkvBrFmzJiqVSpxyyinxpS99qV0/w9W/XR0j+4+M+s3LYlD3QTF+4Pvj31/89/jXF/41zup7VjSXm+NDp34oCvH/X0w37tgYtdW1UdxebPPJSs3NzfHCCy/E6NGjY+TIkbF48eJDOlwPx5IxY8bE/Cce3ysCd8ffvsKwI7Q6ADfv3BZb3twaxZpSVB1XjqrfjQBWVe39n7RYVYrqTtuP2EcEwZHW1jmA/fv3jy5dusTKlSvjoosuine/+93Rp0+f+OQnPxkNDQ0tn4ZxySWXxBlnnBG9e/eOKVOmxC233BJLly7t0H0vFApx1llnxYgRI+KJJ544pDdy3/3udw94f+fOnePqq6+OhoaGmD59eru383a1tbUxcuTIvSJi8ODB7R4B2D3yt/tkndmzZ+9xf6FQiMsvvzy2b98ed911V5x11ll7jQS2x/bt22Pp0qUtn1rSrVu3uOCCC+Lv//7vY9CgQfHrX/86CoVCnHLKKXHppZfGmjVrora2NjZv3hxLlixp1zZ//vOfxye+9Im456V74rwB50e347rFladdGTctuCnmLJsT408ZH2f3G7fH9/yfFXNjVO9R8ezTz7brBJ+mpqZ4/vnnY/To0TF8+PBYvHjxUfcGAA6Xt0dgRBzW+ItoQwC+Wd4WxdrmXeFXVY6q6lJUVZeiWF2KSqUS/fv3b3nH/srW1dGp03bv4EinvXMAd58FfNttt8WMGTOiR48eceONN8Z9990XS5YsicGDB8eKFSvitttui8997nOxYMGCuP3221v9AllbWxtDhw496MT8gQMHxoYNG+Ib3/hGTJw4MSZPnhwvv/xyqx9/W7z++uvRs2fPOOGEE+Laa6+Nv/3bv23X9fnebvcJaPv7hI/2nrH7ox/9aI/5dOVyeY8RwEqlElVVVTFx4sRYt25d3HPPPXHvvffusXx7bdq0KY477rjYtGlTrF69Oj74wQ/GiSeeGI8++miMHj06TjvttPjoRz8a3bt3jyeeeCI6d+7crhNOdnvyySfj6s1XR1VVVcxePDuuGHlFXDBwfPzf138da99cExfWXdQy9y8iYummpfHAqw/EF9/zxfjn6f/c7u2+dSRw1KhR8dJLL4lA0nhrBEbEYY2/iDYEYHVtKSrV5aiq2hV9xapSVFeXo1jV3HLod/evMQNGRt/Xjo/ice2/DAEci9o7B/DtZwFv2LAh5s6dG1OmTIktW7bEFVdcEffdd1+MGTMmzj333Pjrv/7rVr/BampqilWrVrX6I8/mz58f27dvjzvvvDMeeeSRA17nrr0ee+yx+O53vxvHH398DBo0KEaMGBFjx46N1atXt1xsub2WL1/eruv8Hczu57d9efXVV+P73/9+DBw4MIYMGRLnnXderFq1qsM+FWP16tXR3NwcZ555Zvzbv/1bfOhDH4qHH344xo4dG7169YolS5bE7bffHpdddlk89NBDcdVVV8Xjjz/e7u01NDTEzBkzY8r/mBI3Pn1jdK3pGhcPvji+fu7X91iuUqnEq5tfjVueuSX+5F1/Ei88+kI8+eSTh/RYm5qaYtGiRTFo0KBDWg+H5lg9oYLWa3UAdupciKYoRaG6Oap/F4FVVbsOAe9+YiyVSi1PkP369fPOjXQ68rOA/+u//iu6desW119/fXTt2jUGDhwYW7dujX/8x3+MRYsWtXo969ati69//evtekJfuXJlm/f7YJYuXRozZ86MrVu3xtatW2Pt2rXx5JNPRqFQOCZfTDZu3Bjf+973YtGiRfHcc89FxK7r9nXkZPOtW7fGV77ylZg0aVKcfvrp8corr8Rdd90Vd955ZxSLxSiVSvHud787Jk2aFNdcc03Mnz8/7rrrrkPa5sMPPxx9+/aNaZOnxe2Lbo95Kx+N8wacFyNPGBXFQiG2NG2NR197JBZvXByXj7g84uWIm266qUOe95uammLp0qXH5L+H3xd+9u+8t875iziKDgFXitujqqpp12Hf4u7Dv81RVdx1CHjlypUth4D79Omz63IAApCk2jIH8NRTT93nJx4sX748br311njggQfi+uuvj5/97Gcxf/78dn2KxuH8v7h9e+unezQ2Nsbs2bNjzZo1e913KC84nTp1ipEjR7b5cdbV1R1SqJVKpZg1a9ZeQd6en/fB/r0sWrQovvjFL0b37t2jurq6ZRu733Q/99xz8fGPfzwaGxtbdRLGjh07DnhYulKpxJ133hkbNmyIP/30n8aWE7bEr377q3jit0/EjtKO6N25d5w74NyYcOqEeGD2AzFr1qwO/Zg/AUIm+zrhY18nhnSkVgVgISKK1c0RVc1RXVOKYrE5ilW7RgCLVeVobm6OHTt2tATg7guwCkCyaescwPr6+vjABz4Q48eP3+PrlUolZs6cGYsWLYpVq1bFokWLYsWKFYf1I9Taqy1nfN57773x9NNPd+j2K5VKNDU1xZ//+Z+36/sPZZR23rx5HXKYt1wut/rEif2dTFKpVFo+E7g1Wru9n/70pzFv3rw4//zzY8yYMfG+Ie+LTp07xbq16+KZ2c/Et3/27ZYzj4G229/Zvvs7O7ijtCoAKxFx44WTY8Mb66NcqbRc72/371U1tdGnZ68olytRLpeiqVSKUjmiVDn6rrcDh1Nb5wD+4Ac/aNV6W7vc0e5Q54fty/Lly2Pq1Kkdvt7WWLhw4RHZ7jtt69atMWfOnJgzZ86R3hU4oKPxOn8HM3bs2P1eCHp3BB6xC0Ff/KE/jKampujZfe8Pqz+Yz1/XcZ8jCkejLl26RPfu3VtuNzU17XE7Iva6DbRfTU3Nkd4FjkLH6ij0wfZ7zJgxh+WxtSoAa2pq/IeDfejRo0dcccUVR3o3IJ2+ffse6V2AY1qrTwIB9jZixIgYMWLEkd4NAGgTF+oDAEhGAAIAJCMAAQCSEYAAAMkIQACAZAQgAEAyAhAAIIlXXnklIgQgAEA6AhAAIBkBCACQjAAEAEhGAAIAJCMAAQCSEYAAAMkIQACAZAQgAEAyAhAAIBkBCACQjAAEAEhGAAIAJCMAAQCSEYAAAMkIQACAZAQgAEAyAhAAIBkBCACQjAAEAEhGAAIAJCMAAQCSEYAAAMkIQACAZAQgAEAyAhAAIBkBCACQjAAEAEhGAAIAJCMAAQCSEYAAAMkIQACAZAQgAEAyAhAAIBkBCACQjAAEAEhGAAIAJCMAAQCSEYAAAMkIQACAZAQgAEAyAhAAIBkBCACQjAAEAEhGAAIAJCMAAQCSEYAAAMkIQACAZAQgAEAyAhAAIBkBCACQjAAEAEhGAAIAJCMAAQCSEYAAAMkIQACAZAQgAEAyAhAAIBkBCACQjAAEAEhGAAIAJCMAAQCSEYAAAMkIQACAZAQgAEAyAhAAIBkBCACQjAAEAEhGAAIAJCMAAQCSEYAAAMkIQACAZAQgAEAyAhAAIBkBCACQjAAEAEhGAAIAJCMAAQCSEYAAAMkIQACAZAQgAEAyAhAAIBkBCACQjAAEAEhGAAIAJCMAAQCSEYAAAMkIQACAZAQgAEAyAhAAIBkBCACQjAAEAEhGAAIAJCMAAQCSEYAAAMkIQACAZAQgAEAyAhAAIBkBCACQjAAEAEhGAAIAJCMAAQCSEYAAAMkIQACAZAQgAEAyAhAAIBkBCACQjAAEAEhGAAIAJCMAAQCSEYAAAMkIQACAZAQgAEAyAhAAIBkBCACQjAAEAEhGAAIAJCMAAQCSEYAAAMkIQACAZAQgAEAyAhAAIBkBCACQjAAEAEhGAAIAJCMAAQCSEYAAAMkIQACAZAQgAEAyAhAAIBkBCACQjAAEAEhGAAIAJCMAAQCSEYAAAMkIQACAZAQgAEAyAhAAIBkBCACQjAAEAEhGAAIAJCMAAQCSEYAAAMkIQACAZAQgAEAyAhAAIBkBCACQjAAEAEhGAAIAJCMAAQCSEYAAAMkIQACAZAQgAEAyAhAAIBkBCACQjAAEAEhGAAIAJCMAAQCSEYAAAMkIQACAZAQgAEAyAhAAIBkBCACQjAAEAEhGAAIAJCMAAQCSEYAAAMkIQACAZAQgAEAyAhAAIBkBCACQjAAEAEhGAAIAJCMAAQCSEYAAAMkIQACAZAQgAEAyAhAAIBkBCACQjAAEAEhGAAIAJCMAAQCSEYAAAMkIQACAZAQgAEAyAhAAIBkBCACQjAAEAEhGAAIAJCMAAQCSEYAAAMkIQACAZAQgAEAyAhAAIBkBCACQjAAEAEhGAAIAJCMAAQCSEYAAAMkIQACAZAQgAEAyAhAAIBkBCACQjAAEAEhGAAIAJCMAAQCSEYAAAMkIQACAZAQgAEAyAhAAIBkBCACQjAAEAEhGAAIAJCMAAQCSEYAAAMkIQACAZAQgAEAyAhAAIBkBCACQjAAEAEhGAAIAJCMAAQCSEYAAAMkIQACAZAQgAEAyAhAAIBkBCACQjAAEAEhGAAIAJCMAAQCSEYAAAMkIQACAZAQgAEAyAhAAIBkBCACQjAAEAEhGAAIAJCMAAQCSEYAAAMkIQACAZAQgAEAyAhAAIBkBCACQjAAEAEhGAAIAJCMAAQCSEYAAAMkIQACAZAQgAEAyAhAAIBkBCACQjAAEAEhGAAIAJCMAAQCSEYAAAMkIQACAZAQgAEAyAhAAIBkBCACQjAAEAEhGAAIAJCMAAQCSEYAAAMkIQACAZAQgAEAyAhAAIBkBCACQjAAEAEhGAAIAJCMAAQCSEYAAAMkIQACAZAQgAEAyAhAAIBkBCACQjAAEAEhGAAIAJCMAAQCSEYAAAMkIQACAZAQgAEAyAhAAIBkBCACQjAAEAEhGAAIAJCMAAQCSEYAAAMkIQACAZAQgAEAyAhAAIBkBCACQjAAEAEhGAAIAJCMAAQCSEYAAAMkIQACAZAQgAEAyAhAAIBkBCACQjAAEAEhGAAIAJCMAAQCSEYAAAMkIQACAZAQgAEAyAhAAIBkBCACQjAAEAEhGAAIAJCMAAQCSEYAAAMkIQACAZAQgAEAyAhAAIBkBCACQjAAEAEhGAAIAJCMAAQCSEYAAAMkIQACAZAQgAEAyAhAAIBkBCACQjAAEAEhGAAIAJCMAAQCSEYAAAMkIQACAZAQgAEAyAhAAIBkBCACQjAAEAEhGAAIAJCMAAQCSEYAAAMkIQACAZAQgAEAyAhAAIBkBCACQjAAEAEhGAAIAJCMAAQCSEYAAAMkIQACAZAQgAEAyAhAAIBkBCACQjAAEAEhGAAIAJCMAAQCSEYAAAMkIQACAZAQgAEAyAhAAIBkBCACQjAAEAEhGAAIAJCMAAQCSEYAAAMkIQACAZAQgAEAyAhAAIBkBCACQjAAEAEhGAAIAJCMAAQCSEYAAAMkIQACAZAQgAEAyAhAAIBkBCACQjAAEAEhGAAIAJCMAAQCSEYAAAMkIQACAZAQgAEAyAhAAIBkBCACQjAAEAEhGAAIAJCMAAQCSEYAAAMkIQACAZAQgAEAyAhAAIBkBCACQjAAEAEhGAAIAJCMAAQCSEYAAAMkIQACAZAQgAEAyAhAAIBkBCACQjAAEAEhGAAIAJCMAAQCSEYAAAMkIQACAZAQgAEAyAhAAIBkBCACQjAAEAEhGAAIAJCMAAQCSEYAAAMkIQACAZAQgAEAyAhAAIBkBCACQjAAEAEhGAAIAJCMAAQCSEYAAAMkIQACAZAQgAEAyAhAAIBkBCACQjAAEAEhGAAIAJCMAAQCSEYAAAMkIQACAZAQgAEAyAhAAIBkBCACQjAAEAEhGAAIAJCMAAQCSEYAAAMkIQACAZAQgAEAyAhAAIBkBCACQjAAEAEhGAAIAJCMAAQCSEYAAAMkIQACAZAQgAEAyAhAAIBkBCACQjAAEAEhGAAIAJCMAAQCSEYAAAMkIQACAZAQgAEAyAhAAIBkBCACQjAAEAEhGAAIAJCMAAQCSEYAAAMkIQACAZAQgAEAyAhAAIBkBCACQjAAEAEhGAAIAJCMAAQCSEYAAAMkIQACAZAQgAEAyAhAAIBkBCACQjAAEAEhGAAIAJCMAAQCSEYAAAMkIQACAZAQgAEAyAhAAIBkBCACQjAAEAEhGAAIAJCMAAQCSEYAAAMkIQACAZAQgAEAyAhAAIBkBCACQTPXuP1QqlSO5HwAAvENaAnDrpk0RIhAA4PdXoRARbwnAqFSMAgIA/B4r/O53cwABAJIRgAAAyQhAAIBkBCAAQDICEAAgGQEIAJCMAAQASEYAAgAkIwABAJIRgAAAyQhAAIBkBCAAQDICEAAgGQEIAJCMAAQASEYAAgAkIwABAJIRgAAAyQhAAIBkBCAAQDICEAAgGQEIAJCMAAQASEYAAgAkIwABAJIRgAAAyQhAAIBkqlv+VChE4QjuCAAAh1lhV+0Vhg4dWjnCuwIAwDuourGxMSIiKpXKHr+/3f6+DgDA0alQKOzzdnWhUIhKpbLXArvtDr/93Q8AwNHtrR1XKBTi/wF6D/a4dXOUngAAAABJRU5ErkJggg==;" parent="NUu4eacmFacFfqtwliKr-78" vertex="1">
          <mxGeometry width="514.81" height="440" as="geometry" />
        </mxCell>
        <mxCell id="NUu4eacmFacFfqtwliKr-80" value="Validation Box" style="rounded=0;whiteSpace=wrap;html=1;strokeColor=none;fontSize=25;" parent="NUu4eacmFacFfqtwliKr-78" vertex="1">
          <mxGeometry x="102.4" y="20" width="310" height="60" as="geometry" />
        </mxCell>
        <mxCell id="NUu4eacmFacFfqtwliKr-81" value="Connect PLC" style="rounded=1;whiteSpace=wrap;html=1;fillColor=#d5e8d4;strokeColor=#82b366;" parent="NUu4eacmFacFfqtwliKr-78" vertex="1">
          <mxGeometry x="110" y="90" width="129" height="50" as="geometry" />
        </mxCell>
        <mxCell id="NUu4eacmFacFfqtwliKr-82" value="Activate TwinCAT" style="rounded=1;whiteSpace=wrap;html=1;fillColor=#d5e8d4;strokeColor=#82b366;" parent="NUu4eacmFacFfqtwliKr-78" vertex="1">
          <mxGeometry x="270" y="90" width="129" height="50" as="geometry" />
        </mxCell>
        <mxCell id="NUu4eacmFacFfqtwliKr-83" value="Enable PG" style="rounded=1;whiteSpace=wrap;html=1;fillColor=#d5e8d4;strokeColor=#82b366;" parent="NUu4eacmFacFfqtwliKr-78" vertex="1">
          <mxGeometry x="110" y="150" width="129" height="50" as="geometry" />
        </mxCell>
        <mxCell id="NUu4eacmFacFfqtwliKr-84" value="Disable PG" style="rounded=1;whiteSpace=wrap;html=1;fillColor=#f8cecc;strokeColor=#b85450;" parent="NUu4eacmFacFfqtwliKr-78" vertex="1">
          <mxGeometry x="270" y="150" width="129" height="50" as="geometry" />
        </mxCell>
        <mxCell id="NUu4eacmFacFfqtwliKr-85" value="Enable MPC" style="rounded=1;whiteSpace=wrap;html=1;fillColor=#f8cecc;strokeColor=#b85450;" parent="NUu4eacmFacFfqtwliKr-78" vertex="1">
          <mxGeometry x="110" y="210" width="129" height="50" as="geometry" />
        </mxCell>
        <mxCell id="NUu4eacmFacFfqtwliKr-86" value="Disable MPC" style="rounded=1;whiteSpace=wrap;html=1;fillColor=#f8cecc;strokeColor=#b85450;" parent="NUu4eacmFacFfqtwliKr-78" vertex="1">
          <mxGeometry x="270" y="210" width="129" height="50" as="geometry" />
        </mxCell>
        <mxCell id="NUu4eacmFacFfqtwliKr-87" value="Foreline Pressure Module" style="rounded=1;whiteSpace=wrap;html=1;fillColor=#d5e8d4;strokeColor=#82b366;" parent="NUu4eacmFacFfqtwliKr-78" vertex="1">
          <mxGeometry x="110" y="270" width="290" height="60" as="geometry" />
        </mxCell>
        <mxCell id="NUu4eacmFacFfqtwliKr-88" value="Manifold Pressure Controller" style="rounded=1;whiteSpace=wrap;html=1;fillColor=#647687;fontColor=#ffffff;strokeColor=#314354;" parent="NUu4eacmFacFfqtwliKr-78" vertex="1">
          <mxGeometry x="110" y="340" width="290" height="60" as="geometry" />
        </mxCell>
        <mxCell id="NUu4eacmFacFfqtwliKr-89" value="NetID : 5.108.227.236.1.1" style="text;strokeColor=none;align=center;fillColor=none;html=1;verticalAlign=middle;whiteSpace=wrap;rounded=0;" parent="NUu4eacmFacFfqtwliKr-78" vertex="1">
          <mxGeometry x="170" y="415" width="140" height="20" as="geometry" />
        </mxCell>
        <mxCell id="NUu4eacmFacFfqtwliKr-90" value="Communication Status :&amp;nbsp;" style="text;html=1;align=center;verticalAlign=middle;resizable=0;points=[];autosize=1;strokeColor=none;fillColor=none;" parent="NUu4eacmFacFfqtwliKr-78" vertex="1">
          <mxGeometry x="349" y="410" width="150" height="30" as="geometry" />
        </mxCell>
        <mxCell id="NUu4eacmFacFfqtwliKr-91" value="" style="ellipse;whiteSpace=wrap;html=1;fillColor=#d5e8d4;strokeColor=#82b366;" parent="NUu4eacmFacFfqtwliKr-78" vertex="1">
          <mxGeometry x="489" y="420" width="10" height="10" as="geometry" />
        </mxCell>
        <mxCell id="NUu4eacmFacFfqtwliKr-92" value="Main Window" style="text;html=1;align=center;verticalAlign=middle;resizable=0;points=[];autosize=1;strokeColor=none;fillColor=none;" parent="NUu4eacmFacFfqtwliKr-78" vertex="1">
          <mxGeometry x="16.409999999999997" y="-4" width="100" height="30" as="geometry" />
        </mxCell>
        <mxCell id="NUu4eacmFacFfqtwliKr-97" value="&lt;font style=&quot;font-size: 25px;&quot;&gt;Enable to test FPG(Foreline Pressure Gauge)&lt;/font&gt;" style="text;strokeColor=none;align=center;fillColor=none;html=1;verticalAlign=middle;whiteSpace=wrap;rounded=0;" parent="NUu4eacmFacFfqtwliKr-115" vertex="1">
          <mxGeometry x="-7.600000000000001" y="516" width="530" height="30" as="geometry" />
        </mxCell>
        <mxCell id="NUu4eacmFacFfqtwliKr-118" style="edgeStyle=orthogonalEdgeStyle;rounded=0;orthogonalLoop=1;jettySize=auto;html=1;exitX=0.5;exitY=1;exitDx=0;exitDy=0;" parent="NUu4eacmFacFfqtwliKr-122" edge="1">
          <mxGeometry relative="1" as="geometry">
            <mxPoint x="643.4099999999995" y="616" as="sourcePoint" />
            <mxPoint x="643.4099999999995" y="616" as="targetPoint" />
          </mxGeometry>
        </mxCell>
        <mxCell id="NUu4eacmFacFfqtwliKr-121" value="&lt;b&gt;&lt;font style=&quot;font-size: 50px;&quot;&gt;Main Window&lt;/font&gt;&lt;/b&gt;" style="text;strokeColor=none;align=center;fillColor=none;html=1;verticalAlign=middle;whiteSpace=wrap;rounded=0;" parent="1" vertex="1">
          <mxGeometry x="143" y="-1000" width="540" height="70" as="geometry" />
        </mxCell>
        <mxCell id="NUu4eacmFacFfqtwliKr-123" value="FPM" style="text;strokeColor=none;align=center;fillColor=none;html=1;verticalAlign=middle;whiteSpace=wrap;rounded=0;fontSize=50;fontStyle=1" parent="1" vertex="1">
          <mxGeometry x="188" y="530" width="450" height="30" as="geometry" />
        </mxCell>
        <mxCell id="NUu4eacmFacFfqtwliKr-138" value="" style="group" parent="1" vertex="1" connectable="0">
          <mxGeometry x="-420" y="660" width="642" height="545" as="geometry" />
        </mxCell>
        <mxCell id="NUu4eacmFacFfqtwliKr-124" value="" style="shape=image;verticalLabelPosition=bottom;labelBackgroundColor=default;verticalAlign=top;aspect=fixed;imageAspect=0;image=data:image/png,iVBORw0KGgoAAAANSUhEUgAAAoIAAAIhCAYAAADaeNtVAAAfXklEQVR4nO3de5SV9Xno8Wfv2eMwclUEEVAG5WY0yyhIY9RKrl4Sl4aaRhtX00MNWdQSzeXIadokPSdJc6KtsakNMYo2RbtaNdpGE4yGE0UNORE1qHgBkYug3ISRizMws/c+f5CZI3KbGQYRn89nLZbs2e/s993jsPd3/97f+76FIUOGVHv06BFA1xx55JExfPjwqFQqB3pTII36+vp4/vnnY/Xq1Qd6U+Cg1dzcHKUDvRHwbrBy5cpYsmTJgd4MSGP48OEHehPgoFetVqNUKpWiWCxGRMTChQsP8CbBweexxx6Lq666qv123759o2/fvrF8+fL22zU1NbF+/fpdfn9DQ0PU1NR0aF1Lly6Ncrm87xv9NurM89uVJUuW7HW0tVAoxLHHHtvldVQqlQ6F/Fufy97+f3R2+YNB//79o1evXlEsFmPLli2xbt26AzYaft1118Wpp556QNYNB7NRo0ZFRESpVIrSsGHDYtOmTQd4k+DdY9u2bbFly5b22y0tLVGtVne7/Oc///l43/vet9fHrVar8dWvfjV+97vfdct2dqdCobDb53jFFVdEjx49orm5udOP29DQENOmTdvrh9Rhw4bFP/zDP8TSpUv3+LPelbq6uiiXyzF16tS9LnvhhRfGSSedFI2NjRERcfvtt8fcuXN3u/z48ePjtNNOi4iIQYMGxS233BL333//bpff089xf+jo+kqlUowfPz4+c+lnYthxw6JaV41KsRK15dp4demrMfuB2TFr1qzYsGHD27DVwL7q1atXREQMHDgwSm/niw5k0NTUFE1NTdGnT5/o169f+8jgu1m/fv1iy5YtsW3btp3uK5fLMX369Hj22Wc79ZilUim+853vdHj5pUuXxl/91V9FS0tLp9YzZsyYuOyyyzq8/B133BELFy6MmpqaqFQqcdxxx+122SeffDLmz58fS5cujb/8y7/c4+MWi8Xo379/rF27do/LNTQ0RENDQ0REzJkzZ4fRuH79+sWHP/zhWLFiRfzud7+LrVu37vGxDjvssNi4cWO0trbudpnDDz88rrjiihh55si4f+n9MfPpmVEqbJ9V1Fppjf6H9o8PXfKhOP+C8+Pq/311PPnkk3tcJ/DOUa1Wo/TKK69EqWSqIHS3lpaWHUYG92T58uXxxhtv7HGZSqWy12X25Oijj46ePXt2aNm1a9fGa6+91uHHLhQKUSgUdnt/uVzeY2zsSrVa7fQux9bW1k6vp7PLVyqV+MQnPrHDyOCetI0EduS5tE3T2Z3JkyfHxIkTY/369VGpVOLhhx/e4f7hw4fHtGnTYunSpdHS0hJf/epXY9myZbt9vD39P4vYfkDG17/x9dgybEtcO+/auGjUp+KS0X8SAw8dGIVCIbaWt8bjq+bFT1+6Jwb3Oiq+/q2vx9emfS2eeeaZvT7Xjqitre102AN71/Ze0tjYGKWmpqaor68/wJsE7x5vniPY1NS01zmC1Wo1brzxxg7t8u3q/LKBAwfGNddcE6tWrdrrsnV1ddHU1BRf+tKXol+/fjFhwoTYtGlTzJ49u0vr3tXj722kal/tbc5gR+cEvtWyZcuiqakpIraPDO5pN2+bK664IiIiXnnllU5H55sNGjQoLrnkkvj2t78dJ5xwQpx66qlRU1MTgwcPjtra2vZwb2xsjOuvvz4++tGPxqRJk+Ib3/hGl9ZXKBRi8uTJUR1RjftfuD++efq3YnDPwTss06OmRwzqeVT82Ql/Fr9c9kD8ZNVP4m++9jcx6b9N2qcPLRHb5yKOGDEi5s+f36VpBcDutb0Wdeqo4ek/vKHLKxx2zDFx3nnndvn74WDS2TmCEdsD76ijjtrliN3LL78cW7ZsiWOOOSbWrVvXpTfYUqkU69ati2nTpu01wkaMGBFf/OIXY/To0TF58uQol8tx6KGHdlsI/vEf/3Hce++9+3U+WUNDQ/ucwbeOxPXo0SMqlcped9Xuyt133x0RESeffHL7KOchhxyyy13ibdrW/x//8R+dXt+bDRo0KDZs2BA1NTVx6aWXxuzZs2P69OnR0NAQ27Zti1KpFM8991wsXLgwPve5z8Wdd94ZEydO7PL6Ro4cGed88pz4uyf+Lv7ifZfvFIEREUs3Lo3LZ/9FnDn0D+NLY78U/2vu/4xNQzfFH/3RH8XMmTO7vO7+/fvHqFGjYvHixSIQ9qNqtdrxEBwybEQMP3b3c2HebN2aV3e4PfeROUKQNLo6R/Dss8+OE088caev33jjjbFgwYKYPHly3H777fHUU0919ybvZMCAATF16tT4z//8z3j55ZfjC1/4Qrc99imnnBINDQ3xve99LzZv3txtj/tWu5szOGbMmPjc5z7XbeuZOHFi/PrXv97vc0Hb5iTW1dXFli1bYty4cXHffffFddddF62trTFo0KCYMmVK1NfXt4fp3nY178npp58eTzQ+EaMOGx3vOfw9u1zm5y/9LMqVcpzTcE7Ul+rjghEXxp0L74xPnfWpuP3227s08nvEEUfE6NGjY/HixbFmzZoubz/QMZ06WKSuWBs7LP77G9WIGDniqPbTPAweeHgcc8wxUalUolwux9xH5nTvVsNBoDNzBCMibrrppl1+vVevXvGJT3wijjvuuDjnnHOipqYm5s+fv19P2bF169a4+uqrY/ny5TFy5MhufexCoRAf+MAHYu3atTFjxoz9OgdsV3MG92X37JAhQ3YakR00aFBceeWVcfXVV+9x1/ugQYNiy5YtXTpLw+DBg2PSpEmxevXqqK+vjyOOOCJmzJgRP/3pTyNi+890yJAhMXz48Ni6dWs0NjbGxo0bo1+/fnHRRRfFXXfd1enfl5Ped1L8es2v49yGXX+If7Hxxfj5kp/HmUPPjJMHnrz9ewacFLc8c3MMGjMoevfu3ekQ7N+/f4wcOTIWLVokAuFt0qmjRP77jx+MYqkaUVOOYm05CqXK7/+0xg8HXBy1tbVRqVSiWq3GfXNfiLkLX47Pf3TXnyTh3apv377Rr1+/9vlke5sj2KbtnHNvPtfckCFDYtq0abF58+b23YLTpk2LBx98MG644Yb9dqqRjRs3to9w7e1AkK46//zzY9u2bXHLLbe8radM2RcXXXRRPPfccxGxPc7azhF4/PHHx5QpU+K73/1uvPHGGzucP7BtDvanP/3peOaZZ7q0i33AgAExYsSI+Pa3v91+sMivfvWrKBaLUalU4qyzzoqpU6fGrbfeGhs3bowpU6bEkUceGffdd19ccMEF7bu0O6P/gP6xatWqGFA/ICIiVmxeEc2tTTG877FRLBRj1pJZsbW8Nc479rwoFraPPPYo9YhqtRrlQ8pRV1fXqfX17t07TjzxxFi4cKEIpMs6+lr1TnvNKRQKMW/evBg7duwu73/88cdj3Lhx+2W7OxWCvXoWo1RXiEJNRKFUiEKpEsVSOaJm+xvHUUcd1X6k3/yXX4seh0esW7eu2zca3sm2bdu2wy7PjswRjIg477zzYsSIETF9+vRYtGhRFAqF+OxnPxuvvfZafO9734vPfOYzMXv27HjwwQfjyiuvjBdeeCF+9atf7c+n0m0aGhqiXC7H0qVL279WLBbjwgsvjDVr1sTPfvazqFar0dDQEG2XvCyVSvFOu/xloVCIYrEYK1eujNNOOy3Gjx/fft/48ePj8ssvj3/6p3+K8ePHx/vf//72+zZu3BjFYnGfTqzdt2/fOPbYY6OxsTE2bdoUH/vYx2LMmDHxm9/8JiZPnhz/8i//Evfcc0+MHTs2mpub4/XXX48zzjijyyOglXIlamtqo/L7390n1zwR1827Lr5y6lfi+P7viZ+9dG9MOHpCjD1yXPv3VKvVqEY1ohKdHultamqKxsbG6NevX6xZs+agP/E2B87eXm/3xwfbfTVv3rw47fQzYu6jj+wUg48//nicdvoZMW/evP2y7k6FYM9exTikRzFWbXw9mluao6a2HMXa7TFYqVRi+fLlUalUolKpRKG2NQ7pue0dV92wv3V1juANN9wQhUIhyuVyNDQ0xJFHHhkjR46M6dOnx5YtW+JHP/pRVCqVaGlpiYceeigmTJgQK1eujMWLF3f7m+bhhx8eEydObN/1uC+WL18eH/vYx6K1tTVuvPHGHe6rra2NSZO2H2E6Z86cOPfcc2P06NHt95fL5XdcEAwePDgefvjheOqpp2LJkiXxB3/wB+33ffCDH4wNGzbEj3/847jrrrvaRwYrlco+nZ3hhRdeiGuvvTYuuOCCuP322+Pss8+OhQsXxvvf//6YOnVqzJw5M+65556I2H4KmdWrV0e1Wo2jjz46vvKVr3TpZ7jqlVUxevDoWLpxSQzrMywmDP1g/Ptz/x7/+uy/xikDT4nWSmt85JiPRCH+/5vqhq0boq5UF8XmYqcPamptbY1nn302TjjhhBg9enQsXLhwn3bjw8Fk7NixMffRR3aKwbYI3FUgdpdOheDGbVti0xubo1hbjppDKlHz+xHBmpqd/7EWa8pR6tF8wC49BAdaZ+cIDh48OHr27BkrVqyIc845J9773vfGgAED4tOf/nQ0Nja2X13jvPPOi5NOOin69+8fU6ZMieuvvz4WL17crdteKBTilFNOiVGjRsWjjz66Tx/ovv/97+/x/vr6+rjsssuisbExpk+f3uX1vFVdXV2MHj16p5gYPnx4l0cE2kYC2w7queOOO3a4v1AoxIUXXhjNzc1x2223xSmnnLLTyGBXNDc3x+LFi9uvgtK7d+8466yz4u///u9j2LBh8dvf/jYKhUIcffTRcf7558fq1aujrq4uNm7cGIsWLerSOn/5y1/Gp77yqbjz+TvjjCFnRu9Desclx18S1867NmYtmRUTjp4Qpw4av8P3/J/ls2NM/zHx1BNPdelAoJaWlnjmmWfihBNOiJEjR8bChQvfcR8EYH95awxGxH6PwE4dNRwR8UZlSxTrWrcHYE0lakrlqCmVo1gqR7VajcGDB7d/gn9x86ro0aPZJzrS6eocwbajhm+66aa48cYbo2/fvnHNNdfE3XffHYsWLYrhw4fH8uXL46abboovfOELMW/evLj55ps7/EZZV1cXxx133F4n8A8dOjTWr18f3/rWt+Kiiy6KyZMnxwsvvNDh598Zr776avTr1y8OO+ywuOKKK+Jv//Zvu3R+v7dqO1Btd1cM6eoRvj/5yU92mG9XqVR2GBGsVqtRU1MTF110UaxduzbuvPPOuOuuu3ZYvqtef/31OOSQQ+L111+PVatWxYc//OE44ogj4qGHHooTTjghjj/++Pj4xz8effr0iUcffTTq6+v36fKhjz32WFy28bKoqamJOxbeERePvjjOGjoh/u+rv401b6yOsxvOaZ8bGBGx+PXFce9L98aX3/fl+Ofp/9zl9b55ZHDMmDHx/PPPi0HSeHMMRsR+jcA2nQrBUl05qqVK1NRsj79iTTlKpUoUa1rbdwm3/Rk7ZHQMfPnQKB7S9dMXwMGoq3ME33rU8Pr162P27NkxZcqU2LRpU1x88cVx9913x9ixY+P000+Pv/7rv+7wB62WlpZYuXJlhy+lNnfu3Ghubo5bb701HnzwwT2eJ6+rHn744fj+978fhx56aAwbNixGjRoV48aNi1WrVrWftLmrli1b1qXzBO5N2+vbrrz00kvxwx/+MIYOHRrHHntsnHHGGbFy5cpuu8rGqlWrorW1NU4++eT4t3/7t/jIRz4SDzzwQIwbNy4OP/zwWLRoUdx8881xwQUXxP333x+XXnppPPLII11eX2NjY8y4cUZM+R9T4ponroletb3i3OHnxjdP/+YOy1Wr1Xhp40tx/ZPXx5+850/i2Yeejccee2yfnmtLS0ssWLAghg0btk+Pw745WA+8oHM6FYI96gvREuUolFqj9PsYrKnZvmu47QWyXC63v1AOGjTIJznS6c5rDf/Xf/1X9O7dO6666qro1atXDB06NDZv3hz/+I//GAsWLOjw46xduza++c1vdumFfcWKFZ3e7r1ZvHhxzJgxIzZv3hybN2+ONWvWxGOPPRaFQuGgfFPZsGFD/OAHP4gFCxbE008/HRHbz/vXnZPSN2/eHF/72tdi0qRJceKJJ8aLL74Yt912W9x6661RLBajXC7He9/73pg0aVJcfvnlMXfu3Ljtttv2aZ0PPPBADBw4MKZNnhY3L7g55qx4KM4YckaMPmxMFAuF2NSyOR56+cFYuGFhXDjqwogXIq699tpued1vaWmJxYsXH5S/D+8WfvZvvzfPCYzY/7uGIzoZgtVic9TUtGzfHVxs2y3cGjXF7buGV6xY0b5reMCAAdtPIyAESaozcwSPOeaYXV5BYdmyZXHDDTfEvffeG1dddVX84he/iLlz53bpqhz7899ic3PHp4E0NTXFHXfcEatXr97pvn154+nRo0eMHj2608+zoaFhn4KtXC7HzJkzdwrzrvy89/b7smDBgvjyl78cffr0iVKp1L6Otg/fTz/9dHzyk5+MpqamDh2ssXXr1j3urq5Wq3HrrbfG+vXr408/+6ex6bBN8ZtXfhOPvvJobC1vjf71/eP0IafHxGMmxr133BszZ87s1ssHChEy2dWBIbs6gKS7dTgECxFRLLVG1LRGqbYcxWJrFGu2jwgWayrR2toaW7dubQ/BthO5CkGy6ewcwaVLl8aHPvShmDBhwg5fr1arMWPGjFiwYEGsXLkyFixYEMuXL9+vl2brqs4cIXrXXXfFE0880a3rr1ar0dLSEn/+53/epe/fl1HbOXPmdMvu30ql0uEDLHZ30Em1Wm2/5nBHdHR9P//5z2POnDlx5plnxtixY+MDx34getT3iLVr1saTdzwZ3/3Fd9uPVAY6b3dHB+/uaOLuVOrdu3eHLkNUjYhrzp4c619bF5Vqtf18gW3/ramtiwH9Do9KpRqVSjlayuUoVyLK1Xfe+Xpgf+rsHMEf/ehHHXrcji73Trev88d2ZdmyZTF16tRuf9yOmD9//gFZ79tt8+bNMWvWrJg1a9aB3hTYo3fieQL3Zty4cbs9oXRbDHbnCaVra2sjYvuVq0pHHHFEhyZmn/uRP4yWlpbo16dnp1f4xSu77zql8E7Us2fP6NOnT/vtlpaWHW5HxE63ga5reyODNztYR6X3tt1jx47t1ufWdl7Tvn37dnzXcG1trX94sAt9+/aNiy+++EBvBqQzcODAA70JcNArHHXUUdVDDz00IiJefPHFA7w5AADsTyNGjIiI7VM+nOQPACApIQgAkJQQBABISggCACQlBAEAkhKCAABJCUEAgETefLpAIQgAkJQQBABISggCACQlBAEAkhKCAABJCUEAgKSEIABAUkIQACApIQgAkJQQBABISggCACQlBAEAkhKCAABJCUEAgKSEIABAUkIQACApIQgAkJQQBABISggCACQlBAEAkhKCAABJCUEAgKSEIABAUkIQACApIQgAkJQQBABISggCACQlBAEAkhKCAABJCUEAgKSEIABAUkIQACApIQgAkJQQBABISggCACQlBAEAkhKCAABJCUEAgKSEIABAUkIQACApIQgAkJQQBABISggCACQlBAEAkhKCAABJCUEAgKSEIABAUkIQACApIQgAkJQQBABISggCACQlBAEAkhKCAABJCUEAgKSEIABAUkIQACApIQgAkJQQBABISggCACQlBAEAkhKCAABJCUEAgKSEIABAUkIQACApIQgAkJQQBABISggCACQlBAEAkhKCAABJCUEAgKSEIABAUkIQACApIQgAkJQQBABISggCACQlBAEAkhKCAABJCUEAgKSEIABAUkIQACApIQgAkJQQBABISggCACQlBAEAkhKCAABJCUEAgKSEIABAUkIQACApIQgAkJQQBABISggCACQlBAEAkhKCAABJCUEAgKSEIABAUkIQACApIQgAkJQQBABISggCACQlBAEAkhKCAABJCUEAgKSEIABAUkIQACApIQgAkJQQBABISggCACQlBAEAkhKCAABJCUEAgKSEIABAUkIQACApIQgAkJQQBABISggCACQlBAEAkhKCAABJCUEAgKSEIABAUkIQACApIQgAkJQQBABISggCACQlBAEAkhKCAABJCUEAgKSEIABAUkIQACApIQgAkJQQBABISggCACQlBAEAkhKCAABJCUEAgKSEIABAUkIQACApIQgAkJQQBABISggCACQlBAEAkhKCAABJCUEAgKSEIABAUkIQACApIQgAkJQQBABISggCACQlBAEAkhKCAABJCUEAgKSEIABAUkIQACApIQgAkJQQBABISggCACQlBAEAkhKCAABJCUEAgKSEIABAUkIQACApIQgAkJQQBABISggCACQlBAEAkhKCAABJCUEAgKSEIABAUkIQACApIQgAkJQQBABISggCACQlBAEAkhKCAABJCUEAgKSEIABAUkIQACApIQgAkJQQBABISggCACQlBAEAkhKCAABJCUEAgKSEIABAUkIQACApIQgAkJQQBABISggCACQlBAEAkhKCAABJCUEAgKSEIABAUkIQACApIQgAkJQQBABISggCACQlBAEAkhKCAABJCUEAgKSEIABAUkIQACApIQgAkJQQBABISggCACQlBAEAkhKCAABJCUEAgKSEIABAUkIQACApIQgAkJQQBABISggCACQlBAEAkhKCAABJCUEAgKSEIABAUkIQACApIQgAkJQQBABISggCACQlBAEAkhKCAABJCUEAgKSEIABAUkIQACApIQgAkJQQBABISggCACQlBAEAkhKCAABJCUEAgKSEIABAUkIQACApIQgAkJQQBABISggCACQlBAEAkhKCAABJCUEAgKSEIABAUkIQACApIQgAkJQQBABISggCACQlBAEAkhKCAABJCUEAgKSEIABAUkIQACApIQgAkJQQBABISggCACQlBAEAkhKCAABJCUEAgKSEIABAUkIQACApIQgAkJQQBABISggCACQlBAEAkhKCAABJCUEAgKSEIABAUkIQACApIQgAkJQQBABISggCACQlBAEAkhKCAABJCUEAgKSEIABAUkIQACApIQgAkJQQBABISggCACQlBAEAkhKCAABJCUEAgKSEIABAUkIQACApIQgAkJQQBABISggCACQlBAEAkhKCAABJCUEAgKSEIABAUkIQACApIQgAkJQQBABISggCACQlBAEAkhKCAABJCUEAgKSEIABAUkIQACApIQgAkJQQBABISggCACQlBAEAkhKCAABJCUEAgKSEIABAUkIQACApIQgAkJQQBABISggCACQlBAEAkhKCAABJCUEAgKSEIABAUkIQACApIQgAkJQQBABISggCACQlBAEAkhKCAABJCUEAgKSEIABAUkIQACApIQgAkJQQBABISggCACQlBAEAkhKCAABJCUEAgKSEIABAUkIQACApIQgAkJQQBABISggCACQlBAEAkhKCAABJCUEAgKSEIABAUkIQACApIQgAkJQQBABISggCACQlBAEAkhKCAABJCUEAgKSEIABAUkIQACApIQgAkJQQBABISggCACQlBAEAkhKCAABJCUEAgKSEIABAUkIQACApIQgAkJQQBABISggCACQlBAEAkhKCAABJCUEAgKSEIABAUkIQACApIQgAkJQQBABISggCACQlBAEAkhKCAABJCUEAgKSEIABAUkIQACApIQgAkJQQBABISggCACQlBAEAkhKCAABJCUEAgKSEIABAUkIQACApIQgAkJQQBABISggCACQlBAEAkhKCAABJCUEAgKSEIABAUkIQACApIQgAkJQQBABISggCACQlBAEAkhKCAABJCUEAgKSEIABAUkIQACApIQgAkJQQBABISggCACQlBAEAkhKCAABJCUEAgKSEIABAUkIQACApIQgAkJQQBABISggCACQlBAEAkhKCAABJCUEAgKSEIABAUkIQACApIQgAkJQQBABISggCACQlBAEAkhKCAABJCUEAgKSEIABAUkIQACApIQgAkJQQBABISggCACQlBAEAkhKCAABJCUEAgKSEIABAUkIQACApIQgAkJQQBABISggCACQlBAEAkhKCAABJCUEAgKSEIABAUkIQACApIQgAkJQQBABISggCACQlBAEAkhKCAABJCUEAgKSEIABAUkIQACApIQgAkJQQBABISggCACQlBAEAkhKCAABJCUEAgKSEIABAUkIQACApIQgAkJQQBABISggCACQlBAEAkhKCAABJCUEAgKSEIABAUkIQACApIQgAkJQQBABISggCACQlBAEAkhKCAABJCUEAgKSEIABAUkIQACApIQgAkJQQBABISggCACQlBAEAkhKCAABJCUEAgKSEIABAUkIQACApIQgAkJQQBABISggCACQlBAEAkhKCAABJCUEAgKSEIABAUkIQACApIQgAkJQQBABISggCACRVevONarV6oLYDAIC32Q4huPn11yPEIADAu1eh0P7XHUIwqlWjggAA72KFN/3dHEEAgKSEIABAUkIQACApIQgAkJQQBABISggCACQlBAEAkhKCAABJCUEAgKSEIABAUkIQACApIQgAkJQQBABISggCACQlBAEAkhKCAABJCUEAgKSEIABAUkIQACApIQgAkJQQBABISggCACQlBAEAEioUCkIQACArIQgAkJQQBABIqlgoFA70NgAAcACUdrhVKIQsBAB4F/v9IGChUIjC4MGDq/X19Qd4iwAAeDu98cYb8f8ADnEbwYEJUEsAAAAASUVORK5CYII=;" parent="NUu4eacmFacFfqtwliKr-138" vertex="1">
          <mxGeometry width="642" height="545" as="geometry" />
        </mxCell>
        <mxCell id="NUu4eacmFacFfqtwliKr-125" value="NetID : 5.108.227.236.1.1" style="text;strokeColor=none;align=center;fillColor=none;html=1;verticalAlign=middle;whiteSpace=wrap;rounded=0;" parent="NUu4eacmFacFfqtwliKr-138" vertex="1">
          <mxGeometry x="300" y="520" width="140" height="20" as="geometry" />
        </mxCell>
        <mxCell id="NUu4eacmFacFfqtwliKr-126" value="Communication Status :&amp;nbsp;" style="text;html=1;align=center;verticalAlign=middle;resizable=0;points=[];autosize=1;strokeColor=none;fillColor=none;" parent="NUu4eacmFacFfqtwliKr-138" vertex="1">
          <mxGeometry x="470.00000000000006" y="515" width="150" height="30" as="geometry" />
        </mxCell>
        <mxCell id="NUu4eacmFacFfqtwliKr-127" value="" style="ellipse;whiteSpace=wrap;html=1;fillColor=#d5e8d4;strokeColor=#82b366;" parent="NUu4eacmFacFfqtwliKr-138" vertex="1">
          <mxGeometry x="610" y="525" width="10" height="10" as="geometry" />
        </mxCell>
        <mxCell id="NUu4eacmFacFfqtwliKr-128" value="Foreline Pressure Module" style="text;strokeColor=none;align=center;fillColor=none;html=1;verticalAlign=middle;whiteSpace=wrap;rounded=0;fontSize=30;fontStyle=1" parent="NUu4eacmFacFfqtwliKr-138" vertex="1">
          <mxGeometry x="120" y="60" width="410" height="30" as="geometry" />
        </mxCell>
        <mxCell id="NUu4eacmFacFfqtwliKr-129" value="mTorr" style="strokeWidth=1;shadow=0;dashed=0;align=center;html=1;shape=mxgraph.mockup.forms.comboBox;strokeColor=#999999;fillColor=#ddeeff;align=left;fillColor2=#aaddff;mainText=;fontColor=#666666;fontSize=17;spacingLeft=3;" parent="NUu4eacmFacFfqtwliKr-138" vertex="1">
          <mxGeometry x="499" y="160" width="111" height="20" as="geometry" />
        </mxCell>
        <mxCell id="NUu4eacmFacFfqtwliKr-130" value="Fault" style="text;strokeColor=none;align=center;fillColor=none;html=1;verticalAlign=middle;whiteSpace=wrap;rounded=0;fontSize=20;" parent="NUu4eacmFacFfqtwliKr-138" vertex="1">
          <mxGeometry x="80" y="150" width="60" height="30" as="geometry" />
        </mxCell>
        <mxCell id="NUu4eacmFacFfqtwliKr-131" value="Pressure Sensor" style="text;strokeColor=none;align=center;fillColor=none;html=1;verticalAlign=middle;whiteSpace=wrap;rounded=0;fontSize=20;" parent="NUu4eacmFacFfqtwliKr-138" vertex="1">
          <mxGeometry x="80" y="360" width="170" height="30" as="geometry" />
        </mxCell>
        <mxCell id="NUu4eacmFacFfqtwliKr-133" value="100" style="rounded=1;whiteSpace=wrap;html=1;align=right;fontSize=20;" parent="NUu4eacmFacFfqtwliKr-138" vertex="1">
          <mxGeometry x="379" y="357.5" width="120" height="35" as="geometry" />
        </mxCell>
        <mxCell id="NUu4eacmFacFfqtwliKr-134" value="mTorr" style="text;strokeColor=none;align=center;fillColor=none;html=1;verticalAlign=middle;whiteSpace=wrap;rounded=0;fontSize=20;" parent="NUu4eacmFacFfqtwliKr-138" vertex="1">
          <mxGeometry x="524.5" y="360" width="60" height="30" as="geometry" />
        </mxCell>
        <mxCell id="NUu4eacmFacFfqtwliKr-135" value="Over Range Fault" style="rounded=1;whiteSpace=wrap;html=1;fontSize=20;fillColor=#f8cecc;strokeColor=#b85450;" parent="NUu4eacmFacFfqtwliKr-138" vertex="1">
          <mxGeometry x="150" y="110" width="220" height="40" as="geometry" />
        </mxCell>
        <mxCell id="NUu4eacmFacFfqtwliKr-136" value="Under Range Fault" style="rounded=1;whiteSpace=wrap;html=1;fontSize=20;fillColor=#f8cecc;strokeColor=#b85450;" parent="NUu4eacmFacFfqtwliKr-138" vertex="1">
          <mxGeometry x="150" y="180" width="220" height="40" as="geometry" />
        </mxCell>
        <mxCell id="NUu4eacmFacFfqtwliKr-137" value="Communication Healthy" style="rounded=1;whiteSpace=wrap;html=1;fontSize=20;fillColor=#d5e8d4;strokeColor=#82b366;" parent="NUu4eacmFacFfqtwliKr-138" vertex="1">
          <mxGeometry x="80" y="440" width="220" height="40" as="geometry" />
        </mxCell>
        <mxCell id="NUu4eacmFacFfqtwliKr-154" value="&lt;font style=&quot;font-size: 20px;&quot;&gt;Select Unit&lt;/font&gt;" style="text;strokeColor=none;align=center;fillColor=none;html=1;verticalAlign=middle;whiteSpace=wrap;rounded=0;" parent="NUu4eacmFacFfqtwliKr-138" vertex="1">
          <mxGeometry x="499" y="110" width="110" height="30" as="geometry" />
        </mxCell>
        <mxCell id="NUu4eacmFacFfqtwliKr-139" value="" style="group" parent="1" vertex="1" connectable="0">
          <mxGeometry x="590" y="660" width="642" height="545" as="geometry" />
        </mxCell>
        <mxCell id="NUu4eacmFacFfqtwliKr-140" value="" style="shape=image;verticalLabelPosition=bottom;labelBackgroundColor=default;verticalAlign=top;aspect=fixed;imageAspect=0;image=data:image/png,iVBORw0KGgoAAAANSUhEUgAAAoIAAAIhCAYAAADaeNtVAAAfXklEQVR4nO3de5SV9Xno8Wfv2eMwclUEEVAG5WY0yyhIY9RKrl4Sl4aaRhtX00MNWdQSzeXIadokPSdJc6KtsakNMYo2RbtaNdpGE4yGE0UNORE1qHgBkYug3ISRizMws/c+f5CZI3KbGQYRn89nLZbs2e/s993jsPd3/97f+76FIUOGVHv06BFA1xx55JExfPjwqFQqB3pTII36+vp4/vnnY/Xq1Qd6U+Cg1dzcHKUDvRHwbrBy5cpYsmTJgd4MSGP48OEHehPgoFetVqNUKpWiWCxGRMTChQsP8CbBweexxx6Lq666qv123759o2/fvrF8+fL22zU1NbF+/fpdfn9DQ0PU1NR0aF1Lly6Ncrm87xv9NurM89uVJUuW7HW0tVAoxLHHHtvldVQqlQ6F/Fufy97+f3R2+YNB//79o1evXlEsFmPLli2xbt26AzYaft1118Wpp556QNYNB7NRo0ZFRESpVIrSsGHDYtOmTQd4k+DdY9u2bbFly5b22y0tLVGtVne7/Oc///l43/vet9fHrVar8dWvfjV+97vfdct2dqdCobDb53jFFVdEjx49orm5udOP29DQENOmTdvrh9Rhw4bFP/zDP8TSpUv3+LPelbq6uiiXyzF16tS9LnvhhRfGSSedFI2NjRERcfvtt8fcuXN3u/z48ePjtNNOi4iIQYMGxS233BL333//bpff089xf+jo+kqlUowfPz4+c+lnYthxw6JaV41KsRK15dp4demrMfuB2TFr1qzYsGHD27DVwL7q1atXREQMHDgwSm/niw5k0NTUFE1NTdGnT5/o169f+8jgu1m/fv1iy5YtsW3btp3uK5fLMX369Hj22Wc79ZilUim+853vdHj5pUuXxl/91V9FS0tLp9YzZsyYuOyyyzq8/B133BELFy6MmpqaqFQqcdxxx+122SeffDLmz58fS5cujb/8y7/c4+MWi8Xo379/rF27do/LNTQ0RENDQ0REzJkzZ4fRuH79+sWHP/zhWLFiRfzud7+LrVu37vGxDjvssNi4cWO0trbudpnDDz88rrjiihh55si4f+n9MfPpmVEqbJ9V1Fppjf6H9o8PXfKhOP+C8+Pq/311PPnkk3tcJ/DOUa1Wo/TKK69EqWSqIHS3lpaWHUYG92T58uXxxhtv7HGZSqWy12X25Oijj46ePXt2aNm1a9fGa6+91uHHLhQKUSgUdnt/uVzeY2zsSrVa7fQux9bW1k6vp7PLVyqV+MQnPrHDyOCetI0EduS5tE3T2Z3JkyfHxIkTY/369VGpVOLhhx/e4f7hw4fHtGnTYunSpdHS0hJf/epXY9myZbt9vD39P4vYfkDG17/x9dgybEtcO+/auGjUp+KS0X8SAw8dGIVCIbaWt8bjq+bFT1+6Jwb3Oiq+/q2vx9emfS2eeeaZvT7Xjqitre102AN71/Ze0tjYGKWmpqaor68/wJsE7x5vniPY1NS01zmC1Wo1brzxxg7t8u3q/LKBAwfGNddcE6tWrdrrsnV1ddHU1BRf+tKXol+/fjFhwoTYtGlTzJ49u0vr3tXj722kal/tbc5gR+cEvtWyZcuiqakpIraPDO5pN2+bK664IiIiXnnllU5H55sNGjQoLrnkkvj2t78dJ5xwQpx66qlRU1MTgwcPjtra2vZwb2xsjOuvvz4++tGPxqRJk+Ib3/hGl9ZXKBRi8uTJUR1RjftfuD++efq3YnDPwTss06OmRwzqeVT82Ql/Fr9c9kD8ZNVP4m++9jcx6b9N2qcPLRHb5yKOGDEi5s+f36VpBcDutb0Wdeqo4ek/vKHLKxx2zDFx3nnndvn74WDS2TmCEdsD76ijjtrliN3LL78cW7ZsiWOOOSbWrVvXpTfYUqkU69ati2nTpu01wkaMGBFf/OIXY/To0TF58uQol8tx6KGHdlsI/vEf/3Hce++9+3U+WUNDQ/ucwbeOxPXo0SMqlcped9Xuyt133x0RESeffHL7KOchhxyyy13ibdrW/x//8R+dXt+bDRo0KDZs2BA1NTVx6aWXxuzZs2P69OnR0NAQ27Zti1KpFM8991wsXLgwPve5z8Wdd94ZEydO7PL6Ro4cGed88pz4uyf+Lv7ifZfvFIEREUs3Lo3LZ/9FnDn0D+NLY78U/2vu/4xNQzfFH/3RH8XMmTO7vO7+/fvHqFGjYvHixSIQ9qNqtdrxEBwybEQMP3b3c2HebN2aV3e4PfeROUKQNLo6R/Dss8+OE088caev33jjjbFgwYKYPHly3H777fHUU0919ybvZMCAATF16tT4z//8z3j55ZfjC1/4Qrc99imnnBINDQ3xve99LzZv3txtj/tWu5szOGbMmPjc5z7XbeuZOHFi/PrXv97vc0Hb5iTW1dXFli1bYty4cXHffffFddddF62trTFo0KCYMmVK1NfXt4fp3nY178npp58eTzQ+EaMOGx3vOfw9u1zm5y/9LMqVcpzTcE7Ul+rjghEXxp0L74xPnfWpuP3227s08nvEEUfE6NGjY/HixbFmzZoubz/QMZ06WKSuWBs7LP77G9WIGDniqPbTPAweeHgcc8wxUalUolwux9xH5nTvVsNBoDNzBCMibrrppl1+vVevXvGJT3wijjvuuDjnnHOipqYm5s+fv19P2bF169a4+uqrY/ny5TFy5MhufexCoRAf+MAHYu3atTFjxoz9OgdsV3MG92X37JAhQ3YakR00aFBceeWVcfXVV+9x1/ugQYNiy5YtXTpLw+DBg2PSpEmxevXqqK+vjyOOOCJmzJgRP/3pTyNi+890yJAhMXz48Ni6dWs0NjbGxo0bo1+/fnHRRRfFXXfd1enfl5Ped1L8es2v49yGXX+If7Hxxfj5kp/HmUPPjJMHnrz9ewacFLc8c3MMGjMoevfu3ekQ7N+/f4wcOTIWLVokAuFt0qmjRP77jx+MYqkaUVOOYm05CqXK7/+0xg8HXBy1tbVRqVSiWq3GfXNfiLkLX47Pf3TXnyTh3apv377Rr1+/9vlke5sj2KbtnHNvPtfckCFDYtq0abF58+b23YLTpk2LBx98MG644Yb9dqqRjRs3to9w7e1AkK46//zzY9u2bXHLLbe8radM2RcXXXRRPPfccxGxPc7azhF4/PHHx5QpU+K73/1uvPHGGzucP7BtDvanP/3peOaZZ7q0i33AgAExYsSI+Pa3v91+sMivfvWrKBaLUalU4qyzzoqpU6fGrbfeGhs3bowpU6bEkUceGffdd19ccMEF7bu0O6P/gP6xatWqGFA/ICIiVmxeEc2tTTG877FRLBRj1pJZsbW8Nc479rwoFraPPPYo9YhqtRrlQ8pRV1fXqfX17t07TjzxxFi4cKEIpMs6+lr1TnvNKRQKMW/evBg7duwu73/88cdj3Lhx+2W7OxWCvXoWo1RXiEJNRKFUiEKpEsVSOaJm+xvHUUcd1X6k3/yXX4seh0esW7eu2zca3sm2bdu2wy7PjswRjIg477zzYsSIETF9+vRYtGhRFAqF+OxnPxuvvfZafO9734vPfOYzMXv27HjwwQfjyiuvjBdeeCF+9atf7c+n0m0aGhqiXC7H0qVL279WLBbjwgsvjDVr1sTPfvazqFar0dDQEG2XvCyVSvFOu/xloVCIYrEYK1eujNNOOy3Gjx/fft/48ePj8ssvj3/6p3+K8ePHx/vf//72+zZu3BjFYnGfTqzdt2/fOPbYY6OxsTE2bdoUH/vYx2LMmDHxm9/8JiZPnhz/8i//Evfcc0+MHTs2mpub4/XXX48zzjijyyOglXIlamtqo/L7390n1zwR1827Lr5y6lfi+P7viZ+9dG9MOHpCjD1yXPv3VKvVqEY1ohKdHultamqKxsbG6NevX6xZs+agP/E2B87eXm/3xwfbfTVv3rw47fQzYu6jj+wUg48//nicdvoZMW/evP2y7k6FYM9exTikRzFWbXw9mluao6a2HMXa7TFYqVRi+fLlUalUolKpRKG2NQ7pue0dV92wv3V1juANN9wQhUIhyuVyNDQ0xJFHHhkjR46M6dOnx5YtW+JHP/pRVCqVaGlpiYceeigmTJgQK1eujMWLF3f7m+bhhx8eEydObN/1uC+WL18eH/vYx6K1tTVuvPHGHe6rra2NSZO2H2E6Z86cOPfcc2P06NHt95fL5XdcEAwePDgefvjheOqpp2LJkiXxB3/wB+33ffCDH4wNGzbEj3/847jrrrvaRwYrlco+nZ3hhRdeiGuvvTYuuOCCuP322+Pss8+OhQsXxvvf//6YOnVqzJw5M+65556I2H4KmdWrV0e1Wo2jjz46vvKVr3TpZ7jqlVUxevDoWLpxSQzrMywmDP1g/Ptz/x7/+uy/xikDT4nWSmt85JiPRCH+/5vqhq0boq5UF8XmYqcPamptbY1nn302TjjhhBg9enQsXLhwn3bjw8Fk7NixMffRR3aKwbYI3FUgdpdOheDGbVti0xubo1hbjppDKlHz+xHBmpqd/7EWa8pR6tF8wC49BAdaZ+cIDh48OHr27BkrVqyIc845J9773vfGgAED4tOf/nQ0Nja2X13jvPPOi5NOOin69+8fU6ZMieuvvz4WL17crdteKBTilFNOiVGjRsWjjz66Tx/ovv/97+/x/vr6+rjsssuisbExpk+f3uX1vFVdXV2MHj16p5gYPnx4l0cE2kYC2w7queOOO3a4v1AoxIUXXhjNzc1x2223xSmnnLLTyGBXNDc3x+LFi9uvgtK7d+8466yz4u///u9j2LBh8dvf/jYKhUIcffTRcf7558fq1aujrq4uNm7cGIsWLerSOn/5y1/Gp77yqbjz+TvjjCFnRu9Desclx18S1867NmYtmRUTjp4Qpw4av8P3/J/ls2NM/zHx1BNPdelAoJaWlnjmmWfihBNOiJEjR8bChQvfcR8EYH95awxGxH6PwE4dNRwR8UZlSxTrWrcHYE0lakrlqCmVo1gqR7VajcGDB7d/gn9x86ro0aPZJzrS6eocwbajhm+66aa48cYbo2/fvnHNNdfE3XffHYsWLYrhw4fH8uXL46abboovfOELMW/evLj55ps7/EZZV1cXxx133F4n8A8dOjTWr18f3/rWt+Kiiy6KyZMnxwsvvNDh598Zr776avTr1y8OO+ywuOKKK+Jv//Zvu3R+v7dqO1Btd1cM6eoRvj/5yU92mG9XqVR2GBGsVqtRU1MTF110UaxduzbuvPPOuOuuu3ZYvqtef/31OOSQQ+L111+PVatWxYc//OE44ogj4qGHHooTTjghjj/++Pj4xz8effr0iUcffTTq6+v36fKhjz32WFy28bKoqamJOxbeERePvjjOGjoh/u+rv401b6yOsxvOaZ8bGBGx+PXFce9L98aX3/fl+Ofp/9zl9b55ZHDMmDHx/PPPi0HSeHMMRsR+jcA2nQrBUl05qqVK1NRsj79iTTlKpUoUa1rbdwm3/Rk7ZHQMfPnQKB7S9dMXwMGoq3ME33rU8Pr162P27NkxZcqU2LRpU1x88cVx9913x9ixY+P000+Pv/7rv+7wB62WlpZYuXJlhy+lNnfu3Ghubo5bb701HnzwwT2eJ6+rHn744fj+978fhx56aAwbNixGjRoV48aNi1WrVrWftLmrli1b1qXzBO5N2+vbrrz00kvxwx/+MIYOHRrHHntsnHHGGbFy5cpuu8rGqlWrorW1NU4++eT4t3/7t/jIRz4SDzzwQIwbNy4OP/zwWLRoUdx8881xwQUXxP333x+XXnppPPLII11eX2NjY8y4cUZM+R9T4ponroletb3i3OHnxjdP/+YOy1Wr1Xhp40tx/ZPXx5+850/i2Yeejccee2yfnmtLS0ssWLAghg0btk+Pw745WA+8oHM6FYI96gvREuUolFqj9PsYrKnZvmu47QWyXC63v1AOGjTIJznS6c5rDf/Xf/1X9O7dO6666qro1atXDB06NDZv3hz/+I//GAsWLOjw46xduza++c1vdumFfcWKFZ3e7r1ZvHhxzJgxIzZv3hybN2+ONWvWxGOPPRaFQuGgfFPZsGFD/OAHP4gFCxbE008/HRHbz/vXnZPSN2/eHF/72tdi0qRJceKJJ8aLL74Yt912W9x6661RLBajXC7He9/73pg0aVJcfvnlMXfu3Ljtttv2aZ0PPPBADBw4MKZNnhY3L7g55qx4KM4YckaMPmxMFAuF2NSyOR56+cFYuGFhXDjqwogXIq699tpued1vaWmJxYsXH5S/D+8WfvZvvzfPCYzY/7uGIzoZgtVic9TUtGzfHVxs2y3cGjXF7buGV6xY0b5reMCAAdtPIyAESaozcwSPOeaYXV5BYdmyZXHDDTfEvffeG1dddVX84he/iLlz53bpqhz7899ic3PHp4E0NTXFHXfcEatXr97pvn154+nRo0eMHj2608+zoaFhn4KtXC7HzJkzdwrzrvy89/b7smDBgvjyl78cffr0iVKp1L6Otg/fTz/9dHzyk5+MpqamDh2ssXXr1j3urq5Wq3HrrbfG+vXr408/+6ex6bBN8ZtXfhOPvvJobC1vjf71/eP0IafHxGMmxr133BszZ87s1ssHChEy2dWBIbs6gKS7dTgECxFRLLVG1LRGqbYcxWJrFGu2jwgWayrR2toaW7dubQ/BthO5CkGy6ewcwaVLl8aHPvShmDBhwg5fr1arMWPGjFiwYEGsXLkyFixYEMuXL9+vl2brqs4cIXrXXXfFE0880a3rr1ar0dLSEn/+53/epe/fl1HbOXPmdMvu30ql0uEDLHZ30Em1Wm2/5nBHdHR9P//5z2POnDlx5plnxtixY+MDx34getT3iLVr1saTdzwZ3/3Fd9uPVAY6b3dHB+/uaOLuVOrdu3eHLkNUjYhrzp4c619bF5Vqtf18gW3/ramtiwH9Do9KpRqVSjlayuUoVyLK1Xfe+Xpgf+rsHMEf/ehHHXrcji73Trev88d2ZdmyZTF16tRuf9yOmD9//gFZ79tt8+bNMWvWrJg1a9aB3hTYo3fieQL3Zty4cbs9oXRbDHbnCaVra2sjYvuVq0pHHHFEhyZmn/uRP4yWlpbo16dnp1f4xSu77zql8E7Us2fP6NOnT/vtlpaWHW5HxE63ga5reyODNztYR6X3tt1jx47t1ufWdl7Tvn37dnzXcG1trX94sAt9+/aNiy+++EBvBqQzcODAA70JcNArHHXUUdVDDz00IiJefPHFA7w5AADsTyNGjIiI7VM+nOQPACApIQgAkJQQBABISggCACQlBAEAkhKCAABJCUEAgETefLpAIQgAkJQQBABISggCACQlBAEAkhKCAABJCUEAgKSEIABAUkIQACApIQgAkJQQBABISggCACQlBAEAkhKCAABJCUEAgKSEIABAUkIQACApIQgAkJQQBABISggCACQlBAEAkhKCAABJCUEAgKSEIABAUkIQACApIQgAkJQQBABISggCACQlBAEAkhKCAABJCUEAgKSEIABAUkIQACApIQgAkJQQBABISggCACQlBAEAkhKCAABJCUEAgKSEIABAUkIQACApIQgAkJQQBABISggCACQlBAEAkhKCAABJCUEAgKSEIABAUkIQACApIQgAkJQQBABISggCACQlBAEAkhKCAABJCUEAgKSEIABAUkIQACApIQgAkJQQBABISggCACQlBAEAkhKCAABJCUEAgKSEIABAUkIQACApIQgAkJQQBABISggCACQlBAEAkhKCAABJCUEAgKSEIABAUkIQACApIQgAkJQQBABISggCACQlBAEAkhKCAABJCUEAgKSEIABAUkIQACApIQgAkJQQBABISggCACQlBAEAkhKCAABJCUEAgKSEIABAUkIQACApIQgAkJQQBABISggCACQlBAEAkhKCAABJCUEAgKSEIABAUkIQACApIQgAkJQQBABISggCACQlBAEAkhKCAABJCUEAgKSEIABAUkIQACApIQgAkJQQBABISggCACQlBAEAkhKCAABJCUEAgKSEIABAUkIQACApIQgAkJQQBABISggCACQlBAEAkhKCAABJCUEAgKSEIABAUkIQACApIQgAkJQQBABISggCACQlBAEAkhKCAABJCUEAgKSEIABAUkIQACApIQgAkJQQBABISggCACQlBAEAkhKCAABJCUEAgKSEIABAUkIQACApIQgAkJQQBABISggCACQlBAEAkhKCAABJCUEAgKSEIABAUkIQACApIQgAkJQQBABISggCACQlBAEAkhKCAABJCUEAgKSEIABAUkIQACApIQgAkJQQBABISggCACQlBAEAkhKCAABJCUEAgKSEIABAUkIQACApIQgAkJQQBABISggCACQlBAEAkhKCAABJCUEAgKSEIABAUkIQACApIQgAkJQQBABISggCACQlBAEAkhKCAABJCUEAgKSEIABAUkIQACApIQgAkJQQBABISggCACQlBAEAkhKCAABJCUEAgKSEIABAUkIQACApIQgAkJQQBABISggCACQlBAEAkhKCAABJCUEAgKSEIABAUkIQACApIQgAkJQQBABISggCACQlBAEAkhKCAABJCUEAgKSEIABAUkIQACApIQgAkJQQBABISggCACQlBAEAkhKCAABJCUEAgKSEIABAUkIQACApIQgAkJQQBABISggCACQlBAEAkhKCAABJCUEAgKSEIABAUkIQACApIQgAkJQQBABISggCACQlBAEAkhKCAABJCUEAgKSEIABAUkIQACApIQgAkJQQBABISggCACQlBAEAkhKCAABJCUEAgKSEIABAUkIQACApIQgAkJQQBABISggCACQlBAEAkhKCAABJCUEAgKSEIABAUkIQACApIQgAkJQQBABISggCACQlBAEAkhKCAABJCUEAgKSEIABAUkIQACApIQgAkJQQBABISggCACQlBAEAkhKCAABJCUEAgKSEIABAUkIQACApIQgAkJQQBABISggCACQlBAEAkhKCAABJCUEAgKSEIABAUkIQACApIQgAkJQQBABISggCACQlBAEAkhKCAABJCUEAgKSEIABAUkIQACApIQgAkJQQBABISggCACQlBAEAkhKCAABJCUEAgKSEIABAUkIQACApIQgAkJQQBABISggCACQlBAEAkhKCAABJCUEAgKSEIABAUkIQACApIQgAkJQQBABISggCACQlBAEAkhKCAABJCUEAgKSEIABAUkIQACApIQgAkJQQBABISggCACQlBAEAkhKCAABJCUEAgKSEIABAUkIQACApIQgAkJQQBABISggCACQlBAEAkhKCAABJCUEAgKSEIABAUkIQACApIQgAkJQQBABISggCACQlBAEAkhKCAABJCUEAgKSEIABAUkIQACApIQgAkJQQBABISggCACQlBAEAkhKCAABJCUEAgKSEIABAUkIQACApIQgAkJQQBABISggCACQlBAEAkhKCAABJCUEAgKSEIABAUkIQACApIQgAkJQQBABISggCACQlBAEAkhKCAABJCUEAgKSEIABAUkIQACApIQgAkJQQBABISggCACQlBAEAkhKCAABJCUEAgKSEIABAUkIQACApIQgAkJQQBABISggCACQlBAEAkhKCAABJCUEAgKSEIABAUkIQACApIQgAkJQQBABISggCACQlBAEAkhKCAABJCUEAgKSEIABAUkIQACApIQgAkJQQBABISggCACQlBAEAkhKCAABJCUEAgKSEIABAUkIQACApIQgAkJQQBABISggCACQlBAEAkhKCAABJCUEAgKSEIABAUkIQACApIQgAkJQQBABISggCACQlBAEAkhKCAABJCUEAgKSEIABAUkIQACApIQgAkJQQBABISggCACQlBAEAkhKCAABJCUEAgKSEIABAUkIQACApIQgAkJQQBABISggCACQlBAEAkhKCAABJCUEAgKSEIABAUkIQACApIQgAkJQQBABISggCACQlBAEAkhKCAABJCUEAgKSEIABAUkIQACApIQgAkJQQBABISggCACQlBAEAkhKCAABJCUEAgKSEIABAUkIQACApIQgAkJQQBABISggCACQlBAEAkhKCAABJCUEAgKSEIABAUkIQACApIQgAkJQQBABISggCACQlBAEAkhKCAABJCUEAgKSEIABAUkIQACApIQgAkJQQBABISggCACQlBAEAkhKCAABJCUEAgKSEIABAUkIQACApIQgAkJQQBABISggCACQlBAEAkhKCAABJCUEAgKSEIABAUkIQACApIQgAkJQQBABISggCACQlBAEAkhKCAABJCUEAgKSEIABAUkIQACApIQgAkJQQBABISggCACQlBAEAkhKCAABJCUEAgKSEIABAUkIQACApIQgAkJQQBABISggCACQlBAEAkhKCAABJCUEAgKSEIABAUkIQACApIQgAkJQQBABISggCACRVevONarV6oLYDAIC32Q4huPn11yPEIADAu1eh0P7XHUIwqlWjggAA72KFN/3dHEEAgKSEIABAUkIQACApIQgAkJQQBABISggCACQlBAEAkhKCAABJCUEAgKSEIABAUkIQACApIQgAkJQQBABISggCACQlBAEAkhKCAABJCUEAgKSEIABAUkIQACApIQgAkJQQBABISggCACQlBAEAEioUCkIQACArIQgAkJQQBABIqlgoFA70NgAAcACUdrhVKIQsBAB4F/v9IGChUIjC4MGDq/X19Qd4iwAAeDu98cYb8f8ADnEbwYEJUEsAAAAASUVORK5CYII=;" parent="NUu4eacmFacFfqtwliKr-139" vertex="1">
          <mxGeometry width="642" height="545" as="geometry" />
        </mxCell>
        <mxCell id="NUu4eacmFacFfqtwliKr-141" value="NetID : 5.108.227.236.1.1" style="text;strokeColor=none;align=center;fillColor=none;html=1;verticalAlign=middle;whiteSpace=wrap;rounded=0;" parent="NUu4eacmFacFfqtwliKr-139" vertex="1">
          <mxGeometry x="300" y="520" width="140" height="20" as="geometry" />
        </mxCell>
        <mxCell id="NUu4eacmFacFfqtwliKr-142" value="Communication Status :&amp;nbsp;" style="text;html=1;align=center;verticalAlign=middle;resizable=0;points=[];autosize=1;strokeColor=none;fillColor=none;" parent="NUu4eacmFacFfqtwliKr-139" vertex="1">
          <mxGeometry x="470.00000000000006" y="515" width="150" height="30" as="geometry" />
        </mxCell>
        <mxCell id="NUu4eacmFacFfqtwliKr-143" value="" style="ellipse;whiteSpace=wrap;html=1;fillColor=#d5e8d4;strokeColor=#82b366;" parent="NUu4eacmFacFfqtwliKr-139" vertex="1">
          <mxGeometry x="610" y="525" width="10" height="10" as="geometry" />
        </mxCell>
        <mxCell id="NUu4eacmFacFfqtwliKr-144" value="Foreline Pressure Module" style="text;strokeColor=none;align=center;fillColor=none;html=1;verticalAlign=middle;whiteSpace=wrap;rounded=0;fontSize=30;fontStyle=1" parent="NUu4eacmFacFfqtwliKr-139" vertex="1">
          <mxGeometry x="120" y="60" width="410" height="30" as="geometry" />
        </mxCell>
        <mxCell id="NUu4eacmFacFfqtwliKr-145" value="Pa" style="strokeWidth=1;shadow=0;dashed=0;align=center;html=1;shape=mxgraph.mockup.forms.comboBox;strokeColor=#999999;fillColor=#ddeeff;align=left;fillColor2=#aaddff;mainText=;fontColor=#666666;fontSize=17;spacingLeft=3;" parent="NUu4eacmFacFfqtwliKr-139" vertex="1">
          <mxGeometry x="499" y="160" width="111" height="20" as="geometry" />
        </mxCell>
        <mxCell id="NUu4eacmFacFfqtwliKr-146" value="Fault" style="text;strokeColor=none;align=center;fillColor=none;html=1;verticalAlign=middle;whiteSpace=wrap;rounded=0;fontSize=20;" parent="NUu4eacmFacFfqtwliKr-139" vertex="1">
          <mxGeometry x="80" y="150" width="60" height="30" as="geometry" />
        </mxCell>
        <mxCell id="NUu4eacmFacFfqtwliKr-147" value="Pressure Sensor" style="text;strokeColor=none;align=center;fillColor=none;html=1;verticalAlign=middle;whiteSpace=wrap;rounded=0;fontSize=20;" parent="NUu4eacmFacFfqtwliKr-139" vertex="1">
          <mxGeometry x="80" y="360" width="170" height="30" as="geometry" />
        </mxCell>
        <mxCell id="NUu4eacmFacFfqtwliKr-148" value="13.332" style="rounded=1;whiteSpace=wrap;html=1;align=right;fontSize=20;" parent="NUu4eacmFacFfqtwliKr-139" vertex="1">
          <mxGeometry x="379" y="357.5" width="120" height="35" as="geometry" />
        </mxCell>
        <mxCell id="NUu4eacmFacFfqtwliKr-149" value="Pa" style="text;strokeColor=none;align=center;fillColor=none;html=1;verticalAlign=middle;whiteSpace=wrap;rounded=0;fontSize=20;" parent="NUu4eacmFacFfqtwliKr-139" vertex="1">
          <mxGeometry x="524.5" y="360" width="60" height="30" as="geometry" />
        </mxCell>
        <mxCell id="NUu4eacmFacFfqtwliKr-150" value="Over Range Fault" style="rounded=1;whiteSpace=wrap;html=1;fontSize=20;fillColor=#f8cecc;strokeColor=#b85450;" parent="NUu4eacmFacFfqtwliKr-139" vertex="1">
          <mxGeometry x="150" y="110" width="220" height="40" as="geometry" />
        </mxCell>
        <mxCell id="NUu4eacmFacFfqtwliKr-151" value="Under Range Fault" style="rounded=1;whiteSpace=wrap;html=1;fontSize=20;fillColor=#f8cecc;strokeColor=#b85450;" parent="NUu4eacmFacFfqtwliKr-139" vertex="1">
          <mxGeometry x="150" y="180" width="220" height="40" as="geometry" />
        </mxCell>
        <mxCell id="NUu4eacmFacFfqtwliKr-152" value="Communication Healthy" style="rounded=1;whiteSpace=wrap;html=1;fontSize=20;fillColor=#d5e8d4;strokeColor=#82b366;" parent="NUu4eacmFacFfqtwliKr-139" vertex="1">
          <mxGeometry x="80" y="440" width="220" height="40" as="geometry" />
        </mxCell>
        <mxCell id="NUu4eacmFacFfqtwliKr-155" value="&lt;font style=&quot;font-size: 20px;&quot;&gt;Select Unit&lt;/font&gt;" style="text;strokeColor=none;align=center;fillColor=none;html=1;verticalAlign=middle;whiteSpace=wrap;rounded=0;" parent="NUu4eacmFacFfqtwliKr-139" vertex="1">
          <mxGeometry x="499" y="110" width="110" height="30" as="geometry" />
        </mxCell>
        <mxCell id="NUu4eacmFacFfqtwliKr-153" style="edgeStyle=orthogonalEdgeStyle;rounded=0;orthogonalLoop=1;jettySize=auto;html=1;exitX=1;exitY=0.5;exitDx=0;exitDy=0;entryX=0;entryY=0.5;entryDx=0;entryDy=0;strokeWidth=3;" parent="1" source="NUu4eacmFacFfqtwliKr-124" target="NUu4eacmFacFfqtwliKr-140" edge="1">
          <mxGeometry relative="1" as="geometry" />
        </mxCell>
        <mxCell id="NUu4eacmFacFfqtwliKr-156" value="Unit Changed" style="text;strokeColor=none;align=center;fillColor=none;html=1;verticalAlign=middle;whiteSpace=wrap;rounded=0;fontSize=20;" parent="1" vertex="1">
          <mxGeometry x="330" y="880" width="150" height="30" as="geometry" />
        </mxCell>
        <mxCell id="NUu4eacmFacFfqtwliKr-157" value="" style="endArrow=none;html=1;rounded=0;strokeWidth=4;" parent="1" edge="1">
          <mxGeometry width="50" height="50" relative="1" as="geometry">
            <mxPoint x="-820" y="360" as="sourcePoint" />
            <mxPoint x="1630" y="360" as="targetPoint" />
          </mxGeometry>
        </mxCell>
        <mxCell id="NUu4eacmFacFfqtwliKr-160" value="" style="shape=image;verticalLabelPosition=bottom;labelBackgroundColor=default;verticalAlign=top;aspect=fixed;imageAspect=0;image=data:image/png,iVBORw0KGgoAAAANSUhEUgAAAoIAAAIhCAYAAADaeNtVAAAfXklEQVR4nO3de5SV9Xno8Wfv2eMwclUEEVAG5WY0yyhIY9RKrl4Sl4aaRhtX00MNWdQSzeXIadokPSdJc6KtsakNMYo2RbtaNdpGE4yGE0UNORE1qHgBkYug3ISRizMws/c+f5CZI3KbGQYRn89nLZbs2e/s993jsPd3/97f+76FIUOGVHv06BFA1xx55JExfPjwqFQqB3pTII36+vp4/vnnY/Xq1Qd6U+Cg1dzcHKUDvRHwbrBy5cpYsmTJgd4MSGP48OEHehPgoFetVqNUKpWiWCxGRMTChQsP8CbBweexxx6Lq666qv123759o2/fvrF8+fL22zU1NbF+/fpdfn9DQ0PU1NR0aF1Lly6Ncrm87xv9NurM89uVJUuW7HW0tVAoxLHHHtvldVQqlQ6F/Fufy97+f3R2+YNB//79o1evXlEsFmPLli2xbt26AzYaft1118Wpp556QNYNB7NRo0ZFRESpVIrSsGHDYtOmTQd4k+DdY9u2bbFly5b22y0tLVGtVne7/Oc///l43/vet9fHrVar8dWvfjV+97vfdct2dqdCobDb53jFFVdEjx49orm5udOP29DQENOmTdvrh9Rhw4bFP/zDP8TSpUv3+LPelbq6uiiXyzF16tS9LnvhhRfGSSedFI2NjRERcfvtt8fcuXN3u/z48ePjtNNOi4iIQYMGxS233BL333//bpff089xf+jo+kqlUowfPz4+c+lnYthxw6JaV41KsRK15dp4demrMfuB2TFr1qzYsGHD27DVwL7q1atXREQMHDgwSm/niw5k0NTUFE1NTdGnT5/o169f+8jgu1m/fv1iy5YtsW3btp3uK5fLMX369Hj22Wc79ZilUim+853vdHj5pUuXxl/91V9FS0tLp9YzZsyYuOyyyzq8/B133BELFy6MmpqaqFQqcdxxx+122SeffDLmz58fS5cujb/8y7/c4+MWi8Xo379/rF27do/LNTQ0RENDQ0REzJkzZ4fRuH79+sWHP/zhWLFiRfzud7+LrVu37vGxDjvssNi4cWO0trbudpnDDz88rrjiihh55si4f+n9MfPpmVEqbJ9V1Fppjf6H9o8PXfKhOP+C8+Pq/311PPnkk3tcJ/DOUa1Wo/TKK69EqWSqIHS3lpaWHUYG92T58uXxxhtv7HGZSqWy12X25Oijj46ePXt2aNm1a9fGa6+91uHHLhQKUSgUdnt/uVzeY2zsSrVa7fQux9bW1k6vp7PLVyqV+MQnPrHDyOCetI0EduS5tE3T2Z3JkyfHxIkTY/369VGpVOLhhx/e4f7hw4fHtGnTYunSpdHS0hJf/epXY9myZbt9vD39P4vYfkDG17/x9dgybEtcO+/auGjUp+KS0X8SAw8dGIVCIbaWt8bjq+bFT1+6Jwb3Oiq+/q2vx9emfS2eeeaZvT7Xjqitre102AN71/Ze0tjYGKWmpqaor68/wJsE7x5vniPY1NS01zmC1Wo1brzxxg7t8u3q/LKBAwfGNddcE6tWrdrrsnV1ddHU1BRf+tKXol+/fjFhwoTYtGlTzJ49u0vr3tXj722kal/tbc5gR+cEvtWyZcuiqakpIraPDO5pN2+bK664IiIiXnnllU5H55sNGjQoLrnkkvj2t78dJ5xwQpx66qlRU1MTgwcPjtra2vZwb2xsjOuvvz4++tGPxqRJk+Ib3/hGl9ZXKBRi8uTJUR1RjftfuD++efq3YnDPwTss06OmRwzqeVT82Ql/Fr9c9kD8ZNVP4m++9jcx6b9N2qcPLRHb5yKOGDEi5s+f36VpBcDutb0Wdeqo4ek/vKHLKxx2zDFx3nnndvn74WDS2TmCEdsD76ijjtrliN3LL78cW7ZsiWOOOSbWrVvXpTfYUqkU69ati2nTpu01wkaMGBFf/OIXY/To0TF58uQol8tx6KGHdlsI/vEf/3Hce++9+3U+WUNDQ/ucwbeOxPXo0SMqlcped9Xuyt133x0RESeffHL7KOchhxyyy13ibdrW/x//8R+dXt+bDRo0KDZs2BA1NTVx6aWXxuzZs2P69OnR0NAQ27Zti1KpFM8991wsXLgwPve5z8Wdd94ZEydO7PL6Ro4cGed88pz4uyf+Lv7ifZfvFIEREUs3Lo3LZ/9FnDn0D+NLY78U/2vu/4xNQzfFH/3RH8XMmTO7vO7+/fvHqFGjYvHixSIQ9qNqtdrxEBwybEQMP3b3c2HebN2aV3e4PfeROUKQNLo6R/Dss8+OE088caev33jjjbFgwYKYPHly3H777fHUU0919ybvZMCAATF16tT4z//8z3j55ZfjC1/4Qrc99imnnBINDQ3xve99LzZv3txtj/tWu5szOGbMmPjc5z7XbeuZOHFi/PrXv97vc0Hb5iTW1dXFli1bYty4cXHffffFddddF62trTFo0KCYMmVK1NfXt4fp3nY178npp58eTzQ+EaMOGx3vOfw9u1zm5y/9LMqVcpzTcE7Ul+rjghEXxp0L74xPnfWpuP3227s08nvEEUfE6NGjY/HixbFmzZoubz/QMZ06WKSuWBs7LP77G9WIGDniqPbTPAweeHgcc8wxUalUolwux9xH5nTvVsNBoDNzBCMibrrppl1+vVevXvGJT3wijjvuuDjnnHOipqYm5s+fv19P2bF169a4+uqrY/ny5TFy5MhufexCoRAf+MAHYu3atTFjxoz9OgdsV3MG92X37JAhQ3YakR00aFBceeWVcfXVV+9x1/ugQYNiy5YtXTpLw+DBg2PSpEmxevXqqK+vjyOOOCJmzJgRP/3pTyNi+890yJAhMXz48Ni6dWs0NjbGxo0bo1+/fnHRRRfFXXfd1enfl5Ped1L8es2v49yGXX+If7Hxxfj5kp/HmUPPjJMHnrz9ewacFLc8c3MMGjMoevfu3ekQ7N+/f4wcOTIWLVokAuFt0qmjRP77jx+MYqkaUVOOYm05CqXK7/+0xg8HXBy1tbVRqVSiWq3GfXNfiLkLX47Pf3TXnyTh3apv377Rr1+/9vlke5sj2KbtnHNvPtfckCFDYtq0abF58+b23YLTpk2LBx98MG644Yb9dqqRjRs3to9w7e1AkK46//zzY9u2bXHLLbe8radM2RcXXXRRPPfccxGxPc7azhF4/PHHx5QpU+K73/1uvPHGGzucP7BtDvanP/3peOaZZ7q0i33AgAExYsSI+Pa3v91+sMivfvWrKBaLUalU4qyzzoqpU6fGrbfeGhs3bowpU6bEkUceGffdd19ccMEF7bu0O6P/gP6xatWqGFA/ICIiVmxeEc2tTTG877FRLBRj1pJZsbW8Nc479rwoFraPPPYo9YhqtRrlQ8pRV1fXqfX17t07TjzxxFi4cKEIpMs6+lr1TnvNKRQKMW/evBg7duwu73/88cdj3Lhx+2W7OxWCvXoWo1RXiEJNRKFUiEKpEsVSOaJm+xvHUUcd1X6k3/yXX4seh0esW7eu2zca3sm2bdu2wy7PjswRjIg477zzYsSIETF9+vRYtGhRFAqF+OxnPxuvvfZafO9734vPfOYzMXv27HjwwQfjyiuvjBdeeCF+9atf7c+n0m0aGhqiXC7H0qVL279WLBbjwgsvjDVr1sTPfvazqFar0dDQEG2XvCyVSvFOu/xloVCIYrEYK1eujNNOOy3Gjx/fft/48ePj8ssvj3/6p3+K8ePHx/vf//72+zZu3BjFYnGfTqzdt2/fOPbYY6OxsTE2bdoUH/vYx2LMmDHxm9/8JiZPnhz/8i//Evfcc0+MHTs2mpub4/XXX48zzjijyyOglXIlamtqo/L7390n1zwR1827Lr5y6lfi+P7viZ+9dG9MOHpCjD1yXPv3VKvVqEY1ohKdHultamqKxsbG6NevX6xZs+agP/E2B87eXm/3xwfbfTVv3rw47fQzYu6jj+wUg48//nicdvoZMW/evP2y7k6FYM9exTikRzFWbXw9mluao6a2HMXa7TFYqVRi+fLlUalUolKpRKG2NQ7pue0dV92wv3V1juANN9wQhUIhyuVyNDQ0xJFHHhkjR46M6dOnx5YtW+JHP/pRVCqVaGlpiYceeigmTJgQK1eujMWLF3f7m+bhhx8eEydObN/1uC+WL18eH/vYx6K1tTVuvPHGHe6rra2NSZO2H2E6Z86cOPfcc2P06NHt95fL5XdcEAwePDgefvjheOqpp2LJkiXxB3/wB+33ffCDH4wNGzbEj3/847jrrrvaRwYrlco+nZ3hhRdeiGuvvTYuuOCCuP322+Pss8+OhQsXxvvf//6YOnVqzJw5M+65556I2H4KmdWrV0e1Wo2jjz46vvKVr3TpZ7jqlVUxevDoWLpxSQzrMywmDP1g/Ptz/x7/+uy/xikDT4nWSmt85JiPRCH+/5vqhq0boq5UF8XmYqcPamptbY1nn302TjjhhBg9enQsXLhwn3bjw8Fk7NixMffRR3aKwbYI3FUgdpdOheDGbVti0xubo1hbjppDKlHz+xHBmpqd/7EWa8pR6tF8wC49BAdaZ+cIDh48OHr27BkrVqyIc845J9773vfGgAED4tOf/nQ0Nja2X13jvPPOi5NOOin69+8fU6ZMieuvvz4WL17crdteKBTilFNOiVGjRsWjjz66Tx/ovv/97+/x/vr6+rjsssuisbExpk+f3uX1vFVdXV2MHj16p5gYPnx4l0cE2kYC2w7queOOO3a4v1AoxIUXXhjNzc1x2223xSmnnLLTyGBXNDc3x+LFi9uvgtK7d+8466yz4u///u9j2LBh8dvf/jYKhUIcffTRcf7558fq1aujrq4uNm7cGIsWLerSOn/5y1/Gp77yqbjz+TvjjCFnRu9Desclx18S1867NmYtmRUTjp4Qpw4av8P3/J/ls2NM/zHx1BNPdelAoJaWlnjmmWfihBNOiJEjR8bChQvfcR8EYH95awxGxH6PwE4dNRwR8UZlSxTrWrcHYE0lakrlqCmVo1gqR7VajcGDB7d/gn9x86ro0aPZJzrS6eocwbajhm+66aa48cYbo2/fvnHNNdfE3XffHYsWLYrhw4fH8uXL46abboovfOELMW/evLj55ps7/EZZV1cXxx133F4n8A8dOjTWr18f3/rWt+Kiiy6KyZMnxwsvvNDh598Zr776avTr1y8OO+ywuOKKK+Jv//Zvu3R+v7dqO1Btd1cM6eoRvj/5yU92mG9XqVR2GBGsVqtRU1MTF110UaxduzbuvPPOuOuuu3ZYvqtef/31OOSQQ+L111+PVatWxYc//OE44ogj4qGHHooTTjghjj/++Pj4xz8effr0iUcffTTq6+v36fKhjz32WFy28bKoqamJOxbeERePvjjOGjoh/u+rv401b6yOsxvOaZ8bGBGx+PXFce9L98aX3/fl+Ofp/9zl9b55ZHDMmDHx/PPPi0HSeHMMRsR+jcA2nQrBUl05qqVK1NRsj79iTTlKpUoUa1rbdwm3/Rk7ZHQMfPnQKB7S9dMXwMGoq3ME33rU8Pr162P27NkxZcqU2LRpU1x88cVx9913x9ixY+P000+Pv/7rv+7wB62WlpZYuXJlhy+lNnfu3Ghubo5bb701HnzwwT2eJ6+rHn744fj+978fhx56aAwbNixGjRoV48aNi1WrVrWftLmrli1b1qXzBO5N2+vbrrz00kvxwx/+MIYOHRrHHntsnHHGGbFy5cpuu8rGqlWrorW1NU4++eT4t3/7t/jIRz4SDzzwQIwbNy4OP/zwWLRoUdx8881xwQUXxP333x+XXnppPPLII11eX2NjY8y4cUZM+R9T4ponroletb3i3OHnxjdP/+YOy1Wr1Xhp40tx/ZPXx5+850/i2Yeejccee2yfnmtLS0ssWLAghg0btk+Pw745WA+8oHM6FYI96gvREuUolFqj9PsYrKnZvmu47QWyXC63v1AOGjTIJznS6c5rDf/Xf/1X9O7dO6666qro1atXDB06NDZv3hz/+I//GAsWLOjw46xduza++c1vdumFfcWKFZ3e7r1ZvHhxzJgxIzZv3hybN2+ONWvWxGOPPRaFQuGgfFPZsGFD/OAHP4gFCxbE008/HRHbz/vXnZPSN2/eHF/72tdi0qRJceKJJ8aLL74Yt912W9x6661RLBajXC7He9/73pg0aVJcfvnlMXfu3Ljtttv2aZ0PPPBADBw4MKZNnhY3L7g55qx4KM4YckaMPmxMFAuF2NSyOR56+cFYuGFhXDjqwogXIq699tpued1vaWmJxYsXH5S/D+8WfvZvvzfPCYzY/7uGIzoZgtVic9TUtGzfHVxs2y3cGjXF7buGV6xY0b5reMCAAdtPIyAESaozcwSPOeaYXV5BYdmyZXHDDTfEvffeG1dddVX84he/iLlz53bpqhz7899ic3PHp4E0NTXFHXfcEatXr97pvn154+nRo0eMHj2608+zoaFhn4KtXC7HzJkzdwrzrvy89/b7smDBgvjyl78cffr0iVKp1L6Otg/fTz/9dHzyk5+MpqamDh2ssXXr1j3urq5Wq3HrrbfG+vXr408/+6ex6bBN8ZtXfhOPvvJobC1vjf71/eP0IafHxGMmxr133BszZ87s1ssHChEy2dWBIbs6gKS7dTgECxFRLLVG1LRGqbYcxWJrFGu2jwgWayrR2toaW7dubQ/BthO5CkGy6ewcwaVLl8aHPvShmDBhwg5fr1arMWPGjFiwYEGsXLkyFixYEMuXL9+vl2brqs4cIXrXXXfFE0880a3rr1ar0dLSEn/+53/epe/fl1HbOXPmdMvu30ql0uEDLHZ30Em1Wm2/5nBHdHR9P//5z2POnDlx5plnxtixY+MDx34getT3iLVr1saTdzwZ3/3Fd9uPVAY6b3dHB+/uaOLuVOrdu3eHLkNUjYhrzp4c619bF5Vqtf18gW3/ramtiwH9Do9KpRqVSjlayuUoVyLK1Xfe+Xpgf+rsHMEf/ehHHXrcji73Trev88d2ZdmyZTF16tRuf9yOmD9//gFZ79tt8+bNMWvWrJg1a9aB3hTYo3fieQL3Zty4cbs9oXRbDHbnCaVra2sjYvuVq0pHHHFEhyZmn/uRP4yWlpbo16dnp1f4xSu77zql8E7Us2fP6NOnT/vtlpaWHW5HxE63ga5reyODNztYR6X3tt1jx47t1ufWdl7Tvn37dnzXcG1trX94sAt9+/aNiy+++EBvBqQzcODAA70JcNArHHXUUdVDDz00IiJefPHFA7w5AADsTyNGjIiI7VM+nOQPACApIQgAkJQQBABISggCACQlBAEAkhKCAABJCUEAgETefLpAIQgAkJQQBABISggCACQlBAEAkhKCAABJCUEAgKSEIABAUkIQACApIQgAkJQQBABISggCACQlBAEAkhKCAABJCUEAgKSEIABAUkIQACApIQgAkJQQBABISggCACQlBAEAkhKCAABJCUEAgKSEIABAUkIQACApIQgAkJQQBABISggCACQlBAEAkhKCAABJCUEAgKSEIABAUkIQACApIQgAkJQQBABISggCACQlBAEAkhKCAABJCUEAgKSEIABAUkIQACApIQgAkJQQBABISggCACQlBAEAkhKCAABJCUEAgKSEIABAUkIQACApIQgAkJQQBABISggCACQlBAEAkhKCAABJCUEAgKSEIABAUkIQACApIQgAkJQQBABISggCACQlBAEAkhKCAABJCUEAgKSEIABAUkIQACApIQgAkJQQBABISggCACQlBAEAkhKCAABJCUEAgKSEIABAUkIQACApIQgAkJQQBABISggCACQlBAEAkhKCAABJCUEAgKSEIABAUkIQACApIQgAkJQQBABISggCACQlBAEAkhKCAABJCUEAgKSEIABAUkIQACApIQgAkJQQBABISggCACQlBAEAkhKCAABJCUEAgKSEIABAUkIQACApIQgAkJQQBABISggCACQlBAEAkhKCAABJCUEAgKSEIABAUkIQACApIQgAkJQQBABISggCACQlBAEAkhKCAABJCUEAgKSEIABAUkIQACApIQgAkJQQBABISggCACQlBAEAkhKCAABJCUEAgKSEIABAUkIQACApIQgAkJQQBABISggCACQlBAEAkhKCAABJCUEAgKSEIABAUkIQACApIQgAkJQQBABISggCACQlBAEAkhKCAABJCUEAgKSEIABAUkIQACApIQgAkJQQBABISggCACQlBAEAkhKCAABJCUEAgKSEIABAUkIQACApIQgAkJQQBABISggCACQlBAEAkhKCAABJCUEAgKSEIABAUkIQACApIQgAkJQQBABISggCACQlBAEAkhKCAABJCUEAgKSEIABAUkIQACApIQgAkJQQBABISggCACQlBAEAkhKCAABJCUEAgKSEIABAUkIQACApIQgAkJQQBABISggCACQlBAEAkhKCAABJCUEAgKSEIABAUkIQACApIQgAkJQQBABISggCACQlBAEAkhKCAABJCUEAgKSEIABAUkIQACApIQgAkJQQBABISggCACQlBAEAkhKCAABJCUEAgKSEIABAUkIQACApIQgAkJQQBABISggCACQlBAEAkhKCAABJCUEAgKSEIABAUkIQACApIQgAkJQQBABISggCACQlBAEAkhKCAABJCUEAgKSEIABAUkIQACApIQgAkJQQBABISggCACQlBAEAkhKCAABJCUEAgKSEIABAUkIQACApIQgAkJQQBABISggCACQlBAEAkhKCAABJCUEAgKSEIABAUkIQACApIQgAkJQQBABISggCACQlBAEAkhKCAABJCUEAgKSEIABAUkIQACApIQgAkJQQBABISggCACQlBAEAkhKCAABJCUEAgKSEIABAUkIQACApIQgAkJQQBABISggCACQlBAEAkhKCAABJCUEAgKSEIABAUkIQACApIQgAkJQQBABISggCACQlBAEAkhKCAABJCUEAgKSEIABAUkIQACApIQgAkJQQBABISggCACQlBAEAkhKCAABJCUEAgKSEIABAUkIQACApIQgAkJQQBABISggCACQlBAEAkhKCAABJCUEAgKSEIABAUkIQACApIQgAkJQQBABISggCACQlBAEAkhKCAABJCUEAgKSEIABAUkIQACApIQgAkJQQBABISggCACQlBAEAkhKCAABJCUEAgKSEIABAUkIQACApIQgAkJQQBABISggCACQlBAEAkhKCAABJCUEAgKSEIABAUkIQACApIQgAkJQQBABISggCACQlBAEAkhKCAABJCUEAgKSEIABAUkIQACApIQgAkJQQBABISggCACQlBAEAkhKCAABJCUEAgKSEIABAUkIQACApIQgAkJQQBABISggCACQlBAEAkhKCAABJCUEAgKSEIABAUkIQACApIQgAkJQQBABISggCACQlBAEAkhKCAABJCUEAgKSEIABAUkIQACApIQgAkJQQBABISggCACQlBAEAkhKCAABJCUEAgKSEIABAUkIQACApIQgAkJQQBABISggCACQlBAEAkhKCAABJCUEAgKSEIABAUkIQACApIQgAkJQQBABISggCACQlBAEAkhKCAABJCUEAgKSEIABAUkIQACApIQgAkJQQBABISggCACQlBAEAkhKCAABJCUEAgKSEIABAUkIQACApIQgAkJQQBABISggCACQlBAEAkhKCAABJCUEAgKSEIABAUkIQACApIQgAkJQQBABISggCACQlBAEAkhKCAABJCUEAgKSEIABAUkIQACApIQgAkJQQBABISggCACQlBAEAkhKCAABJCUEAgKSEIABAUkIQACApIQgAkJQQBABISggCACQlBAEAkhKCAABJCUEAgKSEIABAUkIQACApIQgAkJQQBABISggCACQlBAEAkhKCAABJCUEAgKSEIABAUkIQACApIQgAkJQQBABISggCACQlBAEAkhKCAABJCUEAgKSEIABAUkIQACApIQgAkJQQBABISggCACQlBAEAkhKCAABJCUEAgKSEIABAUkIQACApIQgAkJQQBABISggCACQlBAEAkhKCAABJCUEAgKSEIABAUkIQACApIQgAkJQQBABISggCACQlBAEAkhKCAABJCUEAgKSEIABAUkIQACApIQgAkJQQBABISggCACQlBAEAkhKCAABJCUEAgKSEIABAUkIQACApIQgAkJQQBABISggCACQlBAEAkhKCAABJCUEAgKSEIABAUkIQACApIQgAkJQQBABISggCACQlBAEAkhKCAABJCUEAgKSEIABAUkIQACApIQgAkJQQBABISggCACQlBAEAkhKCAABJCUEAgKSEIABAUkIQACApIQgAkJQQBABISggCACQlBAEAkhKCAABJCUEAgKSEIABAUkIQACApIQgAkJQQBABISggCACQlBAEAkhKCAABJCUEAgKSEIABAUkIQACApIQgAkJQQBABISggCACRVevONarV6oLYDAIC32Q4huPn11yPEIADAu1eh0P7XHUIwqlWjggAA72KFN/3dHEEAgKSEIABAUkIQACApIQgAkJQQBABISggCACQlBAEAkhKCAABJCUEAgKSEIABAUkIQACApIQgAkJQQBABISggCACQlBAEAkhKCAABJCUEAgKSEIABAUkIQACApIQgAkJQQBABISggCACQlBAEAEioUCkIQACArIQgAkJQQBABIqlgoFA70NgAAcACUdrhVKIQsBAB4F/v9IGChUIjC4MGDq/X19Qd4iwAAeDu98cYb8f8ADnEbwYEJUEsAAAAASUVORK5CYII=;" parent="1" vertex="1">
          <mxGeometry x="143" y="1500" width="642" height="545" as="geometry" />
        </mxCell>
        <mxCell id="NUu4eacmFacFfqtwliKr-161" value="Manifold Pressure Controller" style="text;strokeColor=none;align=center;fillColor=none;html=1;verticalAlign=middle;whiteSpace=wrap;rounded=0;fontSize=30;fontStyle=1" parent="1" vertex="1">
          <mxGeometry x="249" y="1550" width="430" height="30" as="geometry" />
        </mxCell>
        <mxCell id="NUu4eacmFacFfqtwliKr-162" value="FPM" style="text;strokeColor=none;align=center;fillColor=none;html=1;verticalAlign=middle;whiteSpace=wrap;rounded=0;" parent="1" vertex="1">
          <mxGeometry x="-392" y="659" width="60" height="30" as="geometry" />
        </mxCell>
        <mxCell id="NUu4eacmFacFfqtwliKr-163" value="FPM" style="text;strokeColor=none;align=center;fillColor=none;html=1;verticalAlign=middle;whiteSpace=wrap;rounded=0;" parent="1" vertex="1">
          <mxGeometry x="626" y="659" width="60" height="30" as="geometry" />
        </mxCell>
        <mxCell id="NUu4eacmFacFfqtwliKr-164" value="MPC" style="text;strokeColor=none;align=center;fillColor=none;html=1;verticalAlign=middle;whiteSpace=wrap;rounded=0;" parent="1" vertex="1">
          <mxGeometry x="173" y="1501" width="60" height="30" as="geometry" />
        </mxCell>
        <mxCell id="NUu4eacmFacFfqtwliKr-165" value="NetID : 5.108.227.236.1.1" style="text;strokeColor=none;align=center;fillColor=none;html=1;verticalAlign=middle;whiteSpace=wrap;rounded=0;" parent="1" vertex="1">
          <mxGeometry x="450" y="2020" width="140" height="20" as="geometry" />
        </mxCell>
        <mxCell id="NUu4eacmFacFfqtwliKr-166" value="Communication Status :&amp;nbsp;" style="text;html=1;align=center;verticalAlign=middle;resizable=0;points=[];autosize=1;strokeColor=none;fillColor=none;" parent="1" vertex="1">
          <mxGeometry x="620" y="2015" width="150" height="30" as="geometry" />
        </mxCell>
        <mxCell id="NUu4eacmFacFfqtwliKr-167" value="" style="ellipse;whiteSpace=wrap;html=1;fillColor=#d5e8d4;strokeColor=#82b366;" parent="1" vertex="1">
          <mxGeometry x="760" y="2025" width="10" height="10" as="geometry" />
        </mxCell>
        <mxCell id="NUu4eacmFacFfqtwliKr-168" value="" style="rounded=1;whiteSpace=wrap;html=1;" parent="1" vertex="1">
          <mxGeometry x="233" y="1600" width="217" height="200" as="geometry" />
        </mxCell>
        <mxCell id="NUu4eacmFacFfqtwliKr-170" value="" style="rounded=1;whiteSpace=wrap;html=1;" parent="1" vertex="1">
          <mxGeometry x="233" y="1810" width="217" height="200" as="geometry" />
        </mxCell>
        <mxCell id="NUu4eacmFacFfqtwliKr-171" value="" style="rounded=1;whiteSpace=wrap;html=1;" parent="1" vertex="1">
          <mxGeometry x="462" y="1810" width="217" height="200" as="geometry" />
        </mxCell>
        <mxCell id="NUu4eacmFacFfqtwliKr-172" value="Manifold Pressure&#39;s EtherCAT Comm" style="text;strokeColor=none;align=center;fillColor=none;html=1;verticalAlign=middle;whiteSpace=wrap;rounded=0;" parent="1" vertex="1">
          <mxGeometry x="261.5" y="1610" width="160" height="30" as="geometry" />
        </mxCell>
        <mxCell id="NUu4eacmFacFfqtwliKr-173" value="" style="ellipse;whiteSpace=wrap;html=1;aspect=fixed;fillColor=#d5e8d4;strokeColor=#82b366;" parent="1" vertex="1">
          <mxGeometry x="261.5" y="1650" width="38" height="38" as="geometry" />
        </mxCell>
        <mxCell id="NUu4eacmFacFfqtwliKr-174" value="" style="ellipse;whiteSpace=wrap;html=1;aspect=fixed;fillColor=#d5e8d4;strokeColor=#82b366;" parent="1" vertex="1">
          <mxGeometry x="261.5" y="1700" width="38" height="38" as="geometry" />
        </mxCell>
        <mxCell id="NUu4eacmFacFfqtwliKr-175" value="" style="ellipse;whiteSpace=wrap;html=1;aspect=fixed;fillColor=#d5e8d4;strokeColor=#82b366;" parent="1" vertex="1">
          <mxGeometry x="261.5" y="1750" width="38" height="38" as="geometry" />
        </mxCell>
        <mxCell id="NUu4eacmFacFfqtwliKr-176" value="PG12" style="text;strokeColor=none;align=center;fillColor=none;html=1;verticalAlign=middle;whiteSpace=wrap;rounded=0;" parent="1" vertex="1">
          <mxGeometry x="350" y="1658" width="60" height="30" as="geometry" />
        </mxCell>
        <mxCell id="NUu4eacmFacFfqtwliKr-177" value="PG13" style="text;strokeColor=none;align=center;fillColor=none;html=1;verticalAlign=middle;whiteSpace=wrap;rounded=0;" parent="1" vertex="1">
          <mxGeometry x="350" y="1704" width="60" height="30" as="geometry" />
        </mxCell>
        <mxCell id="NUu4eacmFacFfqtwliKr-178" value="PG14" style="text;strokeColor=none;align=center;fillColor=none;html=1;verticalAlign=middle;whiteSpace=wrap;rounded=0;" parent="1" vertex="1">
          <mxGeometry x="350" y="1754" width="60" height="30" as="geometry" />
        </mxCell>
        <mxCell id="NUu4eacmFacFfqtwliKr-180" value="" style="rounded=1;whiteSpace=wrap;html=1;" parent="1" vertex="1">
          <mxGeometry x="462" y="1600" width="217" height="200" as="geometry" />
        </mxCell>
        <mxCell id="NUu4eacmFacFfqtwliKr-181" value="Manifold Pressure Switches" style="text;strokeColor=none;align=center;fillColor=none;html=1;verticalAlign=middle;whiteSpace=wrap;rounded=0;" parent="1" vertex="1">
          <mxGeometry x="490.5" y="1610" width="160" height="30" as="geometry" />
        </mxCell>
        <mxCell id="NUu4eacmFacFfqtwliKr-182" value="" style="ellipse;whiteSpace=wrap;html=1;aspect=fixed;fillColor=#f8cecc;strokeColor=#b85450;" parent="1" vertex="1">
          <mxGeometry x="490.5" y="1650" width="38" height="38" as="geometry" />
        </mxCell>
        <mxCell id="NUu4eacmFacFfqtwliKr-183" value="" style="ellipse;whiteSpace=wrap;html=1;aspect=fixed;fillColor=#f8cecc;strokeColor=#b85450;" parent="1" vertex="1">
          <mxGeometry x="490.5" y="1700" width="38" height="38" as="geometry" />
        </mxCell>
        <mxCell id="NUu4eacmFacFfqtwliKr-184" value="" style="ellipse;whiteSpace=wrap;html=1;aspect=fixed;fillColor=#f8cecc;strokeColor=#b85450;" parent="1" vertex="1">
          <mxGeometry x="490.5" y="1750" width="38" height="38" as="geometry" />
        </mxCell>
        <mxCell id="NUu4eacmFacFfqtwliKr-185" value="PAL40" style="text;strokeColor=none;align=center;fillColor=none;html=1;verticalAlign=middle;whiteSpace=wrap;rounded=0;" parent="1" vertex="1">
          <mxGeometry x="579" y="1658" width="60" height="30" as="geometry" />
        </mxCell>
        <mxCell id="NUu4eacmFacFfqtwliKr-186" value="PAL41" style="text;strokeColor=none;align=center;fillColor=none;html=1;verticalAlign=middle;whiteSpace=wrap;rounded=0;" parent="1" vertex="1">
          <mxGeometry x="579" y="1704" width="60" height="30" as="geometry" />
        </mxCell>
        <mxCell id="NUu4eacmFacFfqtwliKr-187" value="PAL42" style="text;strokeColor=none;align=center;fillColor=none;html=1;verticalAlign=middle;whiteSpace=wrap;rounded=0;" parent="1" vertex="1">
          <mxGeometry x="579" y="1754" width="60" height="30" as="geometry" />
        </mxCell>
        <mxCell id="NUu4eacmFacFfqtwliKr-188" value="YV32 Isolation Valve" style="text;strokeColor=none;align=center;fillColor=none;html=1;verticalAlign=middle;whiteSpace=wrap;rounded=0;" parent="1" vertex="1">
          <mxGeometry x="276.5" y="1820" width="130" height="30" as="geometry" />
        </mxCell>
        <mxCell id="NUu4eacmFacFfqtwliKr-189" value="Open()" style="rounded=1;whiteSpace=wrap;html=1;" parent="1" vertex="1">
          <mxGeometry x="261" y="1860" width="69" height="30" as="geometry" />
        </mxCell>
        <mxCell id="NUu4eacmFacFfqtwliKr-190" value="Close()" style="rounded=1;whiteSpace=wrap;html=1;" parent="1" vertex="1">
          <mxGeometry x="261" y="1910" width="69" height="30" as="geometry" />
        </mxCell>
        <mxCell id="NUu4eacmFacFfqtwliKr-191" value="Reset()" style="rounded=1;whiteSpace=wrap;html=1;" parent="1" vertex="1">
          <mxGeometry x="261" y="1960" width="69" height="30" as="geometry" />
        </mxCell>
        <mxCell id="NUu4eacmFacFfqtwliKr-192" value="Opened" style="rounded=1;whiteSpace=wrap;html=1;fillColor=#d5e8d4;strokeColor=#82b366;" parent="1" vertex="1">
          <mxGeometry x="350" y="1860" width="69" height="30" as="geometry" />
        </mxCell>
        <mxCell id="NUu4eacmFacFfqtwliKr-193" value="Closed" style="rounded=1;whiteSpace=wrap;html=1;fillColor=#647687;fontColor=#ffffff;strokeColor=#314354;" parent="1" vertex="1">
          <mxGeometry x="350" y="1910" width="69" height="30" as="geometry" />
        </mxCell>
        <mxCell id="NUu4eacmFacFfqtwliKr-194" value="Fault" style="rounded=1;whiteSpace=wrap;html=1;fillColor=#647687;fontColor=#ffffff;strokeColor=#314354;" parent="1" vertex="1">
          <mxGeometry x="350" y="1960" width="69" height="30" as="geometry" />
        </mxCell>
        <mxCell id="NUu4eacmFacFfqtwliKr-195" value="MFC16 Mass Flow Controller" style="text;strokeColor=none;align=center;fillColor=none;html=1;verticalAlign=middle;whiteSpace=wrap;rounded=0;" parent="1" vertex="1">
          <mxGeometry x="490.5" y="1820" width="164" height="30" as="geometry" />
        </mxCell>
        <mxCell id="NUu4eacmFacFfqtwliKr-196" value="ManualOn()" style="rounded=1;whiteSpace=wrap;html=1;" parent="1" vertex="1">
          <mxGeometry x="490.5" y="1860" width="69" height="30" as="geometry" />
        </mxCell>
        <mxCell id="NUu4eacmFacFfqtwliKr-197" value="Stopped" style="rounded=1;whiteSpace=wrap;html=1;fillColor=#d5e8d4;strokeColor=#82b366;" parent="1" vertex="1">
          <mxGeometry x="585.5" y="1860" width="69" height="30" as="geometry" />
        </mxCell>
        <mxCell id="NUu4eacmFacFfqtwliKr-198" value="ManualOff()" style="rounded=1;whiteSpace=wrap;html=1;" parent="1" vertex="1">
          <mxGeometry x="490.5" y="1910" width="69" height="30" as="geometry" />
        </mxCell>
        <mxCell id="NUu4eacmFacFfqtwliKr-199" value="Manual" style="rounded=1;whiteSpace=wrap;html=1;fillColor=#647687;fontColor=#ffffff;strokeColor=#314354;" parent="1" vertex="1">
          <mxGeometry x="585.5" y="1910" width="69" height="30" as="geometry" />
        </mxCell>
        <mxCell id="NUu4eacmFacFfqtwliKr-200" value="Set Point : xx.xx%" style="text;strokeColor=none;align=center;fillColor=none;html=1;verticalAlign=middle;whiteSpace=wrap;rounded=0;" parent="1" vertex="1">
          <mxGeometry x="475" y="1947" width="130" height="30" as="geometry" />
        </mxCell>
        <mxCell id="NUu4eacmFacFfqtwliKr-201" value="Feedback : xx.xx%" style="text;strokeColor=none;align=center;fillColor=none;html=1;verticalAlign=middle;whiteSpace=wrap;rounded=0;" parent="1" vertex="1">
          <mxGeometry x="475" y="1977" width="130" height="30" as="geometry" />
        </mxCell>
        <mxCell id="NUu4eacmFacFfqtwliKr-202" value="MPC" style="text;strokeColor=none;align=center;fillColor=none;html=1;verticalAlign=middle;whiteSpace=wrap;rounded=0;fontSize=50;fontStyle=1" parent="1" vertex="1">
          <mxGeometry x="222" y="1420" width="450" height="30" as="geometry" />
        </mxCell>
        <mxCell id="NUu4eacmFacFfqtwliKr-203" value="" style="endArrow=none;html=1;rounded=0;strokeWidth=4;" parent="1" edge="1">
          <mxGeometry width="50" height="50" relative="1" as="geometry">
            <mxPoint x="-780" y="1290" as="sourcePoint" />
            <mxPoint x="1590" y="1290" as="targetPoint" />
            <Array as="points">
              <mxPoint x="410" y="1290" />
            </Array>
          </mxGeometry>
        </mxCell>
      </root>
    </mxGraphModel>
  </diagram>
</mxfile>
